<?xml version="1.0" ?><!DOCTYPE svg  PUBLIC '-//W3C//DTD SVG 1.1//EN'  'http://www.w3.org/Graphics/SVG/1.1/DTD/svg11.dtd'><svg height="32px" style="enable-background:new 0 0 32 32;" version="1.1" viewBox="0 0 32 32" width="32px" xml:space="preserve" xmlns="http://www.w3.org/2000/svg" xmlns:xlink="http://www.w3.org/1999/xlink"><g id="_x38__audio_enhancement"><g><path d="M6.375,6.375c0-0.656-0.532-1.188-1.188-1.188S4,5.719,4,6.375v10.438h2.375V6.375z"/><path d="M4,25.625c0,0.656,0.532,1.188,1.188,1.188s1.188-0.531,1.188-1.188V24.25H4V25.625z"/><path d="M13.5,6.375c0-0.656-0.531-1.188-1.188-1.188s-1.188,0.532-1.188,1.188v8.688H13.5V6.375z"/><path d="M11.125,25.625c0,0.656,0.531,1.188,1.188,1.188s1.188-0.531,1.188-1.188V22.5h-2.375V25.625z"/><path d="M20.875,6.375c0-0.656-0.531-1.188-1.188-1.188S18.5,5.719,18.5,6.375v1.25h2.375V6.375z"/><path d="M18.5,25.625c0,0.656,0.531,1.188,1.188,1.188s1.188-0.531,1.188-1.188V15.063H18.5V25.625z"/><path d="M28,6.375c0-0.656-0.531-1.188-1.188-1.188s-1.188,0.532-1.188,1.188v9.688H28V6.375z"/><path d="M25.625,25.625c0,0.656,0.531,1.188,1.188,1.188S28,26.281,28,25.625V23.5h-2.375V25.625z"/><path d="M6.691,18H3.684c-0.214,0-0.388,0.152-0.388,0.34v4.383c0,0.188,0.173,0.34,0.388,0.34h3.007    c0.215,0,0.388-0.151,0.388-0.34V18.34C7.079,18.152,6.906,18,6.691,18z"/><path d="M13.816,16.313H10.81c-0.215,0-0.388,0.152-0.388,0.34v4.383c0,0.188,0.173,0.34,0.388,0.34h3.007    c0.215,0,0.388-0.151,0.388-0.34v-4.383C14.204,16.465,14.031,16.313,13.816,16.313z"/><path d="M21.191,8.844h-3.008c-0.215,0-0.387,0.152-0.387,0.34v4.383c0,0.188,0.172,0.34,0.387,0.34h3.008    c0.215,0,0.387-0.151,0.387-0.34V9.184C21.578,8.996,21.406,8.844,21.191,8.844z"/><path d="M28.316,17.188h-3.008c-0.215,0-0.387,0.152-0.387,0.34v4.383c0,0.188,0.172,0.34,0.387,0.34h3.008    c0.215,0,0.387-0.151,0.387-0.34v-4.383C28.703,17.34,28.531,17.188,28.316,17.188z"/></g></g></svg>