<?xml version="1.0" encoding="utf-8"?>
<!-- Generator: Adobe Illustrator 21.0.0, SVG Export Plug-In . SVG Version: 6.00 Build 0)  -->
<!DOCTYPE svg PUBLIC "-//W3C//DTD SVG 1.1//EN" "http://www.w3.org/Graphics/SVG/1.1/DTD/svg11.dtd">
<svg version="1.1" id="SheetInfo" xmlns="http://www.w3.org/2000/svg" xmlns:xlink="http://www.w3.org/1999/xlink" x="0px" y="0px"
	 viewBox="0 0 350 224.837" enable-background="new 0 0 350 224.837" xml:space="preserve">
<g>
	<path fill="#231F20" d="M13.171,149.87c1.482,0.852,3.706,1.594,6.041,1.594c2.928,0,4.559-1.372,4.559-3.41
		c0-1.89-1.26-3.002-4.448-4.151c-4.114-1.483-6.746-3.669-6.746-7.265c0-4.077,3.41-7.19,8.821-7.19
		c2.706,0,4.707,0.593,6.004,1.26l-1.112,3.669c-0.889-0.482-2.631-1.186-4.966-1.186c-2.891,0-4.151,1.557-4.151,3.002
		c0,1.927,1.446,2.817,4.781,4.114c4.336,1.631,6.449,3.817,6.449,7.413c0,4.003-3.039,7.487-9.488,7.487
		c-2.631,0-5.374-0.741-6.746-1.557L13.171,149.87z"/>
	<path fill="#231F20" d="M48.495,149.426c0,2.149,0.074,3.929,0.148,5.411h-4.003l-0.223-2.743h-0.074
		c-0.778,1.297-2.557,3.15-5.782,3.15c-3.299,0-6.301-1.964-6.301-7.857v-10.6h4.559v9.822c0,3.002,0.964,4.929,3.373,4.929
		c1.816,0,3.002-1.297,3.484-2.446c0.148-0.408,0.259-0.89,0.259-1.409v-10.896h4.559V149.426z"/>
	<path fill="#231F20" d="M53.205,150.649c1.038,0.63,3.002,1.297,4.633,1.297c2.001,0,2.891-0.815,2.891-2.001
		c0-1.223-0.741-1.853-2.965-2.631c-3.521-1.223-5.003-3.15-4.967-5.263c0-3.188,2.632-5.67,6.82-5.67
		c2.001,0,3.744,0.519,4.781,1.075l-0.89,3.225c-0.778-0.445-2.224-1.038-3.817-1.038c-1.631,0-2.521,0.778-2.521,1.891
		c0,1.149,0.853,1.705,3.15,2.52c3.262,1.186,4.781,2.854,4.818,5.522c0,3.262-2.557,5.634-7.338,5.634
		c-2.187,0-4.151-0.519-5.485-1.26L53.205,150.649z"/>
	<path fill="#231F20" d="M74.11,131.635v5.152h4.336v3.41H74.11v7.969c0,2.187,0.593,3.335,2.335,3.335
		c0.778,0,1.371-0.111,1.779-0.222l0.074,3.484c-0.667,0.26-1.853,0.445-3.299,0.445c-1.667,0-3.076-0.556-3.929-1.482
		c-0.963-1.038-1.408-2.668-1.408-5.041v-8.488h-2.595v-3.41h2.595v-4.077L74.11,131.635z"/>
	<path fill="#231F20" d="M92.051,154.837l-0.296-2.001h-0.111c-1.112,1.408-3.002,2.409-5.337,2.409
		c-3.632,0-5.671-2.631-5.671-5.374c0-4.559,4.04-6.857,10.711-6.82v-0.296c0-1.186-0.482-3.15-3.669-3.15
		c-1.779,0-3.632,0.556-4.855,1.334l-0.889-2.965c1.334-0.815,3.669-1.594,6.523-1.594c5.782,0,7.45,3.669,7.45,7.598v6.523
		c0,1.631,0.074,3.225,0.26,4.336H92.051z M91.458,146.015c-3.225-0.074-6.301,0.63-6.301,3.373c0,1.779,1.149,2.594,2.594,2.594
		c1.816,0,3.15-1.186,3.558-2.483c0.111-0.333,0.148-0.704,0.148-1V146.015z"/>
	<path fill="#231F20" d="M105.582,131.746c0,1.372-1.001,2.446-2.595,2.446c-1.52,0-2.521-1.075-2.521-2.446
		c0-1.408,1.038-2.483,2.558-2.483C104.581,129.263,105.545,130.338,105.582,131.746z M100.727,154.837v-18.05h4.596v18.05H100.727z
		"/>
	<path fill="#231F20" d="M110.216,142.161c0-2.076-0.037-3.817-0.148-5.374h4.003l0.222,2.706h0.111
		c0.778-1.409,2.743-3.113,5.745-3.113c3.15,0,6.412,2.039,6.412,7.746v10.711h-4.559v-10.192c0-2.595-0.964-4.559-3.447-4.559
		c-1.816,0-3.076,1.297-3.558,2.669c-0.148,0.408-0.186,0.963-0.186,1.482v10.6h-4.596V142.161z"/>
	<path fill="#231F20" d="M141.574,154.837l-0.296-2.001h-0.111c-1.112,1.408-3.002,2.409-5.337,2.409
		c-3.632,0-5.671-2.631-5.671-5.374c0-4.559,4.04-6.857,10.711-6.82v-0.296c0-1.186-0.482-3.15-3.669-3.15
		c-1.779,0-3.632,0.556-4.855,1.334l-0.889-2.965c1.334-0.815,3.669-1.594,6.523-1.594c5.782,0,7.45,3.669,7.45,7.598v6.523
		c0,1.631,0.074,3.225,0.26,4.336H141.574z M140.981,146.015c-3.225-0.074-6.301,0.63-6.301,3.373c0,1.779,1.149,2.594,2.594,2.594
		c1.816,0,3.15-1.186,3.558-2.483c0.111-0.333,0.148-0.704,0.148-1V146.015z"/>
	<path fill="#231F20" d="M150.102,154.837c0.074-1.223,0.148-3.225,0.148-5.078v-21.237h4.559v10.748h0.074
		c1.112-1.742,3.076-2.891,5.782-2.891c4.411,0,7.561,3.669,7.524,9.155c0,6.486-4.114,9.71-8.191,9.71
		c-2.335,0-4.411-0.89-5.708-3.113h-0.074l-0.223,2.706H150.102z M154.809,147.387c0,0.371,0.037,0.741,0.111,1.075
		c0.482,1.816,2.076,3.188,4.04,3.188c2.854,0,4.596-2.298,4.596-5.93c0-3.188-1.52-5.782-4.559-5.782
		c-1.854,0-3.521,1.334-4.04,3.335c-0.074,0.333-0.148,0.741-0.148,1.186V147.387z"/>
	<path fill="#231F20" d="M171.935,128.522h4.596v26.315h-4.596V128.522z"/>
	<path fill="#231F20" d="M184.686,147.091c0.111,3.261,2.668,4.67,5.56,4.67c2.112,0,3.632-0.296,5.003-0.815l0.667,3.15
		c-1.557,0.63-3.706,1.112-6.301,1.112c-5.856,0-9.303-3.595-9.303-9.118c0-5.003,3.039-9.71,8.821-9.71
		c5.856,0,7.784,4.818,7.784,8.784c0,0.853-0.074,1.52-0.148,1.928H184.686z M192.617,143.903c0.037-1.668-0.705-4.411-3.744-4.411
		c-2.817,0-4.003,2.557-4.188,4.411H192.617z"/>
	<path fill="#231F20" d="M208.446,129.856h14.418v3.744h-9.859v6.894h9.192v3.744h-9.192v10.6h-4.559V129.856z"/>
	<path fill="#231F20" d="M231.984,131.746c0,1.372-1.001,2.446-2.595,2.446c-1.52,0-2.521-1.075-2.521-2.446
		c0-1.408,1.038-2.483,2.558-2.483C230.983,129.263,231.947,130.338,231.984,131.746z M227.128,154.837v-18.05h4.596v18.05H227.128z
		"/>
	<path fill="#231F20" d="M236.618,142.161c0-2.076-0.037-3.817-0.148-5.374h4.003l0.222,2.706h0.111
		c0.778-1.409,2.743-3.113,5.745-3.113c3.15,0,6.412,2.039,6.412,7.746v10.711h-4.559v-10.192c0-2.595-0.964-4.559-3.447-4.559
		c-1.816,0-3.076,1.297-3.558,2.669c-0.148,0.408-0.186,0.963-0.186,1.482v10.6h-4.596V142.161z"/>
	<path fill="#231F20" d="M267.977,154.837l-0.296-2.001h-0.111c-1.112,1.408-3.002,2.409-5.337,2.409
		c-3.632,0-5.671-2.631-5.671-5.374c0-4.559,4.04-6.857,10.711-6.82v-0.296c0-1.186-0.482-3.15-3.669-3.15
		c-1.779,0-3.632,0.556-4.855,1.334l-0.889-2.965c1.334-0.815,3.669-1.594,6.523-1.594c5.782,0,7.45,3.669,7.45,7.598v6.523
		c0,1.631,0.074,3.225,0.26,4.336H267.977z M267.384,146.015c-3.225-0.074-6.301,0.63-6.301,3.373c0,1.779,1.149,2.594,2.594,2.594
		c1.816,0,3.15-1.186,3.558-2.483c0.111-0.333,0.148-0.704,0.148-1V146.015z"/>
	<path fill="#231F20" d="M276.652,142.161c0-2.076-0.037-3.817-0.148-5.374h4.003l0.223,2.706h0.111
		c0.778-1.409,2.743-3.113,5.745-3.113c3.15,0,6.412,2.039,6.412,7.746v10.711h-4.559v-10.192c0-2.595-0.964-4.559-3.447-4.559
		c-1.816,0-3.077,1.297-3.558,2.669c-0.148,0.408-0.186,0.963-0.186,1.482v10.6h-4.596V142.161z"/>
	<path fill="#231F20" d="M311.124,154.281c-0.963,0.445-2.854,0.927-5.115,0.927c-5.634,0-9.303-3.595-9.303-9.192
		c0-5.411,3.706-9.636,10.044-9.636c1.668,0,3.373,0.371,4.411,0.853l-0.815,3.41c-0.741-0.333-1.816-0.704-3.447-0.704
		c-3.484,0-5.56,2.557-5.522,5.856c0,3.706,2.409,5.819,5.522,5.819c1.594,0,2.706-0.333,3.595-0.704L311.124,154.281z"/>
	<path fill="#231F20" d="M317.723,147.091c0.111,3.261,2.668,4.67,5.56,4.67c2.112,0,3.632-0.296,5.003-0.815l0.667,3.15
		c-1.557,0.63-3.706,1.112-6.301,1.112c-5.856,0-9.303-3.595-9.303-9.118c0-5.003,3.039-9.71,8.821-9.71
		c5.856,0,7.784,4.818,7.784,8.784c0,0.853-0.074,1.52-0.148,1.928H317.723z M325.655,143.903c0.037-1.668-0.705-4.411-3.744-4.411
		c-2.817,0-4.003,2.557-4.188,4.411H325.655z"/>
	<path fill="#231F20" d="M79.448,194.353c1.482,0.852,3.706,1.594,6.041,1.594c2.928,0,4.559-1.372,4.559-3.41
		c0-1.89-1.26-3.002-4.448-4.151c-4.114-1.483-6.746-3.669-6.746-7.265c0-4.077,3.41-7.19,8.821-7.19
		c2.706,0,4.707,0.593,6.004,1.26l-1.112,3.669c-0.889-0.482-2.631-1.186-4.966-1.186c-2.891,0-4.151,1.557-4.151,3.002
		c0,1.927,1.446,2.817,4.781,4.114c4.336,1.631,6.449,3.817,6.449,7.413c0,4.003-3.039,7.487-9.488,7.487
		c-2.631,0-5.374-0.741-6.746-1.557L79.448,194.353z"/>
	<path fill="#231F20" d="M101.467,181.27l3.261,9.673c0.371,1.112,0.741,2.483,1.001,3.521h0.111
		c0.296-1.038,0.63-2.372,0.963-3.558l2.817-9.636h4.893l-4.522,12.305c-2.483,6.745-4.151,9.748-6.301,11.601
		c-1.779,1.594-3.632,2.187-4.781,2.335l-1.038-3.854c0.778-0.185,1.742-0.593,2.668-1.26c0.853-0.556,1.853-1.631,2.483-2.854
		c0.185-0.333,0.296-0.593,0.296-0.815c0-0.186-0.037-0.445-0.259-0.89l-6.598-16.567H101.467z"/>
	<path fill="#231F20" d="M116.924,195.132c1.038,0.63,3.002,1.297,4.633,1.297c2.001,0,2.891-0.815,2.891-2.001
		c0-1.223-0.741-1.853-2.965-2.631c-3.521-1.223-5.003-3.15-4.967-5.263c0-3.188,2.632-5.67,6.82-5.67
		c2.001,0,3.744,0.519,4.781,1.075l-0.89,3.225c-0.778-0.445-2.224-1.038-3.817-1.038c-1.631,0-2.521,0.778-2.521,1.891
		c0,1.149,0.853,1.705,3.15,2.52c3.262,1.186,4.781,2.854,4.818,5.522c0,3.262-2.557,5.634-7.338,5.634
		c-2.187,0-4.151-0.519-5.485-1.26L116.924,195.132z"/>
	<path fill="#231F20" d="M137.831,176.118v5.152h4.336v3.41h-4.336v7.969c0,2.187,0.593,3.335,2.335,3.335
		c0.778,0,1.371-0.111,1.779-0.222l0.074,3.484c-0.667,0.26-1.853,0.445-3.299,0.445c-1.667,0-3.076-0.556-3.929-1.482
		c-0.963-1.038-1.408-2.668-1.408-5.041v-8.488h-2.595v-3.41h2.595v-4.077L137.831,176.118z"/>
	<path fill="#231F20" d="M148.84,191.574c0.111,3.261,2.668,4.67,5.56,4.67c2.112,0,3.632-0.296,5.003-0.815l0.667,3.15
		c-1.557,0.63-3.706,1.112-6.301,1.112c-5.856,0-9.303-3.595-9.303-9.118c0-5.003,3.039-9.71,8.821-9.71
		c5.856,0,7.784,4.818,7.784,8.784c0,0.853-0.074,1.52-0.148,1.928H148.84z M156.772,188.386c0.037-1.668-0.705-4.411-3.744-4.411
		c-2.817,0-4.003,2.557-4.188,4.411H156.772z"/>
	<path fill="#231F20" d="M164.743,186.644c0-2.076-0.037-3.817-0.148-5.374h3.929l0.186,2.668h0.111
		c0.889-1.409,2.52-3.076,5.559-3.076c2.372,0,4.226,1.334,5.004,3.335h0.074c0.63-1,1.371-1.742,2.224-2.261
		c1-0.704,2.15-1.075,3.632-1.075c3.002,0,6.041,2.039,6.041,7.82v10.637h-4.447v-9.97c0-3.002-1.038-4.781-3.225-4.781
		c-1.557,0-2.706,1.112-3.188,2.409c-0.111,0.445-0.222,1.001-0.222,1.52v10.823h-4.448v-10.452c0-2.52-1.001-4.299-3.113-4.299
		c-1.705,0-2.854,1.334-3.262,2.595c-0.186,0.445-0.259,0.963-0.259,1.482v10.674h-4.448V186.644z"/>
	<path fill="#231F20" d="M225.124,189.127c-0.148-3.225-0.333-7.116-0.296-10.489h-0.111c-0.815,3.04-1.853,6.412-2.965,9.562
		l-3.632,10.823h-3.521l-3.336-10.674c-0.964-3.188-1.853-6.598-2.521-9.711h-0.074c-0.111,3.262-0.26,7.228-0.445,10.637
		l-0.556,10.044h-4.262l1.668-24.981h6.004l3.261,10.044c0.89,2.928,1.668,5.893,2.298,8.673h0.111
		c0.667-2.706,1.52-5.782,2.483-8.71l3.447-10.007h5.93l1.446,24.981h-4.448L225.124,189.127z"/>
	<path fill="#231F20" d="M244.661,199.32l-0.296-2.001h-0.111c-1.112,1.409-3.002,2.409-5.337,2.409
		c-3.632,0-5.671-2.631-5.671-5.374c0-4.559,4.04-6.857,10.711-6.82v-0.296c0-1.186-0.482-3.15-3.669-3.15
		c-1.779,0-3.632,0.556-4.855,1.334l-0.889-2.965c1.334-0.815,3.669-1.594,6.523-1.594c5.782,0,7.45,3.669,7.45,7.598v6.523
		c0,1.631,0.074,3.225,0.26,4.336H244.661z M244.068,190.498c-3.225-0.074-6.301,0.63-6.301,3.373c0,1.779,1.149,2.594,2.594,2.594
		c1.816,0,3.15-1.186,3.558-2.483c0.111-0.334,0.148-0.705,0.148-1.001V190.498z"/>
	<path fill="#231F20" d="M253.336,187.274c0-2.372-0.074-4.299-0.148-6.004h4.003l0.223,2.78h0.074
		c1.334-2.039,3.447-3.188,6.19-3.188c4.151,0,7.598,3.558,7.598,9.191c0,6.523-4.114,9.674-8.228,9.674
		c-2.261,0-4.151-0.964-5.078-2.409h-0.074v9.34h-4.559V187.274z M257.895,191.759c0,0.445,0.037,0.853,0.148,1.26
		c0.445,1.853,2.076,3.188,4.003,3.188c2.891,0,4.596-2.409,4.596-5.967c0-3.188-1.557-5.782-4.484-5.782
		c-1.891,0-3.632,1.371-4.077,3.373c-0.111,0.371-0.186,0.778-0.186,1.149V191.759z"/>
</g>
<g>
	<path fill="#010101" d="M34.948,43.57H4.992v10.793h3.147L8.541,46.6h9.309v29.367c0,0.472-0.587,1.137-1.134,1.137h-3.254v2.927
		h13.063v-2.927h-3.304c-0.539,0-1.084-0.657-1.084-1.137V46.6h9.265l0.454,7.763h3.091V43.57z"/>
	<path fill="#010101" d="M46.12,52.278c-7.681,0-12.838,5.678-12.838,14.115c0,4.208,1.197,7.701,3.461,10.111
		c2.354,2.463,5.729,3.723,10.03,3.723c5.336,0,8.568-1.637,10.347-3.028l0.219-0.191v-2.875h-2.565l-0.173,0.2
		c-1.105,1.32-3.325,2.867-7.624,2.867c-6.082,0-9.376-3.59-9.551-10.383h19.942l0.564-0.015l0.014-0.558
		c0-0.03,0.004-0.06,0.006-0.131c0.013-0.187,0.044-0.513,0.044-0.938C57.997,56.865,53.779,52.278,46.12,52.278z M46.12,55.273
		c4.872,0,7.485,2.882,7.773,8.577H37.577C38.224,58.455,41.381,55.273,46.12,55.273z"/>
	<path fill="#010101" d="M68.285,76.224V45.057c0-1.236-0.668-1.487-1.234-1.487h-6.982v2.968h3.255c0.435,0,0.93,0.558,0.93,0.94
		v28.747c0,0.414-0.489,0.88-0.93,0.88h-3.056v2.927h12.053v-2.927h-3.097C68.777,77.104,68.285,76.639,68.285,76.224z"/>
	<path fill="#010101" d="M83.291,76.224V45.057c0-1.236-0.667-1.487-1.235-1.487h-6.982v2.968h3.256c0.435,0,0.932,0.558,0.932,0.94
		v28.747c0,0.414-0.49,0.88-0.932,0.88h-3.056v2.927H87.33v-2.927h-3.107C83.783,77.104,83.291,76.639,83.291,76.224z"/>
	<path fill="#010101" d="M114.215,76.164V52.54h-8.218v3.028h4.188v17.692c-2.314,1.747-5.752,3.744-9.36,3.744
		c-2.818,0-4.568-0.753-4.568-4.555V52.54h-7.91v3.028h2.945c0.37,0,0.887,0.485,0.887,0.931v16.76c0,4.691,2.488,7.07,7.383,7.07
		c4.516,0,8.152-2.045,10.623-4.058v1.53c0.026,0.839,0.082,2.23,1.433,2.23h6.587v-2.927h-3.058
		C114.717,77.104,114.215,76.619,114.215,76.164z"/>
	<path fill="#010101" d="M132.221,64.097c-5.033-0.847-6.329-1.753-6.329-4.412c0-2.82,2.087-4.375,5.873-4.375
		c2.577,0,3.72,0.292,4.634,0.697c0.63,0.326,0.949,0.79,1.199,2.837l0.062,0.502h2.855v-5.779l-0.387-0.131
		c-2.117-0.762-4.919-1.159-8.308-1.159c-6.173,0-9.712,2.834-9.712,7.761c0,5.601,4.093,6.753,8.657,7.534
		c5.075,0.843,6.622,1.899,6.622,4.528c0,3.476-2.15,5.158-6.581,5.158c-2.401,0-3.836-0.249-5.299-0.897
		c-0.508-0.236-0.821-1.264-0.984-3.163l-0.045-0.519h-2.923v6.057l0.37,0.146c1.62,0.622,4.492,1.343,8.932,1.343
		c8.691,0,10.52-4.618,10.52-8.474C141.377,66.633,137.869,65.024,132.221,64.097z"/>
	<path fill="#909295" d="M220.599,73.09l-10.946-29.562h-10.217v2.968h2.902c0.539,0,1.143,0.708,1.143,1.189v28.24
		c0,0.466-0.589,1.159-1.143,1.159h-2.902v2.903h12.214v-2.903h-4.594V47.928l11.586,31.689l0.143,0.369h2.878l11.825-32.208v29.305
		h-4.593v2.903h12.91v-2.903h-2.95c-0.544,0-1.129-0.693-1.129-1.159v-28.24c0-0.481,0.594-1.189,1.129-1.189h2.95v-2.968h-10.211
		L220.599,73.09z"/>
	<path fill="#909295" d="M266.594,77.109c-0.94,0-1.489-0.279-1.489-1.764V60.153c0-5.326-3.041-7.894-9.304-7.894
		c-4,0-7.407,0.762-10.123,2.287l-0.292,0.165v3.285h2.262l0.166-0.156c1.732-1.539,4.313-2.358,7.481-2.358
		c4.066,0,5.728,1.429,5.728,4.907v4.103c-1.892-0.431-3.907-0.631-6.282-0.631c-7.036,0-11.069,2.983-11.069,8.188
		c0,5.15,3.31,8.188,8.849,8.188c3.703,0,6.21-0.978,8.547-3.446c0.267,2.199,1.869,3.42,4.57,3.42c1.182,0,2.173-0.348,2.522-0.534
		l0.325-0.161v-2.663l-0.675,0.114C267.57,77.01,266.884,77.109,266.594,77.109z M253.38,77.212c-2.61,0-5.729-0.925-5.729-5.319
		c0-4.551,4.76-5.223,7.598-5.223c1.884,0,3.773,0.208,5.774,0.655v5.935C259.362,75.345,257.267,77.212,253.38,77.212z"/>
	<path fill="#909295" d="M282.056,76.748c-0.254,0.167-1.067,0.425-2.159,0.425c-2.003,0-2.953-0.554-2.953-3.708V55.522h6.859
		V52.51h-6.859v-7.276h-4.09v7.276h-3.778v3.013h3.778v18.2c0,4.39,2.293,6.514,6.991,6.514c1.601,0,3.224-0.313,4.122-0.622
		l0.391-0.146V76.66h-2.161L282.056,76.748z"/>
	<path fill="#909295" d="M298.639,52.258c-7.674,0-12.833,5.663-12.833,14.087c0,4.231,1.192,7.725,3.455,10.102
		c2.356,2.489,5.729,3.764,10.035,3.764c5.336,0,8.571-1.676,10.345-3.064l0.221-0.18v-2.882h-2.564l-0.173,0.217
		c-1.104,1.305-3.327,2.871-7.628,2.871c-6.081,0-9.376-3.59-9.55-10.403h19.938h0.563l0.014-0.573c0,0,0.009-0.062,0.012-0.122
		c0.016-0.197,0.043-0.521,0.043-0.927C310.517,56.823,306.298,52.258,298.639,52.258z M298.639,55.228
		c4.869,0,7.484,2.88,7.769,8.574h-16.306C290.744,58.419,293.905,55.228,298.639,55.228z"/>
	<path fill="#909295" d="M330.243,52.529c-0.251-0.08-0.776-0.172-1.444-0.172c-3.691,0-6.322,2.167-8.149,4.277V54.9
		c0-0.77,0-2.39-1.483-2.39h-6.533v3.013h3.05c0.44,0,0.885,0.556,0.885,0.927v19.726c0,0.444-0.445,0.908-0.885,0.908h-2.795v2.903
		h12.604v-2.903h-4.844V60.209c2.611-2.983,5.236-4.373,8.248-4.373c0.43,0,1.112,0.034,1.121,0.034l0.621,0.051v-3.257
		L330.243,52.529z"/>
	<path fill="#909295" d="M336.393,70.425c-2.899,0-4.922,2.043-4.922,4.978c0,2.931,2.023,4.972,4.922,4.972
		c2.905,0,4.935-2.041,4.935-4.978C341.328,72.467,339.298,70.425,336.393,70.425z M336.393,79.54c-2.014,0-4.042-1.279-4.042-4.137
		c0-2.865,2.028-4.146,4.042-4.146c2.462,0,4.055,1.626,4.055,4.139C340.448,78.261,338.41,79.54,336.393,79.54z"/>
	<path fill="#909295" d="M337.819,76.705c-0.251,0.378-0.687,0.575-1.296,0.575c-1.317,0-1.594-1.034-1.594-1.912
		c0-1.182,0.604-1.863,1.664-1.863c0.466,0,0.748,0.155,0.932,0.294l0.104,1.009h0.91V72.6h-0.962l-0.014,0.159
		c-0.204-0.079-0.546-0.195-1.064-0.195c-1.674,0-2.76,1.107-2.76,2.822c0,1.751,1.055,2.843,2.748,2.843
		c0.904,0,1.573-0.245,2.098-0.779l0.075-0.067v-0.794h-0.758L337.819,76.705z"/>
	<path fill="#68C8C7" d="M151.579,78.958c0,0.601-0.486,1.088-1.087,1.088c-0.593,0-1.082-0.487-1.082-1.088
		c0-0.601,0.489-1.064,1.082-1.064C151.093,77.894,151.579,78.358,151.579,78.958z"/>
	<path fill="#68C8C7" d="M153.864,79.632c0,0.594-0.489,1.086-1.081,1.086c-0.604,0-1.088-0.492-1.088-1.086
		c0-0.579,0.484-1.075,1.088-1.075C153.375,78.557,153.864,79.053,153.864,79.632z"/>
	<path fill="#68C8C7" d="M154.944,82.718c0,0.601-0.477,1.084-1.08,1.084c-0.605,0-1.081-0.483-1.081-1.084
		c0-0.601,0.476-1.094,1.081-1.094C154.467,81.623,154.944,82.117,154.944,82.718z"/>
	<path fill="#68C8C7" d="M157.941,82.211c0,0.603-0.49,1.094-1.09,1.094c-0.592,0-1.083-0.491-1.083-1.094
		c0-0.603,0.49-1.073,1.083-1.073C157.451,81.138,157.941,81.608,157.941,82.211z"/>
	<path fill="#68C8C7" d="M157.071,85.093c0,0.605-0.49,1.092-1.089,1.092c-0.595,0-1.085-0.487-1.085-1.092
		c0-0.597,0.489-1.071,1.085-1.071C156.58,84.022,157.071,84.496,157.071,85.093z"/>
	<path fill="#68C8C7" d="M159.273,85.31c0,0.584-0.49,1.071-1.087,1.071c-0.599,0-1.087-0.487-1.087-1.071
		c0-0.599,0.488-1.094,1.087-1.094C158.783,84.215,159.273,84.711,159.273,85.31z"/>
	<path fill="#68C8C7" d="M161.475,87.61c0,0.594-0.49,1.075-1.087,1.075c-0.597,0-1.089-0.481-1.089-1.075
		c0-0.601,0.493-1.092,1.089-1.092C160.985,86.518,161.475,87.009,161.475,87.61z"/>
	<path fill="#68C8C7" d="M166.318,88.861c0,0.605-0.486,1.081-1.079,1.081c-0.604,0-1.089-0.476-1.089-1.081
		c0-0.603,0.485-1.09,1.089-1.09C165.832,87.771,166.318,88.258,166.318,88.861z"/>
	<path fill="#68C8C7" d="M166.611,77.763c0,0.595-0.491,1.073-1.08,1.073c-0.603,0-1.089-0.478-1.089-1.073
		c0-0.599,0.486-1.092,1.089-1.092C166.12,76.671,166.611,77.164,166.611,77.763z"/>
	<path fill="#68C8C7" d="M162.272,79.175c0,0.601-0.489,1.088-1.08,1.088c-0.602,0-1.098-0.487-1.098-1.088
		c0-0.586,0.496-1.073,1.098-1.073C161.783,78.102,162.272,78.589,162.272,79.175z"/>
	<path fill="#68C8C7" d="M157.804,78.6c0,0.603-0.489,1.094-1.083,1.094c-0.601,0-1.087-0.491-1.087-1.094
		c0-0.59,0.486-1.071,1.087-1.071C157.314,77.529,157.804,78.01,157.804,78.6z"/>
	<ellipse fill="#68C8C7" cx="152.871" cy="76.22" rx="1.083" ry="1.094"/>
	<path fill="#68C8C7" d="M150.597,75.898c0,0.605-0.48,1.069-1.081,1.069s-1.081-0.463-1.081-1.069c0-0.607,0.48-1.094,1.081-1.094
		S150.597,75.291,150.597,75.898z"/>
	<path fill="#68C8C7" d="M163.932,86.687c0,0.59-0.479,1.071-1.081,1.071c-0.602,0-1.08-0.481-1.08-1.071
		c0-0.605,0.478-1.094,1.08-1.094C163.452,85.593,163.932,86.082,163.932,86.687z"/>
	<path fill="#68C8C7" d="M163.932,86.689c0,0.588-0.479,1.071-1.081,1.071c-0.602,0-1.08-0.483-1.08-1.071
		c0-0.605,0.478-1.096,1.08-1.096C163.452,85.593,163.932,86.084,163.932,86.689z"/>
	<path fill="#68C8C7" d="M163.932,86.687c0,0.59-0.479,1.071-1.081,1.071c-0.602,0-1.08-0.481-1.08-1.071
		c0-0.605,0.478-1.094,1.08-1.094C163.452,85.593,163.932,86.082,163.932,86.687z"/>
	<path fill="#68C8C7" d="M163.932,86.689c0,0.588-0.479,1.071-1.081,1.071c-0.602,0-1.08-0.483-1.08-1.071
		c0-0.605,0.478-1.096,1.08-1.096C163.452,85.593,163.932,86.084,163.932,86.689z"/>
	<path fill="#68C8C7" d="M163.932,86.689c0,0.588-0.479,1.071-1.081,1.071c-0.602,0-1.08-0.483-1.08-1.071
		c0-0.601,0.478-1.092,1.08-1.092C163.452,85.597,163.932,86.089,163.932,86.689z"/>
	<path fill="#68C8C7" d="M163.932,86.7c0,0.577-0.479,1.06-1.081,1.06c-0.602,0-1.08-0.483-1.08-1.06
		c0-0.611,0.478-1.099,1.08-1.099C163.452,85.601,163.932,86.089,163.932,86.7z"/>
	<path fill="#68C8C7" d="M163.93,86.7c0,0.577-0.48,1.06-1.083,1.06c-0.602,0-1.079-0.483-1.079-1.06
		c0-0.611,0.477-1.099,1.079-1.099C163.45,85.601,163.93,86.089,163.93,86.7z"/>
	<path fill="#68C8C7" d="M163.929,86.7c0,0.577-0.48,1.06-1.081,1.06c-0.602,0-1.081-0.483-1.081-1.06
		c0-0.611,0.48-1.099,1.081-1.099C163.449,85.601,163.929,86.089,163.929,86.7z"/>
	<path fill="#68C8C7" d="M163.929,86.7c0,0.577-0.48,1.064-1.081,1.064c-0.602,0-1.081-0.487-1.081-1.064
		c0-0.611,0.48-1.096,1.081-1.096C163.449,85.604,163.929,86.089,163.929,86.7z"/>
	<path fill="#68C8C7" d="M163.929,86.7c0,0.577-0.48,1.064-1.081,1.064c-0.602,0-1.081-0.487-1.081-1.064
		c0-0.605,0.48-1.096,1.081-1.096C163.449,85.604,163.929,86.095,163.929,86.7z"/>
	<path fill="#68C8C7" d="M163.929,86.7c0,0.577-0.48,1.064-1.081,1.064c-0.602,0-1.081-0.487-1.081-1.064
		c0-0.605,0.48-1.096,1.081-1.096C163.449,85.604,163.929,86.095,163.929,86.7z"/>
	<path fill="#68C8C7" d="M163.929,86.7c0,0.577-0.48,1.071-1.081,1.071c-0.602,0-1.081-0.494-1.081-1.071
		c0-0.601,0.48-1.092,1.081-1.092C163.449,85.608,163.929,86.099,163.929,86.7z"/>
	<circle fill="#68C8C7" cx="168.225" cy="89.943" r="1.083"/>
	<path fill="#68C8C7" d="M171.299,88.848c0,0.601-0.485,1.094-1.079,1.094c-0.603,0-1.088-0.493-1.088-1.094
		c0-0.601,0.485-1.09,1.088-1.09C170.814,87.758,171.299,88.247,171.299,88.848z"/>
	<path fill="#68C8C7" d="M174.406,89.704c0,0.586-0.487,1.073-1.089,1.073c-0.589,0-1.081-0.487-1.081-1.073
		c0-0.599,0.493-1.09,1.081-1.09C173.919,88.614,174.406,89.106,174.406,89.704z"/>
	<path fill="#68C8C7" d="M175.926,87.277c0,0.584-0.476,1.071-1.08,1.071c-0.603,0-1.083-0.487-1.083-1.071
		c0-0.601,0.481-1.092,1.083-1.092C175.449,86.185,175.926,86.677,175.926,87.277z"/>
	<path fill="#68C8C7" d="M175.926,87.277c0,0.584-0.476,1.073-1.08,1.073c-0.603,0-1.083-0.489-1.083-1.073
		c0-0.601,0.481-1.09,1.083-1.09C175.449,86.187,175.926,86.677,175.926,87.277z"/>
	<path fill="#68C8C7" d="M175.926,87.277c0,0.586-0.476,1.077-1.08,1.077c-0.603,0-1.083-0.492-1.083-1.077
		c0-0.599,0.481-1.086,1.083-1.086C175.449,86.192,175.926,86.679,175.926,87.277z"/>
	<path fill="#68C8C7" d="M175.926,87.277c0,0.586-0.476,1.079-1.08,1.079c-0.603,0-1.083-0.493-1.083-1.079
		c0-0.597,0.481-1.086,1.083-1.086C175.449,86.192,175.926,86.681,175.926,87.277z"/>
	<path fill="#68C8C7" d="M179.095,87.972c0,0.599-0.488,1.088-1.09,1.088c-0.592,0-1.082-0.489-1.082-1.088
		c0-0.588,0.49-1.077,1.082-1.077C178.607,86.895,179.095,87.384,179.095,87.972z"/>
	<path fill="#68C8C7" d="M182.288,87.509c0,0.588-0.485,1.075-1.088,1.075c-0.597,0-1.081-0.487-1.081-1.075
		c0-0.599,0.485-1.09,1.081-1.09C181.803,86.419,182.288,86.91,182.288,87.509z"/>
	<path fill="#68C8C7" d="M179.797,84.743c0,0.601-0.486,1.09-1.089,1.09c-0.591,0-1.08-0.489-1.08-1.09
		c0-0.592,0.488-1.073,1.08-1.073C179.311,83.67,179.797,84.151,179.797,84.743z"/>
	<path fill="#68C8C7" d="M172.954,85.209c0,0.605-0.488,1.094-1.09,1.094c-0.586,0-1.075-0.489-1.075-1.094
		c0-0.594,0.489-1.069,1.075-1.069C172.466,84.14,172.954,84.614,172.954,85.209z"/>
	<path fill="#68C8C7" d="M176.288,82.312c0,0.603-0.488,1.092-1.08,1.092c-0.604,0-1.089-0.489-1.089-1.092
		c0-0.597,0.485-1.071,1.089-1.071C175.8,81.241,176.288,81.716,176.288,82.312z"/>
	<ellipse fill="#68C8C7" cx="176.923" cy="78.175" rx="1.081" ry="1.091"/>
	<ellipse fill="#68C8C7" cx="172.112" cy="76.795" rx="1.079" ry="1.096"/>
	<path fill="#68C8C7" d="M182.288,81.035c0,0.603-0.485,1.092-1.088,1.092c-0.597,0-1.083-0.489-1.083-1.092
		c0-0.592,0.487-1.071,1.083-1.071C181.803,79.965,182.288,80.443,182.288,81.035z"/>
	<path fill="#68C8C7" d="M183.179,85.209c0,0.605-0.487,1.094-1.081,1.094c-0.602,0-1.085-0.489-1.085-1.094
		c0-0.594,0.483-1.069,1.085-1.069C182.692,84.14,183.179,84.614,183.179,85.209z"/>
	<path fill="#68C8C7" d="M186.34,84.454c0,0.607-0.489,1.088-1.092,1.088c-0.591,0-1.08-0.481-1.08-1.088
		c0-0.601,0.489-1.09,1.08-1.09C185.851,83.364,186.34,83.853,186.34,84.454z"/>
	<path fill="#68C8C7" d="M188.927,82.642c0,0.582-0.49,1.073-1.08,1.073c-0.604,0-1.093-0.491-1.093-1.073
		c0-0.603,0.489-1.094,1.093-1.094C188.436,81.548,188.927,82.039,188.927,82.642z"/>
	<path fill="#68C8C7" d="M186.116,81.469c0,0.597-0.477,1.071-1.081,1.071c-0.604,0-1.081-0.474-1.081-1.071
		c0-0.599,0.477-1.094,1.081-1.094C185.639,80.374,186.116,80.87,186.116,81.469z"/>
	<path fill="#68C8C7" d="M189.295,80.443c0,0.577-0.487,1.069-1.09,1.069c-0.59,0-1.081-0.491-1.081-1.069
		c0-0.605,0.492-1.097,1.081-1.097C188.808,79.346,189.295,79.838,189.295,80.443z"/>
	<path fill="#68C8C7" d="M187.76,77.199c0,0.599-0.487,1.088-1.08,1.088c-0.602,0-1.09-0.489-1.09-1.088
		c0-0.579,0.488-1.075,1.09-1.075C187.272,76.124,187.76,76.619,187.76,77.199z"/>
	<path fill="#68C8C7" d="M191.829,78.445c0,0.607-0.489,1.075-1.082,1.075c-0.601,0-1.091-0.468-1.091-1.075
		c0-0.599,0.49-1.088,1.091-1.088C191.34,77.358,191.829,77.847,191.829,78.445z"/>
	<path fill="#68C8C7" d="M191.041,75.894c0,0.609-0.478,1.073-1.079,1.073c-0.604,0-1.082-0.463-1.082-1.073
		c0-0.605,0.478-1.09,1.082-1.09C190.563,74.804,191.041,75.289,191.041,75.894z"/>
	<path fill="#68C8C7" d="M193.435,73.62c0,0.603-0.487,1.09-1.081,1.09c-0.603,0-1.088-0.487-1.088-1.09
		c0-0.592,0.485-1.071,1.088-1.071C192.948,72.549,193.435,73.027,193.435,73.62z"/>
	<path fill="#68C8C7" d="M194.841,70.804c0,0.601-0.491,1.073-1.082,1.073c-0.603,0-1.093-0.472-1.093-1.073
		c0-0.599,0.49-1.088,1.093-1.088C194.35,69.716,194.841,70.206,194.841,70.804z"/>
	<path fill="#68C8C7" d="M191.266,71.178c0,0.599-0.486,1.09-1.089,1.09c-0.592,0-1.078-0.492-1.078-1.09
		c0-0.584,0.486-1.071,1.078-1.071C190.78,70.107,191.266,70.594,191.266,71.178z"/>
	<path fill="#68C8C7" d="M187.602,72.647c0,0.601-0.49,1.075-1.088,1.075c-0.594,0-1.085-0.474-1.085-1.075
		c0-0.603,0.49-1.092,1.085-1.092C187.112,71.555,187.602,72.045,187.602,72.647z"/>
	<path fill="#68C8C7" d="M193.652,68.727c0,0.592-0.479,1.073-1.082,1.073c-0.602,0-1.081-0.481-1.081-1.073
		c0-0.599,0.479-1.09,1.081-1.09C193.172,67.637,193.652,68.129,193.652,68.727z"/>
	<path fill="#68C8C7" d="M194.918,65.719c0,0.605-0.491,1.096-1.093,1.096c-0.589,0-1.08-0.491-1.08-1.096
		c0-0.571,0.492-1.071,1.08-1.071C194.426,64.648,194.918,65.148,194.918,65.719z"/>
	<ellipse fill="#68C8C7" cx="188.927" cy="66.814" rx="1.081" ry="1.094"/>
	<path fill="#68C8C7" d="M192.35,64.086c0,0.599-0.487,1.071-1.085,1.071c-0.599,0-1.089-0.472-1.089-1.071
		c0-0.603,0.49-1.09,1.089-1.09C191.863,62.996,192.35,63.483,192.35,64.086z"/>
	<path fill="#68C8C7" d="M194.992,62.599c0,0.571-0.481,1.064-1.08,1.064c-0.602,0-1.081-0.494-1.081-1.064
		c0-0.61,0.48-1.101,1.081-1.101C194.511,61.498,194.992,61.989,194.992,62.599z"/>
	<path fill="#68C8C7" d="M193.433,60.882c0,0.603-0.485,1.092-1.083,1.092c-0.602,0-1.085-0.489-1.085-1.092
		c0-0.609,0.483-1.073,1.085-1.073C192.948,59.809,193.433,60.273,193.433,60.882z"/>
	<path fill="#68C8C7" d="M189.962,60.157c0,0.595-0.49,1.081-1.082,1.081c-0.603,0-1.089-0.487-1.089-1.081
		c0-0.592,0.486-1.081,1.089-1.081C189.472,59.076,189.962,59.565,189.962,60.157z"/>
	<path fill="#68C8C7" d="M193.433,57.724c0,0.579-0.485,1.071-1.083,1.071c-0.602,0-1.085-0.491-1.085-1.071
		c0-0.605,0.483-1.094,1.085-1.094C192.948,56.629,193.433,57.119,193.433,57.724z"/>
	<path fill="#68C8C7" d="M191.041,56.707c0,0.601-0.478,1.092-1.079,1.092c-0.604,0-1.082-0.491-1.082-1.092
		c0-0.605,0.478-1.073,1.082-1.073C190.563,55.634,191.041,56.101,191.041,56.707z"/>
	<ellipse fill="#68C8C7" cx="185.292" cy="57.442" rx="1.086" ry="1.093"/>
	<path fill="#68C8C7" d="M187.602,53.525c0,0.603-0.49,1.071-1.088,1.071c-0.594,0-1.088-0.468-1.088-1.071
		c0-0.601,0.493-1.092,1.088-1.092C187.112,52.432,187.602,52.924,187.602,53.525z"/>
	<path fill="#68C8C7" d="M190.717,53.525c0,0.603-0.488,1.071-1.078,1.071c-0.604,0-1.094-0.468-1.094-1.071
		c0-0.601,0.49-1.092,1.094-1.092C190.229,52.432,190.717,52.924,190.717,53.525z"/>
	<path fill="#68C8C7" d="M183.422,51.795c0,0.597-0.488,1.062-1.08,1.062c-0.604,0-1.092-0.466-1.092-1.062
		c0-0.603,0.488-1.094,1.092-1.094C182.934,50.701,183.422,51.192,183.422,51.795z"/>
	<path fill="#68C8C7" d="M178.923,51.641c0,0.605-0.49,1.094-1.094,1.094c-0.591,0-1.078-0.489-1.078-1.094
		c0-0.603,0.487-1.092,1.078-1.092C178.433,50.548,178.923,51.038,178.923,51.641z"/>
	<path fill="#68C8C7" d="M174.854,53.437c0,0.605-0.488,1.092-1.083,1.092c-0.6,0-1.09-0.487-1.09-1.092
		c0-0.582,0.49-1.069,1.09-1.069C174.366,52.368,174.854,52.855,174.854,53.437z"/>
	<path fill="#68C8C7" d="M171.794,58.134c0,0.605-0.487,1.092-1.088,1.092c-0.592,0-1.081-0.487-1.081-1.092
		c0-0.601,0.489-1.092,1.081-1.092C171.307,57.041,171.794,57.533,171.794,58.134z"/>
	<path fill="#68C8C7" d="M169.245,62.44c0,0.603-0.489,1.086-1.092,1.086c-0.592,0-1.082-0.483-1.082-1.086
		c0-0.603,0.49-1.092,1.082-1.092C168.756,61.348,169.245,61.837,169.245,62.44z"/>
	<path fill="#68C8C7" d="M167.394,68.523c0,0.603-0.478,1.092-1.08,1.092c-0.597,0-1.082-0.489-1.082-1.092
		c0-0.594,0.485-1.071,1.082-1.071C166.916,67.453,167.394,67.929,167.394,68.523z"/>
	<path fill="#68C8C7" d="M170.324,72.894c0,0.597-0.488,1.071-1.079,1.071c-0.602,0-1.092-0.474-1.092-1.071
		c0-0.605,0.49-1.092,1.092-1.092C169.836,71.802,170.324,72.289,170.324,72.894z"/>
	<path fill="#68C8C7" d="M165.231,73.111c0,0.611-0.489,1.075-1.081,1.075c-0.601,0-1.092-0.463-1.092-1.075
		c0-0.601,0.491-1.092,1.092-1.092C164.742,72.019,165.231,72.51,165.231,73.111z"/>
	<path fill="#68C8C7" d="M159.862,74.302c0,0.584-0.476,1.071-1.078,1.071c-0.598,0-1.083-0.487-1.083-1.071
		c0-0.603,0.485-1.092,1.083-1.092C159.386,73.21,159.862,73.699,159.862,74.302z"/>
	<path fill="#68C8C7" d="M159.976,69.3c0,0.599-0.489,1.075-1.091,1.075c-0.593,0-1.081-0.476-1.081-1.075
		c0-0.599,0.488-1.09,1.081-1.09C159.487,68.21,159.976,68.701,159.976,69.3z"/>
	<path fill="#68C8C7" d="M155.634,72.765c0,0.61-0.484,1.073-1.087,1.073c-0.593,0-1.08-0.463-1.08-1.073
		c0-0.605,0.486-1.09,1.08-1.09C155.15,71.675,155.634,72.16,155.634,72.765z"/>
	<path fill="#68C8C7" d="M163.354,65.517c0,0.599-0.479,1.088-1.081,1.088c-0.602,0-1.08-0.489-1.08-1.088
		c0-0.601,0.479-1.075,1.08-1.075C162.875,64.442,163.354,64.916,163.354,65.517z"/>
	<path fill="#68C8C7" d="M164.15,60.406c0,0.605-0.487,1.092-1.092,1.092c-0.591,0-1.08-0.487-1.08-1.092
		c0-0.597,0.489-1.071,1.08-1.071C163.663,59.335,164.15,59.809,164.15,60.406z"/>
	<path fill="#68C8C7" d="M159.55,62.256c0,0.605-0.489,1.096-1.08,1.096c-0.604,0-1.092-0.491-1.092-1.096
		c0-0.592,0.488-1.069,1.092-1.069C159.061,61.187,159.55,61.663,159.55,62.256z"/>
	<path fill="#68C8C7" d="M153.864,62.886c0,0.599-0.489,1.09-1.081,1.09c-0.604,0-1.088-0.491-1.088-1.09
		c0-0.605,0.484-1.092,1.088-1.092C153.375,61.794,153.864,62.281,153.864,62.886z"/>
	<ellipse fill="#68C8C7" cx="155.152" cy="66.814" rx="1.081" ry="1.094"/>
	<path fill="#68C8C7" d="M152.5,69.498c0,0.603-0.489,1.096-1.095,1.096c-0.589,0-1.078-0.494-1.078-1.096
		c0-0.603,0.489-1.092,1.078-1.092C152.011,68.405,152.5,68.895,152.5,69.498z"/>
	<path fill="#68C8C7" d="M150.941,72.647c0,0.601-0.477,1.075-1.081,1.075c-0.599,0-1.08-0.474-1.08-1.075
		c0-0.603,0.482-1.092,1.08-1.092C150.464,71.555,150.941,72.045,150.941,72.647z"/>
	<path fill="#68C8C7" d="M148.649,71.289c0,0.596-0.488,1.086-1.083,1.086c-0.601,0-1.086-0.489-1.086-1.086
		c0-0.579,0.485-1.077,1.086-1.077C148.161,70.212,148.649,70.71,148.649,71.289z"/>
	<path fill="#68C8C7" d="M149.178,68.081c0,0.601-0.488,1.088-1.08,1.088c-0.604,0-1.093-0.487-1.093-1.088
		c0-0.605,0.489-1.079,1.093-1.079C148.689,67.002,149.178,67.476,149.178,68.081z"/>
	<path fill="#68C8C7" d="M147.956,66.208c0,0.603-0.49,1.092-1.08,1.092c-0.605,0-1.091-0.489-1.091-1.092
		c0-0.597,0.486-1.071,1.091-1.071C147.465,65.137,147.956,65.612,147.956,66.208z"/>
	<path fill="#68C8C7" d="M150.821,65.232c0,0.611-0.49,1.075-1.091,1.075c-0.591,0-1.084-0.464-1.084-1.075
		c0-0.603,0.492-1.092,1.084-1.092C150.331,64.139,150.821,64.629,150.821,65.232z"/>
	<path fill="#68C8C7" d="M148.647,63.155c0,0.603-0.486,1.071-1.08,1.071c-0.601,0-1.086-0.468-1.086-1.071
		c0-0.605,0.485-1.092,1.086-1.092C148.161,62.062,148.647,62.55,148.647,63.155z"/>
	<path fill="#68C8C7" d="M150.42,60.406c0,0.605-0.486,1.092-1.089,1.092c-0.591,0-1.081-0.487-1.081-1.092
		c0-0.597,0.49-1.071,1.081-1.071C149.934,59.335,150.42,59.809,150.42,60.406z"/>
	<path fill="#68C8C7" d="M149.516,58.134c0,0.605-0.486,1.092-1.081,1.092c-0.604,0-1.085-0.487-1.085-1.092
		c0-0.601,0.481-1.092,1.085-1.092C149.03,57.041,149.516,57.533,149.516,58.134z"/>
	<path fill="#68C8C7" d="M153.259,58.46c0,0.601-0.49,1.092-1.093,1.092c-0.589,0-1.08-0.492-1.08-1.092
		c0-0.603,0.491-1.084,1.08-1.084C152.769,57.376,153.259,57.857,153.259,58.46z"/>
	<path fill="#68C8C7" d="M157.89,58.134c0,0.605-0.489,1.092-1.092,1.092c-0.591,0-1.081-0.487-1.081-1.092
		c0-0.601,0.49-1.092,1.081-1.092C157.401,57.041,157.89,57.533,157.89,58.134z"/>
	<ellipse fill="#68C8C7" cx="150.419" cy="55.687" rx="1.086" ry="1.092"/>
	<ellipse fill="#68C8C7" cx="153.335" cy="53.954" rx="1.082" ry="1.095"/>
	<path fill="#68C8C7" d="M158.187,53.696c0,0.605-0.486,1.092-1.089,1.092c-0.594,0-1.083-0.487-1.083-1.092
		c0-0.607,0.488-1.071,1.083-1.071C157.701,52.625,158.187,53.089,158.187,53.696z"/>
	<path fill="#68C8C7" d="M153.954,51.276c0,0.603-0.486,1.092-1.089,1.092c-0.593,0-1.082-0.489-1.082-1.092
		c0-0.603,0.489-1.084,1.082-1.084C153.468,50.192,153.954,50.673,153.954,51.276z"/>
	<ellipse fill="#68C8C7" cx="155.717" cy="49.886" rx="1.081" ry="1.087"/>
	<ellipse fill="#68C8C7" cx="156.385" cy="47.595" rx="1.086" ry="1.091"/>
	<path fill="#68C8C7" d="M160.21,49.613c0,0.599-0.483,1.088-1.085,1.088c-0.591,0-1.082-0.489-1.082-1.088
		c0-0.586,0.491-1.075,1.082-1.075C159.727,48.538,160.21,49.027,160.21,49.613z"/>
	<path fill="#68C8C7" d="M164.014,51.093c0,0.603-0.49,1.069-1.08,1.069c-0.603,0-1.093-0.466-1.093-1.069
		c0-0.601,0.49-1.092,1.093-1.092C163.524,50.001,164.014,50.493,164.014,51.093z"/>
	<path fill="#68C8C7" d="M162.799,55.419c0,0.601-0.488,1.092-1.083,1.092c-0.603,0-1.09-0.492-1.09-1.092
		c0-0.592,0.487-1.071,1.09-1.071C162.311,54.349,162.799,54.827,162.799,55.419z"/>
	<path fill="#68C8C7" d="M167.753,55.16c0,0.594-0.48,1.071-1.08,1.071c-0.604,0-1.084-0.476-1.084-1.071
		c0-0.603,0.48-1.094,1.084-1.094C167.274,54.065,167.753,54.557,167.753,55.16z"/>
	<path fill="#68C8C7" d="M169.926,51.093c0,0.603-0.489,1.069-1.081,1.069c-0.603,0-1.091-0.466-1.091-1.069
		c0-0.601,0.488-1.092,1.091-1.092C169.437,50.001,169.926,50.493,169.926,51.093z"/>
	<path fill="#68C8C7" d="M166.966,47.722c0,0.601-0.489,1.079-1.08,1.079c-0.602,0-1.092-0.479-1.092-1.079
		c0-0.605,0.49-1.092,1.092-1.092C166.477,46.63,166.966,47.117,166.966,47.722z"/>
	<path fill="#68C8C7" d="M163.63,46.351c0,0.597-0.481,1.073-1.083,1.073c-0.599,0-1.079-0.476-1.079-1.073
		c0-0.599,0.481-1.092,1.079-1.092C163.15,45.259,163.63,45.753,163.63,46.351z"/>
	<path fill="#68C8C7" d="M160.353,46.351c0,0.597-0.49,1.073-1.082,1.073c-0.603,0-1.084-0.476-1.084-1.073
		c0-0.599,0.481-1.092,1.084-1.092C159.862,45.259,160.353,45.753,160.353,46.351z"/>
	<path fill="#68C8C7" d="M164.793,43.935c0,0.607-0.478,1.094-1.082,1.094c-0.604,0-1.08-0.487-1.08-1.094
		c0-0.577,0.476-1.066,1.08-1.066C164.315,42.869,164.793,43.358,164.793,43.935z"/>
	<path fill="#68C8C7" d="M168.047,44.167c0,0.605-0.477,1.092-1.081,1.092c-0.601,0-1.083-0.487-1.083-1.092
		c0-0.577,0.482-1.071,1.083-1.071C167.57,43.096,168.047,43.59,168.047,44.167z"/>
	<circle fill="#68C8C7" cx="168.747" cy="42.776" r="1.081"/>
	<path fill="#68C8C7" d="M171.005,45.557c0,0.579-0.483,1.073-1.079,1.073c-0.602,0-1.081-0.494-1.081-1.073
		c0-0.603,0.479-1.092,1.081-1.092C170.523,44.465,171.005,44.954,171.005,45.557z"/>
	<path fill="#68C8C7" d="M172.872,43.27c0,0.605-0.487,1.092-1.078,1.092c-0.6,0-1.088-0.487-1.088-1.092
		c0-0.607,0.488-1.071,1.088-1.071C172.385,42.199,172.872,42.663,172.872,43.27z"/>
	<path fill="#68C8C7" d="M173.58,48.437c0,0.596-0.489,1.071-1.084,1.071c-0.598,0-1.088-0.474-1.088-1.071
		c0-0.603,0.49-1.094,1.088-1.094C173.091,47.343,173.58,47.834,173.58,48.437z"/>
	<circle fill="#68C8C7" cx="174.663" cy="44.747" r="1.081"/>
	<ellipse fill="#68C8C7" cx="176.923" cy="43.86" rx="1.081" ry="1.086"/>
	<path fill="#68C8C7" d="M178.004,47.424c0,0.601-0.481,1.092-1.081,1.092c-0.601,0-1.08-0.491-1.08-1.092
		c0-0.592,0.479-1.073,1.08-1.073C177.523,46.351,178.004,46.832,178.004,47.424z"/>
	<path fill="#68C8C7" d="M180.631,45.557c0,0.579-0.487,1.073-1.079,1.073c-0.603,0-1.088-0.494-1.088-1.073
		c0-0.603,0.485-1.092,1.088-1.092C180.144,44.465,180.631,44.954,180.631,45.557z"/>
	<path fill="#68C8C7" d="M182.573,48.199c0,0.603-0.485,1.066-1.089,1.066c-0.591,0-1.08-0.463-1.08-1.066
		c0-0.601,0.489-1.09,1.08-1.09C182.088,47.109,182.573,47.598,182.573,48.199z"/>
	<path fill="#68C8C7" d="M185.293,47.424c0,0.603-0.488,1.092-1.088,1.092c-0.593,0-1.083-0.489-1.083-1.092
		c0-0.592,0.489-1.073,1.083-1.073C184.805,46.351,185.293,46.832,185.293,47.424z"/>
	<circle fill="#68C8C7" cx="185.854" cy="50.194" r="1.081"/>
	<path fill="#68C8C7" d="M189.211,50.701c0,0.603-0.49,1.094-1.081,1.094c-0.601,0-1.091-0.491-1.091-1.094
		c0-0.603,0.49-1.088,1.091-1.088C188.721,49.613,189.211,50.098,189.211,50.701z"/>
	<path fill="#68C8C7" d="M187.123,63.352c0,0.601-0.491,1.09-1.082,1.09c-0.601,0-1.088-0.489-1.088-1.09
		c0-0.605,0.487-1.096,1.088-1.096C186.632,62.256,187.123,62.747,187.123,63.352z"/>
	<path fill="#68C8C7" d="M182.968,61.498c0,0.605-0.488,1.101-1.09,1.101c-0.593,0-1.082-0.496-1.082-1.101
		c0-0.601,0.489-1.092,1.082-1.092C182.48,60.406,182.968,60.897,182.968,61.498z"/>
	<path fill="#68C8C7" d="M180.796,65.852c0,0.605-0.482,1.092-1.083,1.092c-0.602,0-1.083-0.487-1.083-1.092
		c0-0.596,0.481-1.071,1.083-1.071C180.314,64.781,180.796,65.255,180.796,65.852z"/>
	<path fill="#68C8C7" d="M176.111,67.798c0,0.594-0.486,1.069-1.081,1.069c-0.603,0-1.087-0.474-1.087-1.069
		c0-0.601,0.484-1.092,1.087-1.092C175.625,66.706,176.111,67.197,176.111,67.798z"/>
	<path fill="#68C8C7" d="M176.922,62.599c0,0.571-0.486,1.064-1.08,1.064c-0.604,0-1.089-0.494-1.089-1.064
		c0-0.61,0.485-1.101,1.089-1.101C176.436,61.498,176.922,61.989,176.922,62.599z"/>
	<path fill="#68C8C7" d="M177.486,57.724c0,0.579-0.477,1.071-1.079,1.071c-0.604,0-1.083-0.491-1.083-1.071
		c0-0.605,0.479-1.094,1.083-1.094C177.008,56.629,177.486,57.119,177.486,57.724z"/>
	<path fill="#68C8C7" d="M181.976,56.512c0,0.603-0.489,1.092-1.083,1.092c-0.602,0-1.091-0.489-1.091-1.092
		s0.489-1.092,1.091-1.092C181.486,55.419,181.976,55.909,181.976,56.512z"/>
	<path fill="#68C8C7" d="M185.589,68.626c0,0.599-0.48,1.09-1.084,1.09c-0.595,0-1.083-0.491-1.083-1.09
		c0-0.59,0.488-1.075,1.083-1.075C185.109,67.551,185.589,68.036,185.589,68.626z"/>
	<ellipse fill="#68C8C7" cx="181.012" cy="72.268" rx="1.087" ry="1.09"/>
	<path fill="#68C8C7" d="M177.098,72.765c0,0.61-0.487,1.073-1.078,1.073c-0.605,0-1.09-0.463-1.09-1.073
		c0-0.605,0.485-1.09,1.09-1.09C176.611,71.675,177.098,72.16,177.098,72.765z"/>
	<path fill="#68C8C7" d="M183.228,76.632c0,0.603-0.481,1.092-1.081,1.092c-0.602,0-1.081-0.489-1.081-1.092
		c0-0.592,0.48-1.071,1.081-1.071C182.747,75.561,183.228,76.04,183.228,76.632z"/>
	<path fill="#68C8C7" d="M168.613,86.739c0,0.601-0.488,1.09-1.092,1.09c-0.59,0-1.079-0.489-1.079-1.09
		c0-0.605,0.489-1.084,1.079-1.084C168.125,85.655,168.613,86.134,168.613,86.739z"/>
	<path fill="#68C8C7" d="M162.397,83.469c0,0.603-0.492,1.094-1.081,1.094c-0.604,0-1.095-0.492-1.095-1.094
		c0-0.594,0.491-1.071,1.095-1.071C161.904,82.398,162.397,82.874,162.397,83.469z"/>
	<ellipse fill="#68C8C7" cx="165.733" cy="83.048" rx="1.082" ry="1.092"/>
	<path fill="#68C8C7" d="M170.706,80.789c0,0.581-0.477,1.069-1.081,1.069c-0.602,0-1.08-0.487-1.08-1.069
		c0-0.607,0.478-1.094,1.08-1.094C170.229,79.694,170.706,80.181,170.706,80.789z"/>
	<path fill="#909295" d="M223.53,100.311c-0.106-0.002-10.086-0.288-15.836,0.026c-7.1,0.378-25.417,10.098-26.199,10.501
		c-0.033,0.024-3.817,1.97-8.848-0.502c-0.07-0.03-6.775-2.678-11.724-4.043c-0.018-0.006-1.851-0.481-3.049-1.768
		c-0.028-0.028-0.046-0.056-0.079-0.079c-1.05-0.82-3.945-3.264-4.722-4.734c-0.052-0.096-0.134-0.176-0.227-0.249
		c-0.051-0.019-4.418-2.796-6.115-6.137c-0.019-0.024-0.034-0.058-0.062-0.094c-0.153-0.202-0.687-1.088-0.435-1.652
		c0.189-0.421,0.886-0.71,1.971-0.807c0.135-0.011,3.432-0.167,6.918,4.744c0.106,0.152,0.28,0.249,0.454,0.275
		c0.025,0.004,2.286,0.337,5.404,4.116c0.136,0.163,0.335,0.253,0.542,0.236c0.963-0.047,3.227-0.12,4.872,0.043
		c-1.549,1.459-1.301,3.122-1.292,3.176c0.878,4.047,7.254,4.483,9.984,4.483c0.677,0,1.13-0.032,1.216-0.039
		c4.911-0.277,8.064-1.738,12.047-3.575c0.661-0.298,1.354-0.616,2.078-0.951c3.48-1.549,5.042-3.605,5.107-3.693
		c0.211-0.275,0.152-0.693-0.133-0.904c-0.284-0.214-0.693-0.167-0.904,0.127c-0.018,0.022-1.446,1.884-4.605,3.298
		c-0.723,0.324-1.415,0.637-2.09,0.94c-3.858,1.787-6.905,3.195-11.584,3.463c-2.507,0.165-9.128-0.12-9.839-3.388
		c-0.016-0.088-0.271-2.298,3.586-3.313c0.038-0.015,3.922-1.339,8.344-0.715c0.214,0.032,0.431-0.039,0.571-0.208
		c0.014-0.013,1.12-1.187,3.301-1.901c0.115-0.043,0.223-0.097,0.296-0.208c0.088-0.094,2.046-2.392,2.914-3.907
		c2.45-4.261,4.375-7.63,17.927-7.63h14.793c0.361,0,0.652-0.281,0.652-0.64c0-0.363-0.291-0.663-0.652-0.663h-14.793
		c-14.306,0-16.508,3.841-19.059,8.296c-0.692,1.195-2.218,3.051-2.656,3.573c-1.812,0.624-2.958,1.536-3.428,1.965
		c-1.094-0.137-2.144-0.167-3.111-0.125c-0.713-0.463-3.281-1.89-6.957-1.285c-0.732-0.511-2.992-1.972-5.463-1.959
		c-0.868-0.552-4.741-2.925-7.734-3.272c-0.802-0.609-1.587-1.212-2.061-1.547c-0.729-0.916-1.565-1.725-2.471-2.189
		c-1.33-0.775-4.329-1.646-6.183,0.657c-0.044,0.051-1.027,1.508,0.722,3.397c-0.247,1.12,0.482,2.238,0.686,2.523
		c1.707,3.322,5.601,5.978,6.409,6.514c1.129,1.916,4.519,4.631,4.952,4.963c1.457,1.53,3.543,2.092,3.628,2.105
		c4.868,1.33,11.508,3.948,11.528,3.955c2.136,1.056,4.084,1.382,5.665,1.382c2.56,0,4.212-0.841,4.325-0.907
		c0.181-0.099,18.833-9.991,25.654-10.343c5.696-0.311,15.628-0.032,15.724-0.028c0.327,0.004,0.66-0.281,0.673-0.642
		C224.17,100.613,223.887,100.321,223.53,100.311z M162.477,95.712c0.064-0.002,0.129-0.002,0.192-0.002
		c2.421,0,4.858,1.843,4.889,1.865c0.141,0.112,0.332,0.142,0.516,0.127c1.781-0.343,3.282-0.125,4.387,0.208
		c-1.707,0.26-2.806,0.639-2.868,0.667c-0.624,0.167-1.157,0.352-1.62,0.562c-0.4-0.109-0.894-0.182-1.435-0.245
		c-0.524-0.303-2.444-1.416-3.821-1.641c-0.377-0.519-1.349-1.749-2.726-2.729c1.059,0.53,2.089,1.071,2.107,1.081
		C162.211,95.674,162.35,95.71,162.477,95.712z M157.743,93.393c-0.004-0.002-0.007-0.002-0.012-0.006
		C157.73,93.386,157.734,93.386,157.743,93.393z M157.021,94.468c0.061,0.067,0.146,0.109,0.235,0.124
		c2.654,0.747,4.53,3.598,4.552,3.633c0.115,0.176,0.307,0.292,0.512,0.292c0.28,0.009,0.655,0.116,1.052,0.268
		c-0.67,0.011-1.249,0.035-1.593,0.054c-2.764-3.255-4.953-4.075-5.739-4.268c-0.241-0.341-0.484-0.65-0.724-0.927
		c-0.068-0.146-0.209-0.457-0.435-0.873C156.01,93.655,156.999,94.461,157.021,94.468z M145.228,88.829L145.228,88.829
		c1.588-1.963,4.378-0.382,4.536-0.275c0.737,0.345,1.45,1.049,2.074,1.852c0.017,0.009,0.03,0.035,0.052,0.06
		c0.078,0.09,0.152,0.185,0.219,0.288c-2.227-1.391-3.904-1.275-4.008-1.275c-1.099,0.109-1.91,0.367-2.449,0.811
		C144.937,89.374,145.235,88.829,145.228,88.829z"/>
	<path fill="#010101" d="M195.856,41.272c0.258-1.12-0.475-2.238-0.674-2.523c-1.715-3.322-5.603-5.978-6.409-6.515
		c-1.129-1.916-4.52-4.63-4.952-4.963c-1.467-1.53-3.555-2.092-3.629-2.105c-4.866-1.33-11.516-3.948-11.526-3.955
		c-2.139-1.058-4.082-1.382-5.676-1.382c-2.551,0-4.21,0.839-4.319,0.908c-0.191,0.099-18.839,9.991-25.651,10.342
		c-5.698,0.313-15.63,0.032-15.735,0.028c-0.314-0.004-0.649,0.281-0.661,0.642c-0.012,0.358,0.268,0.65,0.63,0.661
		c0.098,0.002,10.087,0.288,15.836-0.026c7.097-0.378,25.419-10.098,26.193-10.501c0.039-0.024,3.824-1.97,8.856,0.502
		c0.067,0.03,6.774,2.678,11.716,4.041c0.016,0.009,1.854,0.483,3.056,1.768c0.017,0.028,0.046,0.058,0.073,0.082
		c1.046,0.82,3.939,3.264,4.727,4.734c0.053,0.096,0.136,0.176,0.227,0.247c0.041,0.021,4.418,2.798,6.11,6.139
		c0.015,0.024,0.04,0.058,0.059,0.094c0.162,0.202,0.693,1.088,0.445,1.652c-0.194,0.421-0.898,0.708-1.972,0.807
		c-0.146,0.011-3.438,0.17-6.929-4.742c-0.102-0.154-0.27-0.251-0.452-0.277c-0.018-0.004-2.279-0.337-5.403-4.116
		c-0.129-0.163-0.332-0.253-0.534-0.236c-0.972,0.047-3.232,0.12-4.87-0.043c1.537-1.459,1.291-3.122,1.291-3.176
		c-0.878-4.049-7.254-4.482-9.982-4.482c-0.68,0-1.141,0.032-1.217,0.039c-4.914,0.277-8.066,1.738-12.05,3.575
		c-0.671,0.298-1.358,0.616-2.077,0.951c-3.482,1.547-5.042,3.605-5.108,3.693c-0.219,0.275-0.161,0.691,0.129,0.904
		c0.287,0.214,0.693,0.167,0.91-0.127c0.015-0.024,1.445-1.884,4.595-3.298c0.733-0.324,1.425-0.637,2.086-0.94
		c3.871-1.787,6.918-3.195,11.588-3.463c2.507-0.165,9.138,0.12,9.849,3.388c0.005,0.088,0.273,2.294-3.589,3.313
		c-0.036,0.015-3.923,1.339-8.347,0.715c-0.214-0.032-0.426,0.041-0.576,0.208c0,0-1.111,1.187-3.301,1.899
		c-0.115,0.045-0.216,0.099-0.291,0.21c-0.083,0.094-2.041,2.393-2.91,3.908c-2.449,4.261-4.385,7.63-17.929,7.63h-14.796
		c-0.355,0-0.646,0.279-0.646,0.642c0,0.361,0.291,0.661,0.646,0.661h14.796c14.297,0,16.501-3.841,19.051-8.296
		c0.693-1.197,2.229-3.051,2.652-3.573c1.825-0.626,2.961-1.536,3.44-1.965c1.088,0.137,2.138,0.167,3.109,0.122
		c0.717,0.466,3.289,1.892,6.952,1.287c0.742,0.511,3.004,1.972,5.472,1.959c0.87,0.552,4.732,2.925,7.737,3.27
		c0.801,0.611,1.575,1.217,2.06,1.551c0.724,0.914,1.565,1.723,2.462,2.186c1.331,0.777,4.339,1.646,6.19-0.657
		C196.633,44.618,197.617,43.161,195.856,41.272z M178.297,37.009c-0.064,0.002-0.122,0.004-0.18,0.004
		c-2.431,0-4.869-1.845-4.888-1.867c-0.152-0.111-0.328-0.144-0.517-0.127c-1.781,0.343-3.287,0.122-4.39-0.206
		c1.703-0.262,2.817-0.642,2.876-0.67c0.61-0.172,1.145-0.35,1.603-0.562c0.402,0.109,0.904,0.18,1.438,0.245
		c0.523,0.303,2.458,1.416,3.82,1.642c0.384,0.519,1.344,1.747,2.723,2.725c-1.047-0.528-2.086-1.067-2.095-1.077
		C178.576,37.047,178.434,37.009,178.297,37.009z M183.037,39.326c0,0,0.003,0.004,0.005,0.006S183.04,39.332,183.037,39.326z
		 M183.761,38.251c-0.072-0.064-0.145-0.109-0.235-0.122c-2.653-0.747-4.539-3.598-4.55-3.633c-0.115-0.176-0.307-0.292-0.512-0.292
		c-0.29-0.009-0.653-0.116-1.047-0.268c0.663-0.011,1.236-0.034,1.588-0.056c2.757,3.257,4.955,4.077,5.739,4.268
		c0.244,0.343,0.485,0.652,0.728,0.927c0.061,0.15,0.208,0.457,0.419,0.876C184.775,39.069,183.784,38.26,183.761,38.251z
		 M195.554,43.892L195.554,43.892c-1.586,1.963-4.379,0.38-4.534,0.275c-0.737-0.345-1.45-1.049-2.073-1.854
		c-0.017-0.004-0.038-0.026-0.055-0.049c-0.072-0.094-0.15-0.191-0.229-0.296c2.239,1.39,3.916,1.272,4.02,1.272
		c1.088-0.107,1.901-0.365,2.448-0.809C195.845,43.345,195.552,43.892,195.554,43.892z"/>
</g>
</svg>
