<?xml version="1.0" encoding="utf-8"?>
<!-- Generator: Adobe Illustrator 21.0.0, SVG Export Plug-In . SVG Version: 6.00 Build 0)  -->
<!DOCTYPE svg PUBLIC "-//W3C//DTD SVG 1.1//EN" "http://www.w3.org/Graphics/SVG/1.1/DTD/svg11.dtd">
<svg version="1.1" id="Legend" xmlns="http://www.w3.org/2000/svg" xmlns:xlink="http://www.w3.org/1999/xlink" x="0px" y="0px"
	 viewBox="0 0 200 560" enable-background="new 0 0 200 560" xml:space="preserve">
<text transform="matrix(1 0 0 1 32.7872 304.9434)" fill="#499191" font-family="'MyriadPro-Light'" font-size="16.5053px">Director</text>
<text transform="matrix(1 0 0 1 32.7872 286.5063)" fill="#231F20" stroke="#231F20" stroke-width="0.2672" stroke-miterlimit="10" font-family="'MyriadPro-Light'" font-size="16.5053px">Kelly Clark</text>
<text transform="matrix(1 0 0 1 35.1211 351.4526)" fill="#231F20" stroke="#231F20" stroke-width="0.2672" stroke-miterlimit="10" font-family="'MyriadPro-Light'" font-size="12.8499px">61 Grosvenor Street, London</text>
<text transform="matrix(1 0 0 1 34.7398 327.1665)" fill="#231F20" stroke="#231F20" stroke-width="0.2672" stroke-miterlimit="10" font-family="'MyriadPro-Light'" font-size="14.9011px">kelly@tellusmater.org.uk</text>
<text transform="matrix(1 0 0 1 35.1211 378.6646)" fill="#231F20" stroke="#231F20" stroke-width="0.2672" stroke-miterlimit="10" font-family="'MyriadPro-Light'" font-size="14.9011px">tellusmater.org.uk</text>
<line fill="none" stroke="#231F20" stroke-width="0.717" stroke-miterlimit="10" x1="25.216" y1="277.181" x2="25.216" y2="355.478"/>
<g>
	<path fill="#010101" d="M24.46,220.217H8.275v5.832h1.7l0.217-4.195h5.03v15.867c0,0.255-0.317,0.614-0.613,0.614h-1.758v1.581
		h7.058v-1.581h-1.785c-0.291,0-0.586-0.355-0.586-0.614v-15.867h5.006l0.245,4.195h1.67V220.217z"/>
	<path fill="#010101" d="M30.496,224.922c-4.15,0-6.937,3.068-6.937,7.626c0,2.274,0.647,4.161,1.87,5.463
		c1.272,1.331,3.095,2.011,5.419,2.011c2.883,0,4.629-0.885,5.591-1.636l0.118-0.103v-1.554h-1.386l-0.093,0.108
		c-0.597,0.713-1.796,1.549-4.119,1.549c-3.286,0-5.066-1.94-5.16-5.61h10.775l0.305-0.008l0.008-0.301
		c0-0.016,0.002-0.033,0.003-0.071c0.007-0.101,0.024-0.277,0.024-0.507C36.913,227.401,34.635,224.922,30.496,224.922z
		 M30.496,226.54c2.632,0,4.044,1.557,4.2,4.634H25.88C26.23,228.26,27.936,226.54,30.496,226.54z"/>
	<path fill="#010101" d="M42.472,237.86v-16.84c0-0.668-0.361-0.803-0.667-0.803h-3.773v1.603h1.759
		c0.235,0,0.503,0.301,0.503,0.508v15.532c0,0.224-0.264,0.475-0.503,0.475h-1.651v1.581h6.512v-1.581h-1.674
		C42.738,238.336,42.472,238.084,42.472,237.86z"/>
	<path fill="#010101" d="M50.58,237.86v-16.84c0-0.668-0.361-0.803-0.667-0.803H46.14v1.603H47.9c0.235,0,0.504,0.301,0.504,0.508
		v15.532c0,0.224-0.265,0.475-0.504,0.475h-1.651v1.581h6.514v-1.581h-1.679C50.846,238.336,50.58,238.084,50.58,237.86z"/>
	<path fill="#010101" d="M67.288,237.828v-12.765h-4.44v1.636h2.263v9.559c-1.25,0.944-3.108,2.023-5.057,2.023
		c-1.523,0-2.468-0.407-2.468-2.461v-10.757h-4.274v1.636h1.591c0.2,0,0.479,0.262,0.479,0.503v9.056c0,2.534,1.344,3.82,3.989,3.82
		c2.44,0,4.405-1.105,5.74-2.192v0.827c0.014,0.453,0.044,1.205,0.775,1.205h3.559v-1.581h-1.652
		C67.56,238.336,67.288,238.074,67.288,237.828z"/>
	<path fill="#010101" d="M77.017,231.308c-2.719-0.458-3.42-0.947-3.42-2.384c0-1.523,1.128-2.364,3.173-2.364
		c1.392,0,2.01,0.158,2.504,0.377c0.34,0.176,0.513,0.427,0.648,1.533l0.034,0.271h1.543v-3.122l-0.209-0.071
		c-1.144-0.412-2.658-0.626-4.489-0.626c-3.336,0-5.247,1.531-5.247,4.193c0,3.026,2.212,3.649,4.677,4.071
		c2.742,0.456,3.578,1.026,3.578,2.446c0,1.878-1.162,2.787-3.556,2.787c-1.297,0-2.072-0.135-2.863-0.485
		c-0.274-0.128-0.444-0.683-0.532-1.709l-0.024-0.281h-1.579v3.273l0.2,0.079c0.875,0.336,2.427,0.726,4.826,0.726
		c4.696,0,5.684-2.495,5.684-4.578C81.964,232.678,80.069,231.809,77.017,231.308z"/>
	<path fill="#909295" d="M124.769,236.167l-5.914-15.973h-5.52v1.603h1.568c0.291,0,0.617,0.383,0.617,0.642v15.258
		c0,0.252-0.318,0.626-0.617,0.626h-1.568v1.569h6.599v-1.569h-2.482v-15.752l6.26,17.122l0.077,0.199h1.555l6.389-17.402v15.834
		h-2.482v1.569h6.975v-1.569h-1.594c-0.294,0-0.61-0.375-0.61-0.626V222.44c0-0.26,0.321-0.642,0.61-0.642h1.594v-1.603h-5.517
		L124.769,236.167z"/>
	<path fill="#909295" d="M149.62,238.338c-0.508,0-0.805-0.151-0.805-0.953v-8.208c0-2.878-1.643-4.265-5.027-4.265
		c-2.161,0-4.002,0.412-5.469,1.236l-0.158,0.089v1.775h1.222l0.09-0.085c0.936-0.831,2.33-1.274,4.042-1.274
		c2.197,0,3.095,0.772,3.095,2.651v2.217c-1.023-0.233-2.111-0.341-3.394-0.341c-3.802,0-5.981,1.612-5.981,4.424
		c0,2.782,1.788,4.424,4.781,4.424c2.001,0,3.355-0.529,4.618-1.862c0.144,1.188,1.01,1.848,2.469,1.848
		c0.639,0,1.174-0.188,1.363-0.289l0.176-0.087V238.2l-0.365,0.061C150.148,238.285,149.777,238.338,149.62,238.338z
		 M142.481,238.394c-1.41,0-3.096-0.5-3.096-2.874c0-2.459,2.572-2.822,4.105-2.822c1.018,0,2.039,0.112,3.12,0.354v3.207
		C145.713,237.385,144.581,238.394,142.481,238.394z"/>
	<path fill="#909295" d="M157.975,238.143c-0.137,0.09-0.577,0.23-1.166,0.23c-1.082,0-1.595-0.299-1.595-2.003v-9.695h3.706v-1.628
		h-3.706v-3.931h-2.21v3.931h-2.041v1.628h2.041v9.834c0,2.372,1.239,3.52,3.777,3.52c0.865,0,1.742-0.169,2.227-0.336l0.211-0.079
		v-1.518h-1.167L157.975,238.143z"/>
	<path fill="#909295" d="M166.935,224.911c-4.147,0-6.934,3.06-6.934,7.611c0,2.286,0.644,4.174,1.867,5.458
		c1.273,1.345,3.096,2.034,5.422,2.034c2.883,0,4.631-0.905,5.589-1.656l0.119-0.097v-1.557h-1.385l-0.093,0.117
		c-0.596,0.705-1.798,1.551-4.122,1.551c-3.286,0-5.066-1.94-5.16-5.621h10.773h0.304l0.007-0.31c0,0,0.005-0.034,0.006-0.066
		c0.009-0.107,0.023-0.282,0.023-0.501C173.353,227.378,171.073,224.911,166.935,224.911z M166.935,226.516
		c2.631,0,4.044,1.556,4.197,4.633h-8.81C162.669,228.24,164.377,226.516,166.935,226.516z"/>
	<path fill="#909295" d="M184.011,225.058c-0.136-0.043-0.419-0.093-0.78-0.093c-1.994,0-3.416,1.171-4.403,2.311v-0.937
		c0-0.416,0-1.292-0.801-1.292h-3.53v1.628h1.648c0.238,0,0.478,0.3,0.478,0.501v10.658c0,0.24-0.241,0.49-0.478,0.49h-1.51v1.569
		h6.81v-1.569h-2.617v-9.117c1.411-1.611,2.829-2.363,4.457-2.363c0.232,0,0.601,0.019,0.606,0.019l0.336,0.028v-1.76
		L184.011,225.058z"/>
	<path fill="#909295" d="M187.333,234.727c-1.566,0-2.66,1.104-2.66,2.69c0,1.584,1.093,2.686,2.66,2.686
		c1.57,0,2.667-1.103,2.667-2.69C190,235.83,188.903,234.727,187.333,234.727z M187.333,239.652c-1.088,0-2.184-0.691-2.184-2.235
		c0-1.548,1.096-2.24,2.184-2.24c1.33,0,2.191,0.879,2.191,2.236C189.525,238.961,188.423,239.652,187.333,239.652z"/>
	<path fill="#909295" d="M188.104,238.12c-0.136,0.204-0.371,0.311-0.7,0.311c-0.712,0-0.861-0.559-0.861-1.033
		c0-0.639,0.326-1.006,0.899-1.006c0.252,0,0.404,0.084,0.504,0.159l0.056,0.545h0.492v-1.193h-0.52l-0.008,0.086
		c-0.11-0.043-0.295-0.106-0.575-0.106c-0.904,0-1.491,0.598-1.491,1.525c0,0.946,0.57,1.536,1.485,1.536
		c0.489,0,0.85-0.132,1.133-0.421l0.041-0.036v-0.429h-0.409L188.104,238.12z"/>
	<path fill="#68C8C7" d="M87.477,239.338c0,0.325-0.263,0.588-0.587,0.588c-0.321,0-0.585-0.263-0.585-0.588
		s0.264-0.575,0.585-0.575C87.214,238.762,87.477,239.013,87.477,239.338z"/>
	<path fill="#68C8C7" d="M88.711,239.702c0,0.321-0.264,0.587-0.584,0.587c-0.326,0-0.588-0.266-0.588-0.587
		c0-0.313,0.261-0.581,0.588-0.581C88.447,239.121,88.711,239.389,88.711,239.702z"/>
	<ellipse fill="#68C8C7" cx="88.711" cy="241.367" rx="0.584" ry="0.588"/>
	<path fill="#68C8C7" d="M90.914,241.095c0,0.326-0.265,0.591-0.589,0.591c-0.32,0-0.585-0.265-0.585-0.591
		c0-0.326,0.265-0.58,0.585-0.58C90.649,240.516,90.914,240.769,90.914,241.095z"/>
	<path fill="#68C8C7" d="M90.444,242.652c0,0.327-0.265,0.59-0.588,0.59c-0.322,0-0.586-0.263-0.586-0.59
		c0-0.322,0.264-0.579,0.586-0.579C90.179,242.074,90.444,242.33,90.444,242.652z"/>
	<path fill="#68C8C7" d="M91.634,242.769c0,0.315-0.265,0.579-0.587,0.579c-0.324,0-0.587-0.263-0.587-0.579
		c0-0.323,0.264-0.591,0.587-0.591C91.369,242.178,91.634,242.446,91.634,242.769z"/>
	<ellipse fill="#68C8C7" cx="92.236" cy="244.01" rx="0.588" ry="0.585"/>
	<circle fill="#68C8C7" cx="94.856" cy="244.687" r="0.586"/>
	<circle fill="#68C8C7" cx="95.014" cy="238.689" r="0.585"/>
	<path fill="#68C8C7" d="M93.254,239.455c0,0.325-0.264,0.588-0.584,0.588c-0.325,0-0.593-0.263-0.593-0.588
		c0-0.316,0.268-0.58,0.593-0.58C92.99,238.875,93.254,239.138,93.254,239.455z"/>
	<path fill="#68C8C7" d="M90.84,239.144c0,0.326-0.264,0.591-0.585,0.591c-0.325,0-0.587-0.265-0.587-0.591
		c0-0.319,0.263-0.579,0.587-0.579C90.576,238.565,90.84,238.825,90.84,239.144z"/>
	<ellipse fill="#68C8C7" cx="88.175" cy="237.858" rx="0.585" ry="0.591"/>
	<path fill="#68C8C7" d="M86.946,237.684c0,0.327-0.259,0.577-0.584,0.577s-0.584-0.25-0.584-0.577c0-0.328,0.259-0.591,0.584-0.591
		S86.946,237.356,86.946,237.684z"/>
	<path fill="#68C8C7" d="M94.151,243.514c0,0.319-0.259,0.579-0.584,0.579c-0.325,0-0.584-0.26-0.584-0.579
		c0-0.327,0.258-0.591,0.584-0.591C93.892,242.922,94.151,243.187,94.151,243.514z"/>
	<path fill="#68C8C7" d="M94.151,243.515c0,0.318-0.259,0.579-0.584,0.579c-0.325,0-0.584-0.261-0.584-0.579
		c0-0.327,0.258-0.592,0.584-0.592C93.892,242.922,94.151,243.188,94.151,243.515z"/>
	<path fill="#68C8C7" d="M94.151,243.514c0,0.319-0.259,0.579-0.584,0.579c-0.325,0-0.584-0.26-0.584-0.579
		c0-0.327,0.258-0.591,0.584-0.591C93.892,242.922,94.151,243.187,94.151,243.514z"/>
	<path fill="#68C8C7" d="M94.151,243.515c0,0.318-0.259,0.579-0.584,0.579c-0.325,0-0.584-0.261-0.584-0.579
		c0-0.327,0.258-0.592,0.584-0.592C93.892,242.922,94.151,243.188,94.151,243.515z"/>
	<path fill="#68C8C7" d="M94.151,243.515c0,0.318-0.259,0.579-0.584,0.579c-0.325,0-0.584-0.261-0.584-0.579
		c0-0.325,0.258-0.59,0.584-0.59C93.892,242.925,94.151,243.19,94.151,243.515z"/>
	<path fill="#68C8C7" d="M94.151,243.521c0,0.312-0.259,0.573-0.584,0.573c-0.325,0-0.584-0.261-0.584-0.573
		c0-0.33,0.258-0.594,0.584-0.594C93.892,242.927,94.151,243.19,94.151,243.521z"/>
	<path fill="#68C8C7" d="M94.15,243.521c0,0.312-0.259,0.573-0.585,0.573c-0.325,0-0.583-0.261-0.583-0.573
		c0-0.33,0.258-0.594,0.583-0.594C93.891,242.927,94.15,243.19,94.15,243.521z"/>
	<path fill="#68C8C7" d="M94.149,243.521c0,0.312-0.259,0.573-0.584,0.573c-0.325,0-0.584-0.261-0.584-0.573
		c0-0.33,0.259-0.594,0.584-0.594C93.89,242.927,94.149,243.19,94.149,243.521z"/>
	<path fill="#68C8C7" d="M94.149,243.521c0,0.312-0.259,0.575-0.584,0.575c-0.325,0-0.584-0.263-0.584-0.575
		c0-0.33,0.259-0.592,0.584-0.592C93.89,242.928,94.149,243.19,94.149,243.521z"/>
	<path fill="#68C8C7" d="M94.149,243.521c0,0.312-0.259,0.575-0.584,0.575c-0.325,0-0.584-0.263-0.584-0.575
		c0-0.327,0.259-0.592,0.584-0.592C93.89,242.928,94.149,243.194,94.149,243.521z"/>
	<path fill="#68C8C7" d="M94.149,243.521c0,0.312-0.259,0.575-0.584,0.575c-0.325,0-0.584-0.263-0.584-0.575
		c0-0.327,0.259-0.592,0.584-0.592C93.89,242.928,94.149,243.194,94.149,243.521z"/>
	<path fill="#68C8C7" d="M94.149,243.521c0,0.312-0.259,0.579-0.584,0.579c-0.325,0-0.584-0.267-0.584-0.579
		c0-0.325,0.259-0.59,0.584-0.59C93.89,242.931,94.149,243.196,94.149,243.521z"/>
	<circle fill="#68C8C7" cx="96.47" cy="245.273" r="0.585"/>
	<ellipse fill="#68C8C7" cx="97.548" cy="244.682" rx="0.586" ry="0.59"/>
	<ellipse fill="#68C8C7" cx="99.223" cy="245.141" rx="0.586" ry="0.584"/>
	<path fill="#68C8C7" d="M100.631,243.832c0,0.315-0.257,0.579-0.584,0.579c-0.326,0-0.585-0.263-0.585-0.579
		c0-0.325,0.26-0.59,0.585-0.59C100.374,243.242,100.631,243.508,100.631,243.832z"/>
	<path fill="#68C8C7" d="M100.631,243.832c0,0.315-0.257,0.58-0.584,0.58c-0.326,0-0.585-0.264-0.585-0.58
		c0-0.325,0.26-0.589,0.585-0.589C100.374,243.243,100.631,243.508,100.631,243.832z"/>
	<circle fill="#68C8C7" cx="100.047" cy="243.831" r="0.584"/>
	<circle fill="#68C8C7" cx="100.047" cy="243.832" r="0.585"/>
	<ellipse fill="#68C8C7" cx="101.756" cy="244.21" rx="0.587" ry="0.585"/>
	<circle fill="#68C8C7" cx="103.482" cy="243.956" r="0.585"/>
	<circle fill="#68C8C7" cx="102.136" cy="242.466" r="0.585"/>
	<path fill="#68C8C7" d="M99.026,242.715c0,0.327-0.264,0.591-0.589,0.591c-0.317,0-0.581-0.264-0.581-0.591
		c0-0.321,0.264-0.577,0.581-0.577C98.762,242.137,99.026,242.394,99.026,242.715z"/>
	<path fill="#68C8C7" d="M100.827,241.15c0,0.326-0.264,0.59-0.584,0.59c-0.326,0-0.588-0.264-0.588-0.59
		c0-0.322,0.262-0.579,0.588-0.579C100.564,240.571,100.827,240.827,100.827,241.15z"/>
	<ellipse fill="#68C8C7" cx="101.17" cy="238.915" rx="0.584" ry="0.59"/>
	<ellipse fill="#68C8C7" cx="98.571" cy="238.169" rx="0.583" ry="0.592"/>
	<path fill="#68C8C7" d="M104.069,240.46c0,0.326-0.262,0.59-0.588,0.59c-0.322,0-0.585-0.264-0.585-0.59
		c0-0.32,0.263-0.579,0.585-0.579C103.807,239.881,104.069,240.14,104.069,240.46z"/>
	<path fill="#68C8C7" d="M104.551,242.715c0,0.327-0.263,0.591-0.584,0.591c-0.325,0-0.586-0.264-0.586-0.591
		c0-0.321,0.261-0.577,0.586-0.577C104.288,242.137,104.551,242.394,104.551,242.715z"/>
	<circle fill="#68C8C7" cx="105.67" cy="242.306" r="0.588"/>
	<path fill="#68C8C7" d="M107.656,241.328c0,0.314-0.265,0.58-0.584,0.58c-0.326,0-0.591-0.265-0.591-0.58
		c0-0.326,0.264-0.591,0.591-0.591C107.391,240.737,107.656,241.002,107.656,241.328z"/>
	<path fill="#68C8C7" d="M106.137,240.694c0,0.322-0.258,0.579-0.584,0.579c-0.326,0-0.584-0.256-0.584-0.579
		c0-0.324,0.258-0.591,0.584-0.591C105.879,240.103,106.137,240.371,106.137,240.694z"/>
	<path fill="#68C8C7" d="M107.855,240.14c0,0.312-0.263,0.577-0.589,0.577c-0.319,0-0.584-0.265-0.584-0.577
		c0-0.327,0.266-0.593,0.584-0.593C107.592,239.547,107.855,239.813,107.855,240.14z"/>
	<path fill="#68C8C7" d="M107.025,238.387c0,0.324-0.263,0.588-0.584,0.588c-0.325,0-0.589-0.264-0.589-0.588
		c0-0.313,0.264-0.581,0.589-0.581C106.762,237.806,107.025,238.074,107.025,238.387z"/>
	<ellipse fill="#68C8C7" cx="108.638" cy="239.059" rx="0.587" ry="0.584"/>
	<path fill="#68C8C7" d="M108.799,237.682c0,0.329-0.258,0.58-0.583,0.58c-0.326,0-0.585-0.25-0.585-0.58
		c0-0.327,0.258-0.589,0.585-0.589C108.54,237.093,108.799,237.355,108.799,237.682z"/>
	<ellipse fill="#68C8C7" cx="109.507" cy="236.456" rx="0.586" ry="0.584"/>
	<ellipse fill="#68C8C7" cx="110.266" cy="234.93" rx="0.588" ry="0.584"/>
	<path fill="#68C8C7" d="M108.92,235.134c0,0.323-0.263,0.589-0.588,0.589c-0.32,0-0.583-0.266-0.583-0.589
		c0-0.315,0.263-0.579,0.583-0.579C108.657,234.555,108.92,234.818,108.92,235.134z"/>
	<circle fill="#68C8C7" cx="106.353" cy="235.926" r="0.586"/>
	<circle fill="#68C8C7" cx="109.624" cy="233.807" r="0.584"/>
	<path fill="#68C8C7" d="M110.893,232.184c0,0.327-0.265,0.592-0.591,0.592c-0.318,0-0.584-0.265-0.584-0.592
		c0-0.308,0.266-0.579,0.584-0.579C110.628,231.606,110.893,231.876,110.893,232.184z"/>
	<ellipse fill="#68C8C7" cx="107.656" cy="232.776" rx="0.584" ry="0.591"/>
	<ellipse fill="#68C8C7" cx="108.919" cy="231.299" rx="0.587" ry="0.584"/>
	<path fill="#68C8C7" d="M110.933,230.499c0,0.308-0.26,0.575-0.584,0.575c-0.325,0-0.584-0.267-0.584-0.575
		c0-0.329,0.259-0.595,0.584-0.595C110.673,229.904,110.933,230.169,110.933,230.499z"/>
	<circle fill="#68C8C7" cx="109.506" cy="229.574" r="0.585"/>
	<ellipse fill="#68C8C7" cx="107.63" cy="229.179" rx="0.587" ry="0.584"/>
	<path fill="#68C8C7" d="M110.091,227.864c0,0.313-0.262,0.579-0.585,0.579c-0.325,0-0.586-0.265-0.586-0.579
		c0-0.327,0.261-0.591,0.586-0.591C109.829,227.273,110.091,227.537,110.091,227.864z"/>
	<circle fill="#68C8C7" cx="108.215" cy="227.317" r="0.584"/>
	<ellipse fill="#68C8C7" cx="105.692" cy="227.712" rx="0.587" ry="0.591"/>
	<path fill="#68C8C7" d="M106.94,225.596c0,0.326-0.265,0.579-0.588,0.579c-0.321,0-0.588-0.253-0.588-0.579
		c0-0.325,0.267-0.59,0.588-0.59C106.675,225.005,106.94,225.271,106.94,225.596z"/>
	<path fill="#68C8C7" d="M108.624,225.596c0,0.326-0.264,0.579-0.583,0.579c-0.326,0-0.591-0.253-0.591-0.579
		c0-0.325,0.265-0.59,0.591-0.59C108.36,225.005,108.624,225.271,108.624,225.596z"/>
	<path fill="#68C8C7" d="M104.682,224.661c0,0.322-0.264,0.574-0.584,0.574c-0.326,0-0.59-0.252-0.59-0.574
		c0-0.326,0.264-0.591,0.59-0.591C104.418,224.07,104.682,224.335,104.682,224.661z"/>
	<ellipse fill="#68C8C7" cx="101.662" cy="224.578" rx="0.587" ry="0.591"/>
	<path fill="#68C8C7" d="M100.052,225.548c0,0.327-0.264,0.59-0.585,0.59c-0.324,0-0.589-0.263-0.589-0.59
		c0-0.314,0.265-0.577,0.589-0.577C99.789,224.971,100.052,225.234,100.052,225.548z"/>
	<ellipse fill="#68C8C7" cx="97.812" cy="228.086" rx="0.586" ry="0.59"/>
	<circle fill="#68C8C7" cx="96.433" cy="230.412" r="0.588"/>
	<path fill="#68C8C7" d="M96.022,233.7c0,0.326-0.258,0.59-0.584,0.59c-0.323,0-0.585-0.264-0.585-0.59
		c0-0.321,0.262-0.579,0.585-0.579C95.763,233.121,96.022,233.378,96.022,233.7z"/>
	<path fill="#68C8C7" d="M97.605,236.061c0,0.322-0.264,0.579-0.583,0.579c-0.325,0-0.59-0.256-0.59-0.579
		c0-0.327,0.265-0.59,0.59-0.59C97.341,235.471,97.605,235.734,97.605,236.061z"/>
	<path fill="#68C8C7" d="M94.853,236.178c0,0.33-0.264,0.581-0.584,0.581c-0.325,0-0.59-0.25-0.59-0.581
		c0-0.325,0.265-0.59,0.59-0.59C94.589,235.588,94.853,235.854,94.853,236.178z"/>
	<path fill="#68C8C7" d="M91.952,236.822c0,0.315-0.257,0.579-0.583,0.579c-0.323,0-0.585-0.263-0.585-0.579
		c0-0.326,0.262-0.59,0.585-0.59C91.695,236.232,91.952,236.496,91.952,236.822z"/>
	<ellipse fill="#68C8C7" cx="91.426" cy="234.117" rx="0.587" ry="0.585"/>
	<path fill="#68C8C7" d="M89.668,235.992c0,0.329-0.261,0.58-0.587,0.58c-0.321,0-0.583-0.25-0.583-0.58
		c0-0.327,0.263-0.589,0.583-0.589C89.406,235.403,89.668,235.665,89.668,235.992z"/>
	<circle fill="#68C8C7" cx="93.255" cy="232.077" r="0.584"/>
	<path fill="#68C8C7" d="M94.269,229.314c0,0.327-0.263,0.59-0.59,0.59c-0.319,0-0.584-0.263-0.584-0.59
		c0-0.322,0.264-0.579,0.584-0.579C94.006,228.735,94.269,228.991,94.269,229.314z"/>
	<path fill="#68C8C7" d="M91.784,230.313c0,0.327-0.264,0.592-0.584,0.592c-0.326,0-0.59-0.265-0.59-0.592
		c0-0.32,0.264-0.577,0.59-0.577C91.519,229.736,91.784,229.993,91.784,230.313z"/>
	<ellipse fill="#68C8C7" cx="88.126" cy="230.654" rx="0.586" ry="0.59"/>
	<ellipse fill="#68C8C7" cx="89.407" cy="232.776" rx="0.584" ry="0.591"/>
	<path fill="#68C8C7" d="M87.975,234.226c0,0.326-0.264,0.592-0.592,0.592c-0.318,0-0.583-0.267-0.583-0.592
		c0-0.326,0.264-0.59,0.583-0.59C87.71,233.636,87.975,233.9,87.975,234.226z"/>
	<circle fill="#68C8C7" cx="86.548" cy="235.926" r="0.585"/>
	<path fill="#68C8C7" d="M85.894,235.194c0,0.322-0.264,0.587-0.585,0.587c-0.325,0-0.587-0.264-0.587-0.587
		c0-0.313,0.262-0.582,0.587-0.582C85.63,234.612,85.894,234.881,85.894,235.194z"/>
	<circle fill="#68C8C7" cx="85.594" cy="233.462" r="0.586"/>
	<path fill="#68C8C7" d="M85.519,232.449c0,0.326-0.265,0.59-0.584,0.59c-0.327,0-0.59-0.264-0.59-0.59
		c0-0.322,0.263-0.579,0.59-0.579C85.254,231.87,85.519,232.126,85.519,232.449z"/>
	<path fill="#68C8C7" d="M87.067,231.921c0,0.33-0.265,0.581-0.59,0.581c-0.319,0-0.586-0.251-0.586-0.581
		c0-0.326,0.266-0.59,0.586-0.59C86.802,231.331,87.067,231.595,87.067,231.921z"/>
	<path fill="#68C8C7" d="M85.892,230.799c0,0.326-0.263,0.579-0.584,0.579c-0.325,0-0.587-0.253-0.587-0.579
		c0-0.327,0.262-0.59,0.587-0.59C85.63,230.209,85.892,230.472,85.892,230.799z"/>
	<path fill="#68C8C7" d="M86.851,229.314c0,0.327-0.263,0.59-0.588,0.59c-0.319,0-0.584-0.263-0.584-0.59
		c0-0.322,0.265-0.579,0.584-0.579C86.588,228.735,86.851,228.991,86.851,229.314z"/>
	<ellipse fill="#68C8C7" cx="85.777" cy="228.086" rx="0.585" ry="0.59"/>
	<circle fill="#68C8C7" cx="87.795" cy="228.263" r="0.588"/>
	<ellipse fill="#68C8C7" cx="90.298" cy="228.086" rx="0.587" ry="0.59"/>
	<ellipse fill="#68C8C7" cx="86.85" cy="226.764" rx="0.587" ry="0.59"/>
	<ellipse fill="#68C8C7" cx="88.425" cy="225.828" rx="0.585" ry="0.592"/>
	<path fill="#68C8C7" d="M91.047,225.688c0,0.327-0.263,0.59-0.588,0.59c-0.321,0-0.585-0.263-0.585-0.59
		c0-0.328,0.264-0.579,0.585-0.579C90.784,225.11,91.047,225.36,91.047,225.688z"/>
	<circle fill="#68C8C7" cx="88.173" cy="224.382" r="0.587"/>
	<ellipse fill="#68C8C7" cx="89.713" cy="223.63" rx="0.584" ry="0.587"/>
	<ellipse fill="#68C8C7" cx="90.073" cy="222.392" rx="0.587" ry="0.59"/>
	<circle fill="#68C8C7" cx="91.554" cy="223.484" r="0.585"/>
	<path fill="#68C8C7" d="M94.196,224.282c0,0.326-0.265,0.577-0.584,0.577c-0.326,0-0.591-0.252-0.591-0.577
		c0-0.325,0.265-0.59,0.591-0.59C93.931,223.692,94.196,223.957,94.196,224.282z"/>
	<path fill="#68C8C7" d="M93.539,226.619c0,0.325-0.264,0.59-0.585,0.59c-0.326,0-0.589-0.266-0.589-0.59
		c0-0.32,0.263-0.579,0.589-0.579C93.275,226.041,93.539,226.299,93.539,226.619z"/>
	<path fill="#68C8C7" d="M96.216,226.479c0,0.321-0.259,0.579-0.584,0.579c-0.326,0-0.586-0.257-0.586-0.579
		c0-0.326,0.259-0.591,0.586-0.591C95.957,225.888,96.216,226.153,96.216,226.479z"/>
	<path fill="#68C8C7" d="M97.39,224.282c0,0.326-0.264,0.577-0.584,0.577c-0.326,0-0.59-0.252-0.59-0.577
		c0-0.325,0.264-0.59,0.59-0.59C97.125,223.692,97.39,223.957,97.39,224.282z"/>
	<circle fill="#68C8C7" cx="95.205" cy="222.459" r="0.587"/>
	<circle fill="#68C8C7" cx="93.403" cy="221.717" r="0.585"/>
	<circle fill="#68C8C7" cx="91.632" cy="221.717" r="0.585"/>
	<path fill="#68C8C7" d="M94.617,220.414c0,0.328-0.258,0.591-0.585,0.591s-0.584-0.263-0.584-0.591
		c0-0.312,0.257-0.576,0.584-0.576S94.617,220.102,94.617,220.414z"/>
	<path fill="#68C8C7" d="M96.375,220.539c0,0.327-0.258,0.59-0.584,0.59c-0.325,0-0.585-0.263-0.585-0.59
		c0-0.312,0.26-0.579,0.585-0.579C96.117,219.961,96.375,220.228,96.375,220.539z"/>
	<circle fill="#68C8C7" cx="96.753" cy="219.788" r="0.584"/>
	<path fill="#68C8C7" d="M97.973,221.291c0,0.313-0.261,0.58-0.583,0.58c-0.325,0-0.584-0.267-0.584-0.58
		c0-0.326,0.259-0.59,0.584-0.59C97.712,220.701,97.973,220.965,97.973,221.291z"/>
	<path fill="#68C8C7" d="M98.982,220.055c0,0.327-0.263,0.59-0.583,0.59c-0.324,0-0.588-0.263-0.588-0.59
		c0-0.328,0.264-0.579,0.588-0.579C98.718,219.476,98.982,219.727,98.982,220.055z"/>
	<path fill="#68C8C7" d="M99.364,222.847c0,0.322-0.264,0.579-0.586,0.579c-0.323,0-0.588-0.256-0.588-0.579
		c0-0.326,0.265-0.591,0.588-0.591C99.1,222.255,99.364,222.521,99.364,222.847z"/>
	<circle fill="#68C8C7" cx="99.949" cy="220.853" r="0.584"/>
	<ellipse fill="#68C8C7" cx="101.17" cy="220.374" rx="0.584" ry="0.587"/>
	<circle fill="#68C8C7" cx="101.17" cy="222.302" r="0.584"/>
	<path fill="#68C8C7" d="M103.174,221.291c0,0.313-0.263,0.58-0.583,0.58c-0.326,0-0.588-0.267-0.588-0.58
		c0-0.326,0.262-0.59,0.588-0.59C102.911,220.701,103.174,220.965,103.174,221.291z"/>
	<path fill="#68C8C7" d="M104.223,222.718c0,0.326-0.262,0.576-0.588,0.576c-0.319,0-0.584-0.25-0.584-0.576
		c0-0.325,0.264-0.589,0.584-0.589C103.961,222.129,104.223,222.393,104.223,222.718z"/>
	<circle fill="#68C8C7" cx="105.106" cy="222.302" r="0.586"/>
	<circle fill="#68C8C7" cx="105.996" cy="223.796" r="0.584"/>
	<ellipse fill="#68C8C7" cx="107.224" cy="224.071" rx="0.587" ry="0.59"/>
	<ellipse fill="#68C8C7" cx="106.096" cy="230.905" rx="0.586" ry="0.591"/>
	<ellipse fill="#68C8C7" cx="103.849" cy="229.905" rx="0.587" ry="0.592"/>
	<path fill="#68C8C7" d="M103.263,232.256c0,0.327-0.26,0.59-0.585,0.59c-0.325,0-0.585-0.263-0.585-0.59
		c0-0.322,0.26-0.579,0.585-0.579C103.002,231.678,103.263,231.934,103.263,232.256z"/>
	<path fill="#68C8C7" d="M100.732,233.308c0,0.321-0.263,0.577-0.584,0.577c-0.326,0-0.587-0.256-0.587-0.577
		c0-0.325,0.261-0.59,0.587-0.59C100.469,232.718,100.732,232.983,100.732,233.308z"/>
	<path fill="#68C8C7" d="M101.17,230.499c0,0.308-0.263,0.575-0.583,0.575c-0.326,0-0.588-0.267-0.588-0.575
		c0-0.329,0.262-0.595,0.588-0.595C100.907,229.904,101.17,230.169,101.17,230.499z"/>
	<path fill="#68C8C7" d="M101.474,227.864c0,0.313-0.258,0.579-0.583,0.579c-0.326,0-0.585-0.265-0.585-0.579
		c0-0.327,0.259-0.591,0.585-0.591C101.216,227.273,101.474,227.537,101.474,227.864z"/>
	<ellipse fill="#68C8C7" cx="103.314" cy="227.209" rx="0.587" ry="0.59"/>
	<circle fill="#68C8C7" cx="105.267" cy="233.757" r="0.585"/>
	<circle fill="#68C8C7" cx="103.38" cy="235.723" r="0.588"/>
	<path fill="#68C8C7" d="M101.265,235.992c0,0.329-0.263,0.58-0.583,0.58c-0.327,0-0.589-0.25-0.589-0.58
		c0-0.327,0.262-0.589,0.589-0.589C101.002,235.403,101.265,235.665,101.265,235.992z"/>
	<path fill="#68C8C7" d="M104.577,238.081c0,0.326-0.26,0.59-0.584,0.59c-0.325,0-0.584-0.264-0.584-0.59
		c0-0.32,0.259-0.579,0.584-0.579C104.317,237.502,104.577,237.761,104.577,238.081z"/>
	<circle fill="#68C8C7" cx="96.092" cy="243.542" r="0.587"/>
	<path fill="#68C8C7" d="M93.322,241.775c0,0.326-0.266,0.591-0.584,0.591c-0.326,0-0.592-0.266-0.592-0.591
		c0-0.321,0.265-0.579,0.592-0.579C93.056,241.196,93.322,241.453,93.322,241.775z"/>
	<ellipse fill="#68C8C7" cx="95.124" cy="241.547" rx="0.585" ry="0.59"/>
	<path fill="#68C8C7" d="M97.811,240.327c0,0.314-0.258,0.577-0.584,0.577c-0.325,0-0.584-0.263-0.584-0.577
		c0-0.328,0.258-0.591,0.584-0.591C97.553,239.735,97.811,239.998,97.811,240.327z"/>
	<path fill="#909295" d="M126.353,250.875c-0.057-0.001-5.45-0.155-8.556,0.014c-3.836,0.204-13.733,5.456-14.155,5.674
		c-0.018,0.013-2.063,1.064-4.781-0.271c-0.038-0.016-3.661-1.447-6.335-2.184c-0.01-0.003-1-0.26-1.647-0.955
		c-0.015-0.015-0.025-0.03-0.043-0.043c-0.567-0.443-2.131-1.763-2.551-2.558c-0.028-0.052-0.073-0.095-0.122-0.135
		c-0.028-0.01-2.387-1.511-3.304-3.316c-0.01-0.013-0.019-0.031-0.034-0.051c-0.083-0.109-0.371-0.588-0.235-0.893
		c0.102-0.227,0.479-0.384,1.065-0.436c0.073-0.006,1.854-0.09,3.738,2.563c0.057,0.082,0.151,0.135,0.245,0.148
		c0.013,0.002,1.235,0.182,2.92,2.224c0.074,0.088,0.181,0.137,0.293,0.128c0.52-0.026,1.744-0.065,2.632,0.023
		c-0.837,0.788-0.703,1.687-0.698,1.716c0.474,2.187,3.919,2.422,5.395,2.422c0.366,0,0.61-0.017,0.657-0.021
		c2.653-0.15,4.357-0.939,6.509-1.932c0.357-0.161,0.732-0.333,1.123-0.514c1.881-0.837,2.724-1.948,2.759-1.995
		c0.114-0.148,0.082-0.375-0.072-0.488c-0.154-0.116-0.374-0.09-0.489,0.068c-0.01,0.012-0.781,1.018-2.488,1.782
		c-0.391,0.175-0.765,0.344-1.129,0.508c-2.084,0.966-3.731,1.726-6.259,1.871c-1.355,0.089-4.932-0.065-5.316-1.831
		c-0.009-0.048-0.147-1.242,1.937-1.79c0.021-0.008,2.119-0.723,4.508-0.386c0.115,0.017,0.233-0.021,0.308-0.112
		c0.007-0.007,0.605-0.641,1.784-1.027c0.062-0.023,0.121-0.052,0.16-0.113c0.047-0.051,1.105-1.293,1.574-2.111
		c1.324-2.302,2.364-4.123,9.686-4.123h7.993c0.195,0,0.352-0.152,0.352-0.346c0-0.196-0.157-0.358-0.352-0.358h-7.993
		c-7.73,0-8.92,2.075-10.298,4.482c-0.374,0.646-1.198,1.649-1.435,1.93c-0.979,0.337-1.598,0.83-1.852,1.062
		c-0.591-0.074-1.158-0.09-1.681-0.067c-0.385-0.25-1.773-1.021-3.759-0.694c-0.395-0.276-1.617-1.066-2.952-1.059
		c-0.469-0.298-2.562-1.58-4.179-1.768c-0.434-0.329-0.857-0.655-1.114-0.836c-0.394-0.495-0.846-0.932-1.335-1.183
		c-0.719-0.418-2.339-0.889-3.341,0.355c-0.024,0.028-0.555,0.815,0.39,1.835c-0.133,0.605,0.26,1.209,0.37,1.363
		c0.922,1.795,3.027,3.23,3.463,3.52c0.61,1.035,2.442,2.502,2.676,2.682c0.787,0.827,1.914,1.13,1.96,1.137
		c2.63,0.719,6.218,2.133,6.229,2.137c1.154,0.57,2.207,0.747,3.061,0.747c1.383,0,2.276-0.454,2.337-0.49
		c0.098-0.053,10.176-5.398,13.861-5.588c3.078-0.168,8.444-0.017,8.496-0.015c0.177,0.002,0.357-0.152,0.364-0.347
		C126.698,251.038,126.545,250.88,126.353,250.875z M93.365,248.39c0.035-0.001,0.07-0.001,0.104-0.001
		c1.308,0,2.625,0.996,2.642,1.007c0.076,0.06,0.179,0.077,0.279,0.068c0.962-0.186,1.773-0.067,2.37,0.112
		c-0.922,0.14-1.516,0.345-1.55,0.361c-0.337,0.09-0.625,0.19-0.875,0.304c-0.216-0.059-0.483-0.099-0.776-0.132
		c-0.283-0.163-1.321-0.765-2.064-0.887c-0.203-0.281-0.729-0.945-1.473-1.475c0.572,0.286,1.129,0.579,1.139,0.584
		C93.221,248.369,93.297,248.389,93.365,248.39z M90.807,247.137c-0.002-0.001-0.004-0.001-0.006-0.003
		C90.801,247.133,90.802,247.133,90.807,247.137z M90.417,247.718c0.033,0.036,0.079,0.059,0.127,0.067
		c1.434,0.404,2.447,1.944,2.46,1.963c0.062,0.095,0.166,0.158,0.277,0.158c0.151,0.005,0.354,0.063,0.568,0.145
		c-0.362,0.006-0.675,0.019-0.861,0.029c-1.493-1.759-2.676-2.202-3.101-2.306c-0.13-0.184-0.262-0.351-0.391-0.501
		c-0.037-0.079-0.113-0.247-0.235-0.472C89.871,247.278,90.405,247.714,90.417,247.718z M84.045,244.671L84.045,244.671
		c0.858-1.061,2.366-0.206,2.451-0.148c0.398,0.187,0.784,0.567,1.12,1c0.009,0.005,0.016,0.019,0.028,0.033
		c0.042,0.049,0.082,0.1,0.118,0.155c-1.203-0.751-2.11-0.689-2.166-0.689c-0.594,0.059-1.032,0.198-1.323,0.438
		C83.888,244.965,84.049,244.671,84.045,244.671z"/>
	<path fill="#010101" d="M111.4,218.975c0.139-0.605-0.257-1.209-0.364-1.363c-0.926-1.795-3.027-3.23-3.463-3.52
		c-0.61-1.035-2.442-2.502-2.676-2.682c-0.792-0.827-1.921-1.13-1.961-1.137c-2.629-0.719-6.222-2.133-6.228-2.137
		c-1.156-0.572-2.206-0.747-3.067-0.747c-1.378,0-2.275,0.453-2.334,0.49c-0.103,0.053-10.179,5.398-13.86,5.588
		c-3.079,0.169-8.445,0.017-8.502,0.015c-0.17-0.002-0.351,0.152-0.357,0.347c-0.006,0.194,0.145,0.351,0.34,0.357
		c0.053,0.001,5.45,0.155,8.556-0.014c3.835-0.204,13.734-5.456,14.152-5.674c0.021-0.013,2.066-1.064,4.785,0.271
		c0.036,0.016,3.66,1.447,6.33,2.183c0.009,0.005,1.002,0.261,1.651,0.955c0.009,0.015,0.025,0.031,0.039,0.044
		c0.565,0.443,2.129,1.763,2.554,2.558c0.028,0.052,0.074,0.095,0.123,0.133c0.022,0.012,2.387,1.512,3.301,3.317
		c0.008,0.013,0.021,0.031,0.032,0.051c0.088,0.109,0.374,0.588,0.241,0.893c-0.105,0.227-0.485,0.383-1.066,0.436
		c-0.079,0.006-1.858,0.092-3.744-2.562c-0.055-0.083-0.146-0.136-0.244-0.149c-0.01-0.002-1.231-0.182-2.919-2.224
		c-0.07-0.088-0.179-0.137-0.289-0.128c-0.525,0.026-1.746,0.065-2.631-0.023c0.831-0.788,0.697-1.687,0.697-1.716
		c-0.474-2.188-3.919-2.422-5.393-2.422c-0.367,0-0.617,0.017-0.657,0.021c-2.655,0.15-4.358,0.939-6.51,1.931
		c-0.362,0.161-0.734,0.333-1.122,0.514c-1.882,0.836-2.725,1.948-2.76,1.995c-0.118,0.148-0.087,0.373,0.07,0.488
		c0.155,0.116,0.374,0.09,0.492-0.068c0.008-0.013,0.781-1.018,2.483-1.782c0.396-0.175,0.77-0.344,1.127-0.508
		c2.091-0.966,3.738-1.726,6.261-1.871c1.355-0.089,4.937,0.065,5.321,1.831c0.003,0.048,0.147,1.239-1.939,1.79
		c-0.02,0.008-2.12,0.723-4.51,0.386c-0.115-0.017-0.23,0.022-0.311,0.112c0,0-0.6,0.641-1.784,1.026
		c-0.062,0.024-0.117,0.053-0.157,0.114c-0.045,0.051-1.103,1.293-1.572,2.111c-1.323,2.302-2.369,4.123-9.687,4.123h-7.994
		c-0.192,0-0.349,0.151-0.349,0.347c0,0.195,0.157,0.357,0.349,0.357h7.994c7.725,0,8.916-2.075,10.294-4.482
		c0.374-0.647,1.205-1.649,1.433-1.93c0.986-0.338,1.6-0.83,1.858-1.062c0.588,0.074,1.155,0.09,1.68,0.066
		c0.387,0.252,1.777,1.023,3.756,0.696c0.401,0.276,1.623,1.066,2.956,1.059c0.47,0.298,2.557,1.58,4.18,1.767
		c0.433,0.33,0.851,0.657,1.113,0.838c0.391,0.494,0.846,0.931,1.33,1.181c0.719,0.42,2.344,0.889,3.345-0.355
		C111.82,220.783,112.352,219.996,111.4,218.975z M101.913,216.672c-0.035,0.001-0.066,0.002-0.097,0.002
		c-1.314,0-2.631-0.997-2.641-1.009c-0.082-0.06-0.177-0.078-0.279-0.068c-0.962,0.186-1.776,0.066-2.372-0.111
		c0.92-0.142,1.522-0.347,1.554-0.362c0.33-0.093,0.619-0.189,0.866-0.304c0.217,0.059,0.489,0.097,0.777,0.132
		c0.282,0.163,1.328,0.765,2.064,0.887c0.208,0.281,0.726,0.944,1.471,1.472c-0.566-0.285-1.127-0.576-1.132-0.582
		C102.063,216.693,101.987,216.672,101.913,216.672z M104.474,217.924c0,0,0.002,0.002,0.003,0.003S104.475,217.927,104.474,217.924
		z M104.865,217.343c-0.039-0.035-0.078-0.059-0.127-0.066c-1.434-0.404-2.453-1.944-2.458-1.963
		c-0.062-0.095-0.166-0.158-0.276-0.158c-0.156-0.005-0.353-0.063-0.566-0.145c0.358-0.006,0.668-0.019,0.858-0.03
		c1.49,1.76,2.677,2.203,3.101,2.306c0.132,0.186,0.262,0.352,0.393,0.501c0.033,0.081,0.112,0.247,0.227,0.473
		C105.413,217.785,104.878,217.348,104.865,217.343z M111.237,220.391L111.237,220.391c-0.857,1.061-2.366,0.205-2.45,0.148
		c-0.398-0.187-0.783-0.567-1.12-1.002c-0.009-0.002-0.02-0.014-0.03-0.027c-0.039-0.051-0.081-0.103-0.123-0.16
		c1.21,0.751,2.116,0.688,2.172,0.688c0.588-0.058,1.027-0.197,1.323-0.437C111.394,220.095,111.236,220.391,111.237,220.391z"/>
</g>
<g>
	<g>
		
			<line fill="none" stroke="#FFFFFF" stroke-width="5.6693" stroke-linecap="square" x1="10.256" y1="50.002" x2="190" y2="50.002"/>
		<g>
			<line fill="none" stroke="#63A292" stroke-width="2.8346" x1="10.255" y1="50.002" x2="184.038" y2="50.002"/>
			<g>
				<polygon fill="#63A292" points="183.114,43.115 183.114,56.889 190,50.002 				"/>
			</g>
		</g>
	</g>
	<g>
		
			<line fill="none" stroke="#FFFFFF" stroke-width="5.6693" stroke-linecap="square" x1="10.256" y1="74.966" x2="190" y2="74.966"/>
		<g>
			<line fill="none" stroke="#007DC5" stroke-width="2.8346" x1="10.255" y1="74.966" x2="184.038" y2="74.966"/>
			<g>
				<polygon fill="#007DC5" points="183.114,68.079 183.114,81.854 190,74.966 				"/>
			</g>
		</g>
	</g>
	<g>
		
			<line fill="none" stroke="#FFFFFF" stroke-width="5.6693" stroke-linecap="square" x1="10.256" y1="99.931" x2="190" y2="99.931"/>
		<g>
			<line fill="none" stroke="#BB8A0B" stroke-width="2.8346" x1="10.255" y1="99.931" x2="184.038" y2="99.931"/>
			<g>
				<polygon fill="#BB8A0B" points="183.114,93.044 183.114,106.818 190,99.931 				"/>
			</g>
		</g>
	</g>
	<g opacity="0.8">
		<line fill="none" stroke="#FFFFFF" stroke-width="8.5039" x1="10.256" y1="124.895" x2="190" y2="124.895"/>
		<g>
			<line fill="none" stroke="#A967AA" stroke-width="2.8346" x1="10.255" y1="124.895" x2="190" y2="124.895"/>
			<g>
				<polygon fill="#A967AA" points="189.077,118.008 189.077,131.783 195.962,124.895 				"/>
			</g>
		</g>
	</g>
	<g>
		
			<line fill="none" stroke="#FFFFFF" stroke-width="5.6693" stroke-linecap="square" x1="10.256" y1="149.86" x2="190" y2="149.86"/>
		<g>
			<line fill="none" stroke="#F3C716" stroke-width="2.8346" x1="10.255" y1="149.86" x2="184.038" y2="149.86"/>
			<g>
				<polygon fill="#F3C716" points="183.114,142.973 183.114,156.747 190,149.86 				"/>
			</g>
		</g>
	</g>
	<g>
		
			<line fill="none" stroke="#FFFFFF" stroke-width="5.6693" stroke-linecap="square" x1="10.256" y1="174.824" x2="190" y2="174.824"/>
		<g>
			<line fill="none" stroke="#63A292" stroke-width="2.8346" x1="10.255" y1="174.824" x2="184.038" y2="174.824"/>
			<g>
				<polygon fill="#63A292" points="183.114,167.937 183.114,181.712 190,174.824 				"/>
			</g>
		</g>
	</g>
	<g>
		<g opacity="0.9">
			
				<text transform="matrix(1 0 0 1 35.22 54.4032)" fill="none" stroke="#FFFFFF" stroke-width="8.5039" stroke-linecap="round" stroke-linejoin="round" font-family="'MyriadPro-Semibold'" font-size="14px">Money</text>
		</g>
		<text transform="matrix(1 0 0 1 35.22 54.4032)" fill="#231F20" font-family="'MyriadPro-Semibold'" font-size="14px">Money</text>
	</g>
	<g>
		<g opacity="0.9">
			
				<text transform="matrix(1 0 0 1 35.22 104.3329)" fill="none" stroke="#FFFFFF" stroke-width="8.5039" stroke-linecap="round" stroke-linejoin="round" font-family="'MyriadPro-Semibold'" font-size="14px">Work</text>
		</g>
		<text transform="matrix(1 0 0 1 35.22 104.3329)" fill="#231F20" font-family="'MyriadPro-Semibold'" font-size="14px">Work</text>
	</g>
	<g>
		<g opacity="0.9">
			
				<text transform="matrix(1 0 0 1 35.22 154.2626)" fill="none" stroke="#FFFFFF" stroke-width="8.5039" stroke-linecap="round" stroke-linejoin="round" font-family="'MyriadPro-Semibold'" font-size="14px">Information</text>
		</g>
		<text transform="matrix(1 0 0 1 35.22 154.2626)" fill="#231F20" font-family="'MyriadPro-Semibold'" font-size="14px">Information</text>
	</g>
	<g>
		<g opacity="0.9">
			
				<text transform="matrix(1 0 0 1 35.22 179.2264)" fill="none" stroke="#FFFFFF" stroke-width="8.5039" stroke-linecap="round" stroke-linejoin="round" font-family="'MyriadPro-Semibold'" font-size="14px">Natural Capital</text>
		</g>
		<text transform="matrix(1 0 0 1 35.22 179.2264)" fill="#231F20" font-family="'MyriadPro-Semibold'" font-size="14px">Natural Capital</text>
	</g>
	<g>
		<g opacity="0.9">
			
				<text transform="matrix(1 0 0 1 35.22 129.2977)" fill="none" stroke="#FFFFFF" stroke-width="8.5039" stroke-linecap="round" stroke-linejoin="round" font-family="'MyriadPro-Semibold'" font-size="14px">Political Influence</text>
		</g>
		<text transform="matrix(1 0 0 1 35.22 129.2977)" fill="#231F20" font-family="'MyriadPro-Semibold'" font-size="14px">Political Influence</text>
	</g>
	<g>
		<g opacity="0.9">
			
				<text transform="matrix(1 0 0 1 35.22 79.368)" fill="none" stroke="#FFFFFF" stroke-width="8.5039" stroke-linecap="round" stroke-linejoin="round" font-family="'MyriadPro-Semibold'" font-size="14px">Goods/Services</text>
		</g>
		<text transform="matrix(1 0 0 1 35.22 79.368)" fill="#231F20" font-family="'MyriadPro-Semibold'" font-size="14px">Goods/Services</text>
	</g>
	<g>
		
			<line fill="none" stroke="#FFFFFF" stroke-width="5.6693" stroke-linecap="square" x1="10.256" y1="50.002" x2="190" y2="50.002"/>
		<g>
			<line fill="none" stroke="#63A292" stroke-width="2.8346" x1="10.255" y1="50.002" x2="184.038" y2="50.002"/>
			<g>
				<polygon fill="#63A292" points="183.114,43.115 183.114,56.889 190,50.002 				"/>
			</g>
		</g>
	</g>
	<g>
		
			<line fill="none" stroke="#FFFFFF" stroke-width="5.6693" stroke-linecap="square" x1="10.256" y1="74.966" x2="190" y2="74.966"/>
		<g>
			<line fill="none" stroke="#007DC5" stroke-width="2.8346" x1="10.255" y1="74.966" x2="184.038" y2="74.966"/>
			<g>
				<polygon fill="#007DC5" points="183.114,68.079 183.114,81.854 190,74.966 				"/>
			</g>
		</g>
	</g>
	<g>
		
			<line fill="none" stroke="#FFFFFF" stroke-width="5.6693" stroke-linecap="square" x1="10.256" y1="99.931" x2="190" y2="99.931"/>
		<g>
			<line fill="none" stroke="#BB8A0B" stroke-width="2.8346" x1="10.255" y1="99.931" x2="184.038" y2="99.931"/>
			<g>
				<polygon fill="#BB8A0B" points="183.114,93.044 183.114,106.818 190,99.931 				"/>
			</g>
		</g>
	</g>
	<g opacity="0.8">
		<line fill="none" stroke="#FFFFFF" stroke-width="8.5039" x1="10.256" y1="124.895" x2="190" y2="124.895"/>
		<g>
			<line fill="none" stroke="#A967AA" stroke-width="2.8346" x1="10.255" y1="124.895" x2="190" y2="124.895"/>
			<g>
				<polygon fill="#A967AA" points="189.077,118.008 189.077,131.783 195.962,124.895 				"/>
			</g>
		</g>
	</g>
	<g>
		
			<line fill="none" stroke="#FFFFFF" stroke-width="5.6693" stroke-linecap="square" x1="10.256" y1="149.86" x2="190" y2="149.86"/>
		<g>
			<line fill="none" stroke="#F3C716" stroke-width="2.8346" x1="10.255" y1="149.86" x2="184.038" y2="149.86"/>
			<g>
				<polygon fill="#F3C716" points="183.114,142.973 183.114,156.747 190,149.86 				"/>
			</g>
		</g>
	</g>
	<g>
		
			<line fill="none" stroke="#FFFFFF" stroke-width="5.6693" stroke-linecap="square" x1="10.256" y1="174.824" x2="190" y2="174.824"/>
		<g>
			<line fill="none" stroke="#63A292" stroke-width="2.8346" x1="10.255" y1="174.824" x2="184.038" y2="174.824"/>
			<g>
				<polygon fill="#63A292" points="183.114,167.937 183.114,181.712 190,174.824 				"/>
			</g>
		</g>
	</g>
	<g>
		<g opacity="0.9">
			
				<text transform="matrix(1 0 0 1 35.22 54.4032)" fill="none" stroke="#FFFFFF" stroke-width="8.5039" stroke-linecap="round" stroke-linejoin="round" font-family="'MyriadPro-Semibold'" font-size="14px">Money</text>
		</g>
		<text transform="matrix(1 0 0 1 35.22 54.4032)" fill="#231F20" font-family="'MyriadPro-Semibold'" font-size="14px">Money</text>
	</g>
	<g>
		<g opacity="0.9">
			
				<text transform="matrix(1 0 0 1 10.0002 29.4032)" fill="none" stroke="#FFFFFF" stroke-width="8.5039" stroke-linecap="round" stroke-linejoin="round" font-family="'MyriadPro-Semibold'" font-size="15.8525px">Connections / Flows</text>
		</g>
		<text transform="matrix(1 0 0 1 10.0002 29.4032)" fill="#231F20" font-family="'MyriadPro-Semibold'" font-size="15.8525px">Connections / Flows</text>
	</g>
	<g>
		<g opacity="0.9">
			
				<text transform="matrix(1 0 0 1 35.22 104.3329)" fill="none" stroke="#FFFFFF" stroke-width="8.5039" stroke-linecap="round" stroke-linejoin="round" font-family="'MyriadPro-Semibold'" font-size="14px">Work</text>
		</g>
		<text transform="matrix(1 0 0 1 35.22 104.3329)" fill="#231F20" font-family="'MyriadPro-Semibold'" font-size="14px">Work</text>
	</g>
	<g>
		<g opacity="0.9">
			
				<text transform="matrix(1 0 0 1 35.22 154.2626)" fill="none" stroke="#FFFFFF" stroke-width="8.5039" stroke-linecap="round" stroke-linejoin="round" font-family="'MyriadPro-Semibold'" font-size="14px">Information</text>
		</g>
		<text transform="matrix(1 0 0 1 35.22 154.2626)" fill="#231F20" font-family="'MyriadPro-Semibold'" font-size="14px">Information</text>
	</g>
	<g>
		<g opacity="0.9">
			
				<text transform="matrix(1 0 0 1 35.22 179.2264)" fill="none" stroke="#FFFFFF" stroke-width="8.5039" stroke-linecap="round" stroke-linejoin="round" font-family="'MyriadPro-Semibold'" font-size="14px">Natural Capital</text>
		</g>
		<text transform="matrix(1 0 0 1 35.22 179.2264)" fill="#231F20" font-family="'MyriadPro-Semibold'" font-size="14px">Natural Capital</text>
	</g>
	<g>
		<g opacity="0.9">
			
				<text transform="matrix(1 0 0 1 35.22 129.2977)" fill="none" stroke="#FFFFFF" stroke-width="8.5039" stroke-linecap="round" stroke-linejoin="round" font-family="'MyriadPro-Semibold'" font-size="14px">Political Influence</text>
		</g>
		<text transform="matrix(1 0 0 1 35.22 129.2977)" fill="#231F20" font-family="'MyriadPro-Semibold'" font-size="14px">Political Influence</text>
	</g>
	<g>
		<g opacity="0.9">
			
				<text transform="matrix(1 0 0 1 35.22 79.368)" fill="none" stroke="#FFFFFF" stroke-width="8.5039" stroke-linecap="round" stroke-linejoin="round" font-family="'MyriadPro-Semibold'" font-size="14px">Goods/Services</text>
		</g>
		<text transform="matrix(1 0 0 1 35.22 79.368)" fill="#231F20" font-family="'MyriadPro-Semibold'" font-size="14px">Goods/Services</text>
	</g>
</g>
<text transform="matrix(1 0 0 1 19.7872 550.0002)" fill="#231F20" stroke="#231F20" stroke-width="0.2443" stroke-miterlimit="10" font-family="'MyriadPro-Light'" font-size="12.9706px">copyright © 2015 Tellus Mater</text>
<g display="none">
	<text transform="matrix(1 0 0 1 50.8386 256.4697)" fill="#231F20" font-family="'MyriadPro-Regular'" font-size="7.8678px">copyright® 2013 Idiagram</text>
</g>
<g>
	<rect x="65.742" y="430" fill="#FFFFFF" width="63.048" height="63.307"/>
	<path fill="#231F20" d="M66.101,506.977c0.055-2.517,0.149-5.045-0.007-8.519h2.815c-0.108,2.835-0.082,5.684,0.034,8.519H66.101z"
		/>
	<path fill="#231F20" d="M75.988,506.194h-0.026c-0.553,0.627-1.269,0.933-2.178,0.933c-1.712,0-2.806-1.301-2.879-2.912
		c-0.082-1.839,0.856-3.766,3.722-3.766c0.428,0,0.846,0.038,1.263,0.089c0.007-0.688-0.014-1.378-0.031-2.08h2.556
		c-0.044,1.328-0.104,2.58-0.12,3.931c-0.033,1.368-0.045,2.801,0.038,4.588h-2.347L75.988,506.194z M75.223,502.121
		c-1.311,0-1.906,0.945-1.859,1.955c0.033,0.692,0.438,1.315,1.216,1.315c1.4,0,1.322-1.993,1.282-3.193
		C75.651,502.149,75.442,502.121,75.223,502.121z"/>
	<path fill="#231F20" d="M80.578,506.977c0.134-1.929,0.139-3.833,0.048-6.374h2.594c-0.123,2.119-0.041,4.253,0.053,6.374H80.578z
		 M80.657,499.812l-0.045-1.507h2.517l0.007,1.507H80.657z"/>
	<path fill="#231F20" d="M85.941,500.844c1.015-0.229,2.044-0.395,3.046-0.395c2.048,0,2.753,0.678,2.801,1.738
		c0.014,0.32-0.062,3.513-0.007,4.79h-2.489c0.062-0.947,0.058-1.905,0.069-2.849c-0.466,0.332-1.957,0.383-1.921,1.135
		c0.017,0.397,0.385,0.512,0.736,0.512c0.235,0,0.466-0.039,0.681-0.115l-0.365,1.392c-0.348,0.051-0.683,0.075-1.036,0.075
		c-2.373,0-2.474-1.686-2.481-1.825c-0.123-2.695,4.34-1.864,4.288-2.987c-0.019-0.421-0.478-0.512-0.825-0.512
		c-0.912,0-1.859,0.294-2.688,0.601L85.941,500.844z"/>
	<path fill="#231F20" d="M94.438,507.766c0.83,0.282,1.698,0.498,2.565,0.498c1.469,0,1.57-0.906,1.529-2.092
		c-0.598,0.586-1.248,0.866-2.114,0.866c-1.674,0-2.753-1.25-2.826-2.833c-0.098-2.159,1.269-3.756,4.278-3.756
		c1.065,0,2.121,0.154,3.169,0.346c-0.094,2.21-0.086,4.405-0.032,6.742c0.029,1.508-0.784,2.464-3.066,2.464
		c-1.104,0-2.224-0.151-3.313-0.407L94.438,507.766z M97.848,502.277c-1.114,0-1.849,0.676-1.798,1.786
		c0.024,0.64,0.43,1.239,1.144,1.239c1.438,0,1.38-1.839,1.359-2.962C98.315,502.301,98.081,502.277,97.848,502.277z"/>
	<path fill="#231F20" d="M105.61,501.293l0.029-0.027c0.392-0.459,0.947-0.817,1.582-0.817c0.168,0,0.351,0.015,0.522,0.065
		l0.168,2.056c-0.222-0.063-0.459-0.128-0.678-0.128c-0.777,0-1.328,0.472-1.474,1.214c-0.127,0.652-0.091,1.75-0.022,3.321h-2.499
		c0.062-1.75,0.101-3.513-0.032-6.374h2.402L105.61,501.293z"/>
	<path fill="#231F20" d="M110.066,500.844c1.012-0.229,2.046-0.395,3.042-0.395c2.051,0,2.756,0.678,2.804,1.738
		c0.014,0.32-0.065,3.513-0.007,4.79h-2.491c0.063-0.947,0.056-1.905,0.067-2.849c-0.466,0.332-1.953,0.383-1.921,1.135
		c0.017,0.397,0.389,0.512,0.736,0.512c0.235,0,0.466-0.039,0.685-0.115l-0.365,1.392c-0.347,0.051-0.686,0.075-1.036,0.075
		c-2.373,0-2.474-1.686-2.481-1.825c-0.123-2.695,4.336-1.864,4.288-2.987c-0.022-0.421-0.478-0.512-0.828-0.512
		c-0.909,0-1.856,0.294-2.684,0.601L110.066,500.844z"/>
	<path fill="#231F20" d="M120.401,501.421l0.031-0.026c0.431-0.664,1.135-0.947,2.003-0.947c0.832,0,1.553,0.245,1.977,1.01
		c0.459-0.765,1.2-1.01,2.082-1.01c1.156,0,2.149,0.474,2.207,1.724c0.012,0.334-0.058,2.758-0.021,4.804h-2.511
		c0.026-0.563,0.07-3.027,0.038-3.705c-0.022-0.461-0.12-0.957-0.69-0.957c-0.637,0-0.828,0.652-0.883,1.161
		c-0.13,1.151-0.012,2.339-0.021,3.501h-2.534c0.055-0.832,0.077-3.513,0.067-3.754c-0.022-0.449-0.158-0.907-0.702-0.907
		c-0.678,0-0.824,0.728-0.877,1.263c-0.122,1.111-0.029,2.274-0.015,3.398h-2.53c0.033-2.121,0.069-4.239-0.003-6.374h2.386
		L120.401,501.421z"/>
	<path d="M75.884,446.262c0-6.514,2.924-12.338,7.519-16.262H65.742v40.758c2.056-2.345,4.828-3.64,7.717-3.658l6.38-8.476
		C77.359,455.133,75.884,450.877,75.884,446.262z"/>
	<path d="M90.216,466.336l-6.646,8.666c0.551,3.054,0.164,5.963-1.815,8.55c-3.426,4.46-9.847,5.386-14.305,1.952
		c-0.479-0.36-1.044-0.822-1.448-1.257v9.06h23.423c-1.388-1.772-2.284-4.042-2.284-6.435c0-3.311,1.548-6.232,4.009-8.135v-12.068
		C90.834,466.574,90.531,466.444,90.216,466.336z"/>
	<path d="M118.909,446.262c0-6.514-2.924-12.338-7.522-16.262h17.662v40.758c-2.056-2.345-4.826-3.64-7.719-3.658l-6.375-8.476
		C117.433,455.133,118.909,450.877,118.909,446.262z"/>
	<path d="M104.576,466.336l6.646,8.666c-0.551,3.054-0.164,5.963,1.813,8.55c3.426,4.46,9.849,5.386,14.307,1.952
		c0.479-0.36,1.043-0.822,1.448-1.257v9.06h-23.423c1.39-1.772,2.284-4.042,2.284-6.435c0-3.311-1.548-6.232-4.009-8.135v-12.068
		C103.958,466.574,104.261,466.444,104.576,466.336z"/>
	<path fill="#C9252C" d="M90.603,446.262c0,3.756,3.044,6.791,6.791,6.791c3.747,0,6.795-3.035,6.795-6.791
		c0-3.747-3.047-6.788-6.795-6.788C93.647,439.474,90.603,442.514,90.603,446.262z"/>
	<circle fill="#CFB82C" cx="97.394" cy="486.872" r="5.984"/>
	<path fill="#6992B6" d="M68.824,473.722c-2.007,2.613-1.51,6.365,1.104,8.382c2.633,2.003,6.377,1.522,8.384-1.111
		c2.013-2.616,1.52-6.368-1.102-8.38C74.596,470.603,70.837,471.092,68.824,473.722z"/>
	<path fill="#8EA466" d="M116.474,473.722c-2.012,2.613-1.518,6.365,1.096,8.382c2.626,2.003,6.381,1.522,8.396-1.111
		c2.006-2.616,1.52-6.368-1.102-8.38C122.24,470.603,118.481,471.092,116.474,473.722z"/>
	<path fill="none" d="M97.386,435.218c-6.093,0-11.045,4.954-11.045,11.044c0,6.094,4.953,11.052,11.045,11.052
		c6.095,0,11.051-4.958,11.051-11.052C108.436,440.173,103.48,435.218,97.386,435.218z"/>
	<path d="M117.032,468.011l-8.043-10.441c2.849-2.924,4.615-6.909,4.615-11.308c0-8.938-7.276-16.211-16.219-16.211
		c-8.94,0-16.216,7.273-16.216,16.211c0,4.401,1.767,8.392,4.622,11.316l-8.012,10.434c0.702,0.32,1.383,0.717,2.02,1.209
		c0.625,0.479,1.171,1.02,1.657,1.601l8.002-10.424c1.707,0.962,3.599,1.611,5.612,1.9v14.615c0.743-0.171,1.517-0.272,2.311-0.272
		c0.798,0,1.568,0.101,2.316,0.274v-14.617c2.015-0.289,3.919-0.942,5.624-1.904l8.032,10.428
		C114.386,469.582,115.646,468.634,117.032,468.011z M97.386,457.314c-6.093,0-11.045-4.958-11.045-11.052
		c0-6.089,4.953-11.044,11.045-11.044c6.095,0,11.051,4.954,11.051,11.044C108.436,452.356,103.48,457.314,97.386,457.314z"/>
</g>
<text transform="matrix(1 0 0 1 47.2843 420.0002)" fill="#231F20" stroke="#231F20" stroke-width="0.168" stroke-miterlimit="10" font-family="'MyriadPro-Light'" font-size="12.3445px">System Mapping by:</text>
<a xlink:href="http://www.tellusmater.org.uk"  target="_blank">
	<rect x="6" y="204" opacity="0" fill="#FFFFFF" width="189" height="56"/>
</a>
<a xlink:href="http://www.idiagram.com"  target="_blank">
	<rect x="45" y="411" opacity="0" fill="#FFFFFF" width="100" height="100"/>
</a>
</svg>
