<?xml version="1.0" encoding="iso-8859-1"?>
<!-- Generator: Adobe Illustrator 20.0.0, SVG Export Plug-In . SVG Version: 6.00 Build 0)  -->
<!DOCTYPE svg PUBLIC "-//W3C//DTD SVG 1.1//EN" "http://www.w3.org/Graphics/SVG/1.1/DTD/svg11.dtd">
<svg version="1.1" xmlns="http://www.w3.org/2000/svg" xmlns:xlink="http://www.w3.org/1999/xlink" x="0px" y="0px"
	 viewBox="0 0 141.4 91.4" style="enable-background:new 0 0 141.4 91.4;" xml:space="preserve">
<g id="arrows">
	<g>
		<path style="fill:#FFFFFF;" d="M90.7,35.7c0,2.75-2.25,5-5,5h-30c-2.75,0-5-2.25-5-5v-30c0-2.75,2.25-5,5-5h30c2.75,0,5,2.25,5,5
			V35.7z"/>
		<path style="fill:none;stroke:#010101;stroke-width:1.4;stroke-miterlimit:10;" d="M90.7,35.7c0,2.75-2.25,5-5,5h-30
			c-2.75,0-5-2.25-5-5v-30c0-2.75,2.25-5,5-5h30c2.75,0,5,2.25,5,5V35.7z"/>
	</g>
	<polygon style="fill:#010101;" points="78.2,28.2 63.2,28.2 70.7,13.2 	"/>
	<g>
		<path style="fill:#FFFFFF;" d="M90.7,55.7c0-2.75-2.25-5-5-5h-30c-2.75,0-5,2.25-5,5v30c0,2.75,2.25,5,5,5h30c2.75,0,5-2.25,5-5
			V55.7z"/>
		<path style="fill:none;stroke:#010101;stroke-width:1.4;stroke-miterlimit:10;" d="M90.7,55.7c0-2.75-2.25-5-5-5h-30
			c-2.75,0-5,2.25-5,5v30c0,2.75,2.25,5,5,5h30c2.75,0,5-2.25,5-5V55.7z"/>
	</g>
	<polygon style="fill:#010101;" points="78.2,63.2 63.2,63.2 70.7,78.2 	"/>
	<g>
		<path style="fill:#FFFFFF;" d="M105.7,90.7c-2.75,0-5-2.25-5-5v-30c0-2.75,2.25-5,5-5h30c2.75,0,5,2.25,5,5v30c0,2.75-2.25,5-5,5
			H105.7z"/>
		<path style="fill:none;stroke:#010101;stroke-width:1.4;stroke-miterlimit:10;" d="M105.7,90.7c-2.75,0-5-2.25-5-5v-30
			c0-2.75,2.25-5,5-5h30c2.75,0,5,2.25,5,5v30c0,2.75-2.25,5-5,5H105.7z"/>
	</g>
	<polygon style="fill:#010101;" points="113.2,78.2 113.2,63.2 128.2,70.7 	"/>
	<g>
		<path style="fill:#FFFFFF;" d="M35.7,90.7c2.75,0,5-2.25,5-5v-30c0-2.75-2.25-5-5-5h-30c-2.75,0-5,2.25-5,5v30c0,2.75,2.25,5,5,5
			H35.7z"/>
		<path style="fill:none;stroke:#010101;stroke-width:1.4;stroke-miterlimit:10;" d="M35.7,90.7c2.75,0,5-2.25,5-5v-30
			c0-2.75-2.25-5-5-5h-30c-2.75,0-5,2.25-5,5v30c0,2.75,2.25,5,5,5H35.7z"/>
	</g>
	<polygon style="fill:#010101;" points="28.2,78.2 28.2,63.2 13.2,70.7 	"/>
</g>
<g id="Layer_1">
</g>
</svg>
