<?xml version="1.0" encoding="iso-8859-1"?>
<!-- Generator: Adobe Illustrator 20.1.0, SVG Export Plug-In . SVG Version: 6.00 Build 0)  -->
<!DOCTYPE svg PUBLIC "-//W3C//DTD SVG 1.1//EN" "http://www.w3.org/Graphics/SVG/1.1/DTD/svg11.dtd">
<svg version="1.1" id="Layer_1" xmlns="http://www.w3.org/2000/svg" xmlns:xlink="http://www.w3.org/1999/xlink" x="0px" y="0px"
	 viewBox="0 0 102.734 65.291" style="enable-background:new 0 0 102.734 65.291;" xml:space="preserve">
<g id="Aviva_2_">
	<defs>
		<rect id="SVGID_2_" width="102.734" height="65.291"/>
	</defs>
	<clipPath id="SVGID_1_">
		<use xlink:href="#SVGID_2_"  style="overflow:visible;"/>
	</clipPath>
	<path style="clip-path:url(#SVGID_1_);fill:#FFDD0F;" d="M58.557,32.54L55.392,0.004h-0.001L52.187,33.08
		C54.265,32.852,56.39,32.671,58.557,32.54"/>
	<path style="clip-path:url(#SVGID_1_);fill:#61BB56;" d="M66.28,32.301L66.29,0.005L55.393,0.001v0.004l3.164,32.535
		C61.076,32.387,63.655,32.305,66.28,32.301"/>
	<path style="clip-path:url(#SVGID_1_);fill:#0059A3;" d="M52.187,33.08l3.205-33.075V0.001L26.91,0.005l0.016,39.274
		C33.615,36.348,42.328,34.167,52.187,33.08"/>
	<path style="clip-path:url(#SVGID_1_);fill:#0059A3;" d="M43.177,47.811c0.391,0.07,1.798,0.48,1.798,1.479v16.001h4.757v-18.05
		h-6.554V47.811z"/>
	<path style="clip-path:url(#SVGID_1_);fill:#0059A3;" d="M5.774,47.242v0.569c0.577,0.12,1.826,0.469,1.32,1.595L0,65.291h3.748
		l2.222-4.951h7.856l1.942,4.951h4.929l-7.04-18.049H5.774z M6.976,58.096l3.188-7.101l2.783,7.101H6.976z"/>
	<path style="clip-path:url(#SVGID_1_);fill:#0059A3;" d="M78.702,47.242v0.569c0.574,0.12,1.826,0.469,1.317,1.595l-7.091,15.885
		h3.748l2.218-4.951h7.857l1.943,4.951h4.931l-7.044-18.049H78.702z M79.903,58.096l3.185-7.101l2.785,7.101H79.903z"/>
	<path style="clip-path:url(#SVGID_1_);fill:#0059A3;" d="M66.048,65.291l7.522-18.05h-3.558l-5.515,13.235l-5.25-13.235h-6.684
		v0.57c0.772,0.147,1.64,0.48,2.035,1.479l6.345,16.001H66.048z"/>
	<path style="clip-path:url(#SVGID_1_);fill:#0059A3;" d="M33.078,65.291l7.523-18.05h-3.56l-5.514,13.235l-5.251-13.235h-6.683
		v0.57c0.774,0.147,1.638,0.48,2.035,1.479l6.341,16.001H33.078z"/>
</g>
</svg>
