<?xml version="1.0" encoding="iso-8859-1"?>
<!-- Generator: Adobe Illustrator 20.1.0, SVG Export Plug-In . SVG Version: 6.00 Build 0)  -->
<!DOCTYPE svg PUBLIC "-//W3C//DTD SVG 1.1//EN" "http://www.w3.org/Graphics/SVG/1.1/DTD/svg11.dtd">
<svg version="1.1" xmlns="http://www.w3.org/2000/svg" xmlns:xlink="http://www.w3.org/1999/xlink" x="0px" y="0px"
	 viewBox="0 0 80 40" style="enable-background:new 0 0 80 40;" xml:space="preserve">
<g id="Click">
	<g>
		<path style="fill:#FFFFFF;" d="M80,35c0,2.75-2.25,5-5,5H5c-2.75,0-5-2.25-5-5V5c0-2.75,2.25-5,5-5h70c2.75,0,5,2.25,5,5V35z"/>
	</g>
	<g>
		<path style="fill:#010101;" d="M12.433,27.908c-0.695,0.36-2.231,0.721-4.176,0.721C3.12,28.629,0,25.412,0,20.492
			c0-5.329,3.696-8.545,8.641-8.545c1.944,0,3.336,0.408,3.937,0.72l-0.648,2.353c-0.768-0.336-1.824-0.624-3.168-0.624
			c-3.288,0-5.665,2.064-5.665,5.952c0,3.553,2.089,5.833,5.641,5.833c1.2,0,2.448-0.24,3.217-0.601L12.433,27.908z"/>
		<path style="fill:#010101;" d="M15.359,11.348h2.977v17.041h-2.977V11.348z"/>
		<path style="fill:#010101;" d="M25.271,13.436c0,0.888-0.648,1.584-1.681,1.584c-0.983,0-1.632-0.696-1.632-1.584
			c0-0.912,0.672-1.608,1.656-1.608C24.623,11.827,25.247,12.523,25.271,13.436z M22.127,28.389V16.699h2.977v11.689H22.127z"/>
		<path style="fill:#010101;" d="M37.464,28.028c-0.624,0.288-1.848,0.601-3.312,0.601c-3.648,0-6.024-2.328-6.024-5.953
			c0-3.504,2.4-6.24,6.505-6.24c1.08,0,2.185,0.24,2.856,0.552l-0.528,2.209c-0.48-0.217-1.176-0.456-2.232-0.456
			c-2.256,0-3.601,1.655-3.576,3.792c0,2.4,1.561,3.769,3.576,3.769c1.032,0,1.752-0.217,2.328-0.456L37.464,28.028z"/>
		<path style="fill:#010101;" d="M43.199,21.836h0.048c0.288-0.456,0.624-0.96,0.937-1.368l2.832-3.769h3.553l-4.32,4.777
			l4.944,6.912h-3.625l-3.359-5.16l-1.009,1.176v3.984h-2.952V11.348h2.952V21.836z"/>
	</g>
</g>
<g id="Layer_1">
</g>
</svg>
