<?xml version="1.0" encoding="utf-8"?>
<!-- Generator: Adobe Illustrator 21.0.2, SVG Export Plug-In . SVG Version: 6.00 Build 0)  -->
<!DOCTYPE svg PUBLIC "-//W3C//DTD SVG 1.1//EN" "http://www.w3.org/Graphics/SVG/1.1/DTD/svg11.dtd">
<svg version="1.1" id="Layer_1" xmlns="http://www.w3.org/2000/svg" xmlns:xlink="http://www.w3.org/1999/xlink" x="0px" y="0px"
	 viewBox="0 0 41.4 41.4" style="enable-background:new 0 0 41.4 41.4;" xml:space="preserve">
<style type="text/css">
	.st0{fill:#FFFFFF;}
	.st1{fill:none;stroke:#010101;stroke-width:1.4;stroke-miterlimit:10;}
	.st2{fill:#010101;}
</style>
<g id="panes">
	<g>
		<path class="st0" d="M40.7,35.7c0,2.8-2.2,5-5,5h-30c-2.7,0-5-2.2-5-5v-30c0-2.7,2.2-5,5-5h30c2.8,0,5,2.2,5,5V35.7z"/>
		<path class="st1" d="M40.7,35.7c0,2.8-2.2,5-5,5h-30c-2.7,0-5-2.2-5-5v-30c0-2.7,2.2-5,5-5h30c2.8,0,5,2.2,5,5V35.7z"/>
	</g>
	<g>
		<path class="st2" d="M18.6,23c0.1,1.5,1.6,2.2,3.3,2.2c1.2,0,2.3-0.2,3.2-0.5l0.5,2.5c-1.2,0.5-2.7,0.7-4.2,0.7
			c-4,0-6.3-2.3-6.3-6c0-3,1.8-6.3,5.9-6.3c3.8,0,5.2,3,5.2,5.9c0,0.6-0.1,1.2-0.1,1.4L18.6,23L18.6,23z M22.9,20.5
			c0-0.9-0.4-2.4-2.1-2.4c-1.5,0-2.2,1.4-2.3,2.4H22.9z"/>
	</g>
</g>
<g id="Layer_1_1_">
</g>
</svg>
