<?xml version="1.0" encoding="iso-8859-1"?>
<!-- Generator: Adobe Illustrator 20.0.0, SVG Export Plug-In . SVG Version: 6.00 Build 0)  -->
<!DOCTYPE svg PUBLIC "-//W3C//DTD SVG 1.1//EN" "http://www.w3.org/Graphics/SVG/1.1/DTD/svg11.dtd">
<svg version="1.1" xmlns="http://www.w3.org/2000/svg" xmlns:xlink="http://www.w3.org/1999/xlink" x="0px" y="0px"
	 viewBox="0 0 121.885 41.4" style="enable-background:new 0 0 121.885 41.4;" xml:space="preserve">
<g id="g-click">
	<g>
		<path style="fill:#FFFFFF;" d="M40.7,35.7c0,2.75-2.25,5-5,5h-30c-2.75,0-5-2.25-5-5v-30c0-2.75,2.25-5,5-5h30c2.75,0,5,2.25,5,5
			V35.7z"/>
		<path style="fill:none;stroke:#010101;stroke-width:1.4;stroke-miterlimit:10;" d="M40.7,35.7c0,2.75-2.25,5-5,5h-30
			c-2.75,0-5-2.25-5-5v-30c0-2.75,2.25-5,5-5h30c2.75,0,5,2.25,5,5V35.7z"/>
	</g>
	<g>
		<path style="fill:#010101;" d="M26.353,13.963c-0.048,0.744-0.096,1.729-0.096,3.48v6.553c0,2.256-0.456,4.104-1.776,5.28
			c-1.296,1.104-3.048,1.44-4.776,1.44c-1.536,0-3.168-0.312-4.225-0.912l0.721-2.761c0.744,0.433,2.04,0.889,3.408,0.889
			c1.728,0,3.048-0.937,3.048-3.097v-0.768h-0.048c-0.696,0.983-1.824,1.536-3.168,1.536c-2.904,0-4.969-2.353-4.969-5.736
			c0-3.769,2.448-6.169,5.328-6.169c1.608,0,2.616,0.696,3.217,1.656h0.048l0.12-1.393H26.353z M22.609,18.739
			c0-0.239-0.024-0.479-0.072-0.672c-0.264-0.96-0.96-1.608-1.968-1.608c-1.32,0-2.4,1.2-2.4,3.337c0,1.752,0.864,3.12,2.4,3.12
			c0.936,0,1.68-0.624,1.92-1.488c0.096-0.264,0.12-0.648,0.12-0.96V18.739z"/>
	</g>
	<g>
		<path style="fill:#010101;" d="M56.877,14.931v5.232h5.016v2.257h-5.016v5.28h-2.353v-5.28h-5.017v-2.257h5.017v-5.232H56.877z"/>
	</g>
	<g>
		<path style="fill:#010101;" d="M83.125,27.22c-0.695,0.36-2.231,0.721-4.176,0.721c-5.137,0-8.257-3.217-8.257-8.137
			c0-5.329,3.696-8.545,8.641-8.545c1.944,0,3.336,0.408,3.937,0.72l-0.648,2.353c-0.768-0.336-1.824-0.624-3.168-0.624
			c-3.288,0-5.665,2.064-5.665,5.952c0,3.553,2.089,5.833,5.641,5.833c1.2,0,2.448-0.24,3.217-0.601L83.125,27.22z"/>
		<path style="fill:#010101;" d="M86.053,10.659h2.977V27.7h-2.977V10.659z"/>
		<path style="fill:#010101;" d="M95.965,12.747c0,0.888-0.648,1.584-1.681,1.584c-0.983,0-1.632-0.696-1.632-1.584
			c0-0.912,0.672-1.608,1.656-1.608C95.316,11.139,95.94,11.835,95.965,12.747z M92.82,27.7V16.011h2.977V27.7H92.82z"/>
		<path style="fill:#010101;" d="M108.156,27.34c-0.624,0.288-1.848,0.601-3.312,0.601c-3.648,0-6.024-2.328-6.024-5.953
			c0-3.504,2.4-6.24,6.505-6.24c1.08,0,2.185,0.24,2.856,0.552l-0.528,2.209c-0.48-0.217-1.176-0.456-2.232-0.456
			c-2.256,0-3.601,1.655-3.576,3.792c0,2.4,1.561,3.769,3.576,3.769c1.032,0,1.752-0.217,2.328-0.456L108.156,27.34z"/>
		<path style="fill:#010101;" d="M113.891,21.148h0.048c0.288-0.456,0.624-0.96,0.937-1.368l2.832-3.769h3.553l-4.32,4.777
			l4.944,6.912h-3.625l-3.359-5.16l-1.009,1.176V27.7h-2.952V10.659h2.952V21.148z"/>
	</g>
</g>
<g id="Layer_1">
</g>
</svg>
