<?xml version="1.0" encoding="iso-8859-1"?>
<!-- Generator: Adobe Illustrator 20.0.0, SVG Export Plug-In . SVG Version: 6.00 Build 0)  -->
<!DOCTYPE svg PUBLIC "-//W3C//DTD SVG 1.1//EN" "http://www.w3.org/Graphics/SVG/1.1/DTD/svg11.dtd">
<svg version="1.1" xmlns="http://www.w3.org/2000/svg" xmlns:xlink="http://www.w3.org/1999/xlink" x="0px" y="0px"
	 viewBox="0 0 41.4 41.4" style="enable-background:new 0 0 41.4 41.4;" xml:space="preserve">
<g id="help">
	<g>
		<path style="fill:#FFFFFF;" d="M40.7,35.7c0,2.75-2.25,5-5,5h-30c-2.75,0-5-2.25-5-5v-30c0-2.75,2.25-5,5-5h30c2.75,0,5,2.25,5,5
			V35.7z"/>
		<path style="fill:none;stroke:#010101;stroke-width:1.4;stroke-miterlimit:10;" d="M40.7,35.7c0,2.75-2.25,5-5,5h-30
			c-2.75,0-5-2.25-5-5v-30c0-2.75,2.25-5,5-5h30c2.75,0,5,2.25,5,5V35.7z"/>
	</g>
	<g>
		<path style="fill:#010101;" d="M15.132,10.659h3.648v6.696h0.048c0.385-0.504,0.864-0.889,1.44-1.2
			c0.528-0.288,1.224-0.456,1.896-0.456c2.328,0,4.104,1.608,4.104,5.137V27.7h-3.648v-6.457c0-1.536-0.528-2.592-1.896-2.592
			c-0.96,0-1.561,0.624-1.824,1.272c-0.096,0.239-0.12,0.552-0.12,0.815V27.7h-3.648V10.659z"/>
	</g>
</g>
<g id="Layer_1">
</g>
</svg>
