<?xml version="1.0" encoding="iso-8859-1"?>
<!-- Generator: Adobe Illustrator 20.1.0, SVG Export Plug-In . SVG Version: 6.00 Build 0)  -->
<!DOCTYPE svg PUBLIC "-//W3C//DTD SVG 1.1//EN" "http://www.w3.org/Graphics/SVG/1.1/DTD/svg11.dtd">
<svg version="1.1" xmlns="http://www.w3.org/2000/svg" xmlns:xlink="http://www.w3.org/1999/xlink" x="0px" y="0px"
	 viewBox="0 0 80 40" style="enable-background:new 0 0 80 40;" xml:space="preserve">
<g id="Hover">
	<g>
		<path style="fill:#FFFFFF;" d="M80,35c0,2.75-2.25,5-5,5H5c-2.75,0-5-2.25-5-5V5c0-2.75,2.25-5,5-5h70c2.75,0,5,2.25,5,5V35z"/>
	</g>
	<g>
		<path style="fill:#010101;" d="M4.656,12.211v6.48h6.841v-6.48h2.952v16.178h-2.952V21.26H4.656v7.129H1.704V12.211H4.656z"/>
		<path style="fill:#010101;" d="M29.425,22.437c0,4.296-3.024,6.216-6.001,6.216c-3.312,0-5.856-2.28-5.856-6.024
			c0-3.84,2.521-6.192,6.049-6.192C27.097,16.436,29.425,18.884,29.425,22.437z M20.616,22.557c0,2.256,1.104,3.96,2.904,3.96
			c1.68,0,2.855-1.656,2.855-4.009c0-1.824-0.815-3.912-2.832-3.912C21.456,18.596,20.616,20.612,20.616,22.557z"/>
		<path style="fill:#010101;" d="M34.128,16.699l1.896,5.929c0.336,1.032,0.576,1.969,0.792,2.929h0.072
			c0.216-0.96,0.479-1.872,0.792-2.929l1.848-5.929h3.12l-4.464,11.689H35.28l-4.345-11.689H34.128z"/>
		<path style="fill:#010101;" d="M46.824,23.372c0.072,2.112,1.729,3.024,3.601,3.024c1.368,0,2.353-0.192,3.24-0.528l0.433,2.04
			c-1.009,0.408-2.4,0.721-4.081,0.721c-3.792,0-6.024-2.328-6.024-5.904c0-3.24,1.969-6.289,5.713-6.289
			c3.792,0,5.04,3.12,5.04,5.688c0,0.552-0.048,0.984-0.096,1.248H46.824z M51.961,21.308c0.024-1.08-0.456-2.855-2.424-2.855
			c-1.824,0-2.593,1.656-2.713,2.855H51.961z"/>
		<path style="fill:#010101;" d="M57.72,20.468c0-1.584-0.023-2.712-0.096-3.769h2.568l0.096,2.232h0.096
			c0.576-1.656,1.944-2.496,3.192-2.496c0.288,0,0.456,0.024,0.696,0.072v2.784c-0.24-0.048-0.504-0.096-0.864-0.096
			c-1.416,0-2.376,0.912-2.64,2.231c-0.049,0.265-0.097,0.576-0.097,0.912v6.049H57.72V20.468z"/>
	</g>
</g>
<g id="Layer_1">
</g>
</svg>
