<?xml version="1.0" encoding="iso-8859-1"?>
<!-- Generator: Adobe Illustrator 20.1.0, SVG Export Plug-In . SVG Version: 6.00 Build 0)  -->
<!DOCTYPE svg PUBLIC "-//W3C//DTD SVG 1.1//EN" "http://www.w3.org/Graphics/SVG/1.1/DTD/svg11.dtd">
<svg version="1.1" id="Layer_1" xmlns="http://www.w3.org/2000/svg" xmlns:xlink="http://www.w3.org/1999/xlink" x="0px" y="0px"
	 viewBox="0 0 60.141 76" style="enable-background:new 0 0 60.141 76;" xml:space="preserve">
<g>
	<rect style="fill:#FFFFFF;" width="59.893" height="60.14"/>
	<g>
		<g>
			<path style="fill:#231F20;" d="M0.342,73.125c0.051-2.39,0.142-4.791-0.008-8.091h2.675c-0.102,2.696-0.078,5.399,0.03,8.091
				H0.342z"/>
			<path style="fill:#231F20;" d="M9.734,72.385H9.711c-0.529,0.597-1.205,0.885-2.069,0.885c-1.626,0-2.666-1.237-2.737-2.766
				c-0.076-1.746,0.814-3.577,3.538-3.577c0.404,0,0.801,0.036,1.197,0.083c0.008-0.653-0.009-1.308-0.026-1.976h2.426
				c-0.042,1.263-0.098,2.45-0.115,3.738c-0.026,1.297-0.038,2.656,0.038,4.353H9.73L9.734,72.385z M9.005,68.515
				c-1.242,0-1.807,0.899-1.763,1.858c0.028,0.657,0.412,1.25,1.15,1.25c1.335,0,1.261-1.894,1.221-3.036
				C9.413,68.541,9.216,68.515,9.005,68.515z"/>
			<path style="fill:#231F20;" d="M14.095,73.125c0.124-1.831,0.13-3.64,0.045-6.052h2.466c-0.119,2.013-0.042,4.04,0.051,6.052
				H14.095z M14.168,66.321l-0.04-1.433h2.388l0.006,1.433H14.168z"/>
			<path style="fill:#231F20;" d="M19.186,67.303c0.967-0.219,1.946-0.376,2.894-0.376c1.948,0,2.615,0.644,2.662,1.648
				c0.015,0.306-0.057,3.338-0.004,4.55h-2.365c0.059-0.897,0.055-1.807,0.062-2.703c-0.444,0.313-1.856,0.362-1.825,1.08
				c0.019,0.374,0.368,0.483,0.702,0.483c0.221,0,0.443-0.036,0.645-0.11l-0.344,1.323c-0.332,0.049-0.651,0.072-0.984,0.072
				c-2.254,0-2.352-1.601-2.36-1.735c-0.113-2.558,4.123-1.769,4.076-2.839c-0.019-0.398-0.455-0.483-0.787-0.483
				c-0.861,0-1.76,0.279-2.549,0.57L19.186,67.303z"/>
			<path style="fill:#231F20;" d="M27.26,73.878c0.787,0.266,1.612,0.472,2.437,0.472c1.395,0,1.49-0.861,1.452-1.988
				c-0.566,0.559-1.182,0.823-2.009,0.823c-1.59,0-2.617-1.189-2.685-2.692c-0.093-2.05,1.204-3.566,4.064-3.566
				c1.008,0,2.016,0.145,3.011,0.327c-0.092,2.099-0.083,4.187-0.032,6.405C33.528,75.092,32.756,76,30.587,76
				c-1.048,0-2.116-0.145-3.147-0.387L27.26,73.878z M30.5,68.662c-1.057,0-1.756,0.642-1.71,1.699
				c0.03,0.604,0.412,1.174,1.091,1.174c1.367,0,1.312-1.744,1.289-2.813C30.945,68.687,30.723,68.662,30.5,68.662z"/>
			<path style="fill:#231F20;" d="M37.876,67.729l0.025-0.026c0.374-0.438,0.9-0.776,1.505-0.776c0.16,0,0.334,0.013,0.497,0.061
				l0.162,1.954c-0.211-0.06-0.436-0.121-0.648-0.121c-0.738,0-1.261,0.448-1.403,1.152c-0.117,0.619-0.083,1.661-0.017,3.153
				h-2.379c0.062-1.661,0.098-3.334-0.026-6.052h2.281L37.876,67.729z"/>
			<path style="fill:#231F20;" d="M42.108,67.303c0.961-0.219,1.941-0.376,2.89-0.376c1.946,0,2.616,0.644,2.662,1.648
				c0.013,0.306-0.058,3.338-0.004,4.55h-2.365c0.058-0.897,0.053-1.807,0.06-2.703c-0.44,0.313-1.854,0.362-1.822,1.08
				c0.015,0.374,0.368,0.483,0.698,0.483c0.225,0,0.44-0.036,0.65-0.11l-0.347,1.323c-0.33,0.049-0.649,0.072-0.984,0.072
				c-2.254,0-2.352-1.601-2.356-1.735c-0.115-2.558,4.121-1.769,4.072-2.839c-0.019-0.398-0.453-0.483-0.785-0.483
				c-0.863,0-1.761,0.279-2.549,0.57L42.108,67.303z"/>
			<path style="fill:#231F20;" d="M51.928,67.85l0.025-0.026c0.413-0.631,1.08-0.897,1.905-0.897c0.787,0,1.476,0.23,1.88,0.959
				c0.432-0.729,1.138-0.959,1.976-0.959c1.097,0,2.041,0.448,2.096,1.637c0.013,0.317-0.055,2.62-0.017,4.561h-2.39
				c0.025-0.532,0.064-2.873,0.04-3.517c-0.023-0.436-0.115-0.912-0.657-0.912c-0.604,0-0.785,0.623-0.838,1.106
				c-0.126,1.091-0.011,2.22-0.023,3.323h-2.403c0.051-0.787,0.072-3.334,0.06-3.564c-0.019-0.427-0.149-0.865-0.666-0.865
				c-0.644,0-0.782,0.695-0.835,1.203c-0.109,1.055-0.024,2.158-0.011,3.226h-2.407c0.034-2.012,0.068-4.027-0.002-6.052h2.269
				L51.928,67.85z"/>
		</g>
		<g>
			<path style="fill:#231F20;" d="M0.342,73.125c0.051-2.39,0.142-4.791-0.008-8.091h2.675c-0.102,2.696-0.078,5.399,0.03,8.091
				H0.342z"/>
			<path style="fill:#231F20;" d="M9.734,72.385H9.711c-0.529,0.597-1.205,0.885-2.069,0.885c-1.626,0-2.666-1.237-2.737-2.766
				c-0.076-1.746,0.814-3.577,3.538-3.577c0.404,0,0.801,0.036,1.197,0.083c0.008-0.653-0.009-1.308-0.026-1.976h2.426
				c-0.042,1.263-0.098,2.45-0.115,3.738c-0.026,1.297-0.038,2.656,0.038,4.353H9.73L9.734,72.385z M9.005,68.515
				c-1.242,0-1.807,0.899-1.763,1.858c0.028,0.657,0.412,1.25,1.15,1.25c1.335,0,1.261-1.894,1.221-3.036
				C9.413,68.541,9.216,68.515,9.005,68.515z"/>
			<path style="fill:#231F20;" d="M14.095,73.125c0.124-1.831,0.13-3.64,0.045-6.052h2.466c-0.119,2.013-0.042,4.04,0.051,6.052
				H14.095z M14.168,66.321l-0.04-1.433h2.388l0.006,1.433H14.168z"/>
			<path style="fill:#231F20;" d="M19.186,67.303c0.967-0.219,1.946-0.376,2.894-0.376c1.948,0,2.615,0.644,2.662,1.648
				c0.015,0.306-0.057,3.338-0.004,4.55h-2.365c0.059-0.897,0.055-1.807,0.062-2.703c-0.444,0.313-1.856,0.362-1.825,1.08
				c0.019,0.374,0.368,0.483,0.702,0.483c0.221,0,0.443-0.036,0.645-0.11l-0.344,1.323c-0.332,0.049-0.651,0.072-0.984,0.072
				c-2.254,0-2.352-1.601-2.36-1.735c-0.113-2.558,4.123-1.769,4.076-2.839c-0.019-0.398-0.455-0.483-0.787-0.483
				c-0.861,0-1.76,0.279-2.549,0.57L19.186,67.303z"/>
			<path style="fill:#231F20;" d="M27.26,73.878c0.787,0.266,1.612,0.472,2.437,0.472c1.395,0,1.49-0.861,1.452-1.988
				c-0.566,0.559-1.182,0.823-2.009,0.823c-1.59,0-2.617-1.189-2.685-2.692c-0.093-2.05,1.204-3.566,4.064-3.566
				c1.008,0,2.016,0.145,3.011,0.327c-0.092,2.099-0.083,4.187-0.032,6.405C33.528,75.092,32.756,76,30.587,76
				c-1.048,0-2.116-0.145-3.147-0.387L27.26,73.878z M30.5,68.662c-1.057,0-1.756,0.642-1.71,1.699
				c0.03,0.604,0.412,1.174,1.091,1.174c1.367,0,1.312-1.744,1.289-2.813C30.945,68.687,30.723,68.662,30.5,68.662z"/>
			<path style="fill:#231F20;" d="M37.876,67.729l0.025-0.026c0.374-0.438,0.9-0.776,1.505-0.776c0.16,0,0.334,0.013,0.497,0.061
				l0.162,1.954c-0.211-0.06-0.436-0.121-0.648-0.121c-0.738,0-1.261,0.448-1.403,1.152c-0.117,0.619-0.083,1.661-0.017,3.153
				h-2.379c0.062-1.661,0.098-3.334-0.026-6.052h2.281L37.876,67.729z"/>
			<path style="fill:#231F20;" d="M42.108,67.303c0.961-0.219,1.941-0.376,2.89-0.376c1.946,0,2.616,0.644,2.662,1.648
				c0.013,0.306-0.058,3.338-0.004,4.55h-2.365c0.058-0.897,0.053-1.807,0.06-2.703c-0.44,0.313-1.854,0.362-1.822,1.08
				c0.015,0.374,0.368,0.483,0.698,0.483c0.225,0,0.44-0.036,0.65-0.11l-0.347,1.323c-0.33,0.049-0.649,0.072-0.984,0.072
				c-2.254,0-2.352-1.601-2.356-1.735c-0.115-2.558,4.121-1.769,4.072-2.839c-0.019-0.398-0.453-0.483-0.785-0.483
				c-0.863,0-1.761,0.279-2.549,0.57L42.108,67.303z"/>
			<path style="fill:#231F20;" d="M51.928,67.85l0.025-0.026c0.413-0.631,1.08-0.897,1.905-0.897c0.787,0,1.476,0.23,1.88,0.959
				c0.432-0.729,1.138-0.959,1.976-0.959c1.097,0,2.041,0.448,2.096,1.637c0.013,0.317-0.055,2.62-0.017,4.561h-2.39
				c0.025-0.532,0.064-2.873,0.04-3.517c-0.023-0.436-0.115-0.912-0.657-0.912c-0.604,0-0.785,0.623-0.838,1.106
				c-0.126,1.091-0.011,2.22-0.023,3.323h-2.403c0.051-0.787,0.072-3.334,0.06-3.564c-0.019-0.427-0.149-0.865-0.666-0.865
				c-0.644,0-0.782,0.695-0.835,1.203c-0.109,1.055-0.024,2.158-0.011,3.226h-2.407c0.034-2.012,0.068-4.027-0.002-6.052h2.269
				L51.928,67.85z"/>
		</g>
	</g>
	<g>
		<path d="M9.634,15.448c0-6.188,2.777-11.72,7.145-15.448H0v38.719c1.954-2.229,4.588-3.458,7.33-3.475l6.062-8.05
			C11.035,23.875,9.634,19.835,9.634,15.448z"/>
		<path d="M23.249,34.519l-6.313,8.235c0.525,2.9,0.16,5.663-1.724,8.121c-3.251,4.236-9.352,5.116-13.589,1.854
			c-0.457-0.342-0.993-0.782-1.374-1.193v8.605h22.248c-1.32-1.684-2.169-3.838-2.169-6.113c0-3.145,1.471-5.92,3.81-7.729V34.834
			C23.836,34.745,23.549,34.621,23.249,34.519z"/>
	</g>
	<g>
		<path d="M50.507,15.448c0-6.188-2.777-11.72-7.144-15.448h16.777v38.719c-1.954-2.229-4.584-3.458-7.33-3.475l-6.06-8.05
			C49.106,23.875,50.507,19.835,50.507,15.448z"/>
		<path d="M36.892,34.519l6.311,8.235c-0.525,2.9-0.157,5.663,1.727,8.121c3.251,4.236,9.352,5.116,13.589,1.854
			c0.455-0.342,0.993-0.782,1.374-1.193v8.605h-22.25c1.321-1.684,2.171-3.838,2.171-6.113c0-3.145-1.471-5.92-3.811-7.729V34.834
			C36.305,34.745,36.594,34.621,36.892,34.519z"/>
	</g>
	<circle style="fill:#C8252C;" cx="30.07" cy="15.449" r="6.451"/>
	<circle style="fill:#CEB72C;" cx="30.069" cy="54.029" r="5.685"/>
	<g>
		<path style="fill:#6991B5;" d="M2.928,41.534c-1.911,2.483-1.435,6.049,1.048,7.963c2.501,1.905,6.058,1.446,7.965-1.053
			c1.912-2.484,1.444-6.052-1.046-7.963C8.41,38.572,4.84,39.038,2.928,41.534z"/>
		<path style="fill:#8DA365;" d="M48.196,41.534c-1.914,2.483-1.442,6.049,1.042,7.963c2.494,1.905,6.06,1.446,7.974-1.053
			c1.905-2.484,1.444-6.052-1.049-7.963C53.675,38.572,50.101,39.038,48.196,41.534z"/>
	</g>
	<g>
		<path style="fill:none;" d="M30.062,4.957c-5.788,0-10.496,4.706-10.496,10.491c0,5.792,4.708,10.5,10.496,10.5
			c5.786,0,10.496-4.708,10.496-10.5C40.558,9.664,35.848,4.957,30.062,4.957z"/>
		<path d="M48.725,36.112l-7.638-9.92c2.707-2.777,4.384-6.564,4.384-10.744c0-8.491-6.915-15.401-15.408-15.401
			c-8.495,0-15.403,6.909-15.403,15.401c0,4.18,1.676,7.972,4.389,10.751l-7.612,9.913c0.666,0.306,1.314,0.68,1.922,1.148
			c0.593,0.457,1.114,0.97,1.571,1.522l7.604-9.904c1.622,0.914,3.419,1.529,5.329,1.805v13.883c0.708-0.162,1.44-0.257,2.196-0.257
			c0.759,0,1.491,0.095,2.201,0.261V30.683c1.916-0.276,3.717-0.895,5.343-1.808l7.631,9.907
			C46.21,37.603,47.407,36.703,48.725,36.112z M30.062,25.948c-5.788,0-10.496-4.708-10.496-10.5
			c0-5.784,4.708-10.491,10.496-10.491c5.786,0,10.496,4.706,10.496,10.491C40.558,21.24,35.848,25.948,30.062,25.948z"/>
	</g>
</g>
</svg>
