<?xml version="1.0" encoding="iso-8859-1"?>
<!-- Generator: Adobe Illustrator 20.0.0, SVG Export Plug-In . SVG Version: 6.00 Build 0)  -->
<!DOCTYPE svg PUBLIC "-//W3C//DTD SVG 1.1//EN" "http://www.w3.org/Graphics/SVG/1.1/DTD/svg11.dtd">
<svg version="1.1" xmlns="http://www.w3.org/2000/svg" xmlns:xlink="http://www.w3.org/1999/xlink" x="0px" y="0px"
	 viewBox="0 0 161.831 40" style="enable-background:new 0 0 161.831 40;" xml:space="preserve">
<g id="open">
	<g>
		<path style="fill:#FFFFFF;" d="M161.302,35c0,2.75-2.25,5-5,5H5c-2.75,0-5-2.25-5-5V5c0-2.75,2.25-5,5-5h151.302
			c2.75,0,5,2.25,5,5V35z"/>
	</g>
	<g>
		<path style="fill:#010101;" d="M4.656,12.211v6.48h6.841v-6.48h2.952v16.178h-2.952V21.26H4.656v7.129H1.704V12.211H4.656z"/>
		<path style="fill:#010101;" d="M29.425,22.437c0,4.296-3.024,6.216-6.001,6.216c-3.312,0-5.856-2.28-5.856-6.024
			c0-3.84,2.521-6.192,6.049-6.192C27.097,16.436,29.425,18.884,29.425,22.437z M20.616,22.557c0,2.256,1.104,3.96,2.904,3.96
			c1.68,0,2.855-1.656,2.855-4.009c0-1.824-0.815-3.912-2.832-3.912C21.456,18.596,20.616,20.612,20.616,22.557z"/>
		<path style="fill:#010101;" d="M34.128,16.699l1.896,5.929c0.336,1.032,0.576,1.969,0.792,2.929h0.072
			c0.216-0.96,0.479-1.872,0.792-2.929l1.848-5.929h3.12l-4.464,11.689H35.28l-4.345-11.689H34.128z"/>
		<path style="fill:#010101;" d="M46.824,23.372c0.072,2.112,1.729,3.024,3.601,3.024c1.368,0,2.353-0.192,3.24-0.528l0.433,2.04
			c-1.009,0.408-2.4,0.721-4.081,0.721c-3.792,0-6.024-2.328-6.024-5.904c0-3.24,1.969-6.289,5.713-6.289
			c3.792,0,5.04,3.12,5.04,5.688c0,0.552-0.048,0.984-0.096,1.248H46.824z M51.961,21.308c0.024-1.08-0.456-2.855-2.424-2.855
			c-1.824,0-2.593,1.656-2.713,2.855H51.961z"/>
		<path style="fill:#010101;" d="M57.72,20.468c0-1.584-0.023-2.712-0.096-3.769h2.568l0.096,2.232h0.096
			c0.576-1.656,1.944-2.496,3.192-2.496c0.288,0,0.456,0.024,0.696,0.072v2.784c-0.24-0.048-0.504-0.096-0.864-0.096
			c-1.416,0-2.376,0.912-2.64,2.231c-0.049,0.265-0.097,0.576-0.097,0.912v6.049H57.72V20.468z"/>
		<path style="fill:#010101;" d="M88.68,22.484c0,4.296-2.976,6.168-5.784,6.168c-3.145,0-5.568-2.304-5.568-5.977
			c0-3.888,2.544-6.168,5.761-6.168C86.424,16.508,88.68,18.932,88.68,22.484z M79.463,22.604c0,2.544,1.465,4.464,3.528,4.464
			c2.017,0,3.528-1.896,3.528-4.512c0-1.969-0.983-4.465-3.479-4.465C80.543,18.092,79.463,20.396,79.463,22.604z"/>
		<path style="fill:#010101;" d="M91.942,20.396c0-1.367-0.023-2.544-0.096-3.624h1.848l0.072,2.28h0.096
			c0.528-1.56,1.801-2.544,3.217-2.544c0.24,0,0.408,0.023,0.6,0.072v1.992c-0.216-0.049-0.432-0.072-0.72-0.072
			c-1.488,0-2.544,1.128-2.832,2.712c-0.048,0.288-0.096,0.624-0.096,0.984v6.192h-2.089V20.396z"/>
		<path style="fill:#010101;" d="M123.071,27.908c-0.695,0.36-2.231,0.721-4.176,0.721c-5.137,0-8.257-3.217-8.257-8.137
			c0-5.329,3.696-8.545,8.641-8.545c1.944,0,3.336,0.408,3.937,0.72l-0.648,2.353c-0.768-0.336-1.824-0.624-3.168-0.624
			c-3.288,0-5.665,2.064-5.665,5.952c0,3.553,2.089,5.833,5.641,5.833c1.2,0,2.448-0.24,3.217-0.601L123.071,27.908z"/>
		<path style="fill:#010101;" d="M125.998,11.348h2.977v17.041h-2.977V11.348z"/>
		<path style="fill:#010101;" d="M135.91,13.436c0,0.888-0.648,1.584-1.681,1.584c-0.983,0-1.632-0.696-1.632-1.584
			c0-0.912,0.672-1.608,1.656-1.608C135.262,11.827,135.886,12.523,135.91,13.436z M132.766,28.389V16.699h2.977v11.689H132.766z"/>
		<path style="fill:#010101;" d="M148.103,28.028c-0.624,0.288-1.848,0.601-3.312,0.601c-3.648,0-6.024-2.328-6.024-5.953
			c0-3.504,2.4-6.24,6.505-6.24c1.08,0,2.185,0.24,2.856,0.552l-0.528,2.209c-0.48-0.217-1.176-0.456-2.232-0.456
			c-2.256,0-3.601,1.655-3.576,3.792c0,2.4,1.561,3.769,3.576,3.769c1.032,0,1.752-0.217,2.328-0.456L148.103,28.028z"/>
		<path style="fill:#010101;" d="M153.838,21.836h0.048c0.288-0.456,0.624-0.96,0.937-1.368l2.832-3.769h3.553l-4.32,4.777
			l4.944,6.912h-3.625l-3.359-5.16l-1.009,1.176v3.984h-2.952V11.348h2.952V21.836z"/>
	</g>
</g>
<g id="Layer_1">
</g>
</svg>
