<?xml version="1.0" encoding="iso-8859-1"?>
<!-- Generator: Adobe Illustrator 20.0.0, SVG Export Plug-In . SVG Version: 6.00 Build 0)  -->
<!DOCTYPE svg PUBLIC "-//W3C//DTD SVG 1.1//EN" "http://www.w3.org/Graphics/SVG/1.1/DTD/svg11.dtd">
<svg version="1.1" xmlns="http://www.w3.org/2000/svg" xmlns:xlink="http://www.w3.org/1999/xlink" x="0px" y="0px"
	 viewBox="0 0 161.885 41.4" style="enable-background:new 0 0 161.885 41.4;" xml:space="preserve">
<g id="opt-click">
	<g>
		<path style="fill:#FFFFFF;" d="M80.7,35.7c0,2.75-2.25,5-5,5h-70c-2.75,0-5-2.25-5-5v-30c0-2.75,2.25-5,5-5h70c2.75,0,5,2.25,5,5
			V35.7z"/>
		<path style="fill:none;stroke:#010101;stroke-width:1.4;stroke-miterlimit:10;" d="M80.7,35.7c0,2.75-2.25,5-5,5h-70
			c-2.75,0-5-2.25-5-5v-30c0-2.75,2.25-5,5-5h70c2.75,0,5,2.25,5,5V35.7z"/>
	</g>
	<g>
		<path style="fill:#010101;" d="M18.694,21.748c0,4.296-3.024,6.216-6.001,6.216c-3.312,0-5.856-2.28-5.856-6.024
			c0-3.84,2.521-6.192,6.049-6.192C16.366,15.747,18.694,18.195,18.694,21.748z M9.886,21.868c0,2.256,1.104,3.96,2.904,3.96
			c1.68,0,2.855-1.656,2.855-4.009c0-1.824-0.815-3.912-2.832-3.912C10.725,17.907,9.886,19.924,9.886,21.868z"/>
		<path style="fill:#010101;" d="M21.117,19.9c0-1.536-0.048-2.784-0.096-3.889h2.592l0.145,1.801h0.048
			c0.864-1.32,2.232-2.064,4.008-2.064c2.688,0,4.921,2.305,4.921,5.952c0,4.225-2.664,6.265-5.328,6.265
			c-1.465,0-2.688-0.624-3.289-1.56h-0.048v6.048h-2.952V19.9z M24.069,22.804c0,0.288,0.024,0.552,0.097,0.816
			c0.288,1.2,1.344,2.063,2.592,2.063c1.872,0,2.977-1.56,2.977-3.864c0-2.063-1.009-3.744-2.904-3.744
			c-1.225,0-2.353,0.889-2.641,2.185c-0.072,0.24-0.12,0.504-0.12,0.744V22.804z"/>
		<path style="fill:#010101;" d="M38.542,12.675v3.336h2.808v2.209h-2.808v5.16c0,1.416,0.384,2.16,1.512,2.16
			c0.504,0,0.888-0.072,1.152-0.145l0.048,2.257c-0.432,0.168-1.2,0.288-2.136,0.288c-1.08,0-1.992-0.36-2.545-0.96
			c-0.624-0.673-0.912-1.729-0.912-3.265V18.22h-1.68v-2.209h1.68v-2.64L38.542,12.675z"/>
		<path style="fill:#010101;" d="M46.725,12.747c0,0.888-0.648,1.584-1.681,1.584c-0.983,0-1.632-0.696-1.632-1.584
			c0-0.912,0.672-1.608,1.656-1.608C46.077,11.139,46.701,11.835,46.725,12.747z M43.581,27.7V16.011h2.977V27.7H43.581z"/>
		<path style="fill:#010101;" d="M60.838,21.748c0,4.296-3.024,6.216-6.001,6.216c-3.312,0-5.856-2.28-5.856-6.024
			c0-3.84,2.521-6.192,6.049-6.192C58.51,15.747,60.838,18.195,60.838,21.748z M52.029,21.868c0,2.256,1.104,3.96,2.904,3.96
			c1.68,0,2.855-1.656,2.855-4.009c0-1.824-0.815-3.912-2.832-3.912C52.869,17.907,52.029,19.924,52.029,21.868z"/>
		<path style="fill:#010101;" d="M63.261,19.491c0-1.344-0.023-2.472-0.096-3.48h2.592l0.145,1.753h0.071
			c0.505-0.912,1.776-2.017,3.721-2.017c2.04,0,4.152,1.32,4.152,5.017V27.7h-2.952V21.1c0-1.68-0.624-2.952-2.232-2.952
			c-1.176,0-1.992,0.84-2.304,1.729c-0.097,0.264-0.12,0.624-0.12,0.96V27.7h-2.977V19.491z"/>
	</g>
	<g>
		<path style="fill:#010101;" d="M96.877,14.93v5.232h5.016v2.257h-5.016v5.28h-2.353v-5.28h-5.017v-2.257h5.017V14.93H96.877z"/>
	</g>
	<g>
		<path style="fill:#010101;" d="M123.125,27.219c-0.695,0.36-2.231,0.721-4.176,0.721c-5.137,0-8.257-3.217-8.257-8.137
			c0-5.329,3.696-8.545,8.641-8.545c1.944,0,3.336,0.408,3.937,0.72l-0.648,2.353c-0.768-0.336-1.824-0.624-3.168-0.624
			c-3.288,0-5.665,2.064-5.665,5.952c0,3.553,2.089,5.833,5.641,5.833c1.2,0,2.448-0.24,3.217-0.601L123.125,27.219z"/>
		<path style="fill:#010101;" d="M126.053,10.658h2.977v17.041h-2.977V10.658z"/>
		<path style="fill:#010101;" d="M135.965,12.746c0,0.888-0.648,1.584-1.681,1.584c-0.983,0-1.632-0.696-1.632-1.584
			c0-0.912,0.672-1.608,1.656-1.608C135.316,11.138,135.94,11.834,135.965,12.746z M132.82,27.699V16.01h2.977v11.689H132.82z"/>
		<path style="fill:#010101;" d="M148.156,27.339c-0.624,0.288-1.848,0.601-3.312,0.601c-3.648,0-6.024-2.328-6.024-5.953
			c0-3.504,2.4-6.24,6.505-6.24c1.08,0,2.185,0.24,2.856,0.552l-0.528,2.209c-0.48-0.217-1.176-0.456-2.232-0.456
			c-2.256,0-3.601,1.655-3.576,3.792c0,2.4,1.561,3.769,3.576,3.769c1.032,0,1.752-0.217,2.328-0.456L148.156,27.339z"/>
		<path style="fill:#010101;" d="M153.891,21.147h0.048c0.288-0.456,0.624-0.96,0.937-1.368l2.832-3.769h3.553l-4.32,4.777
			l4.944,6.912h-3.625l-3.359-5.16l-1.009,1.176v3.984h-2.952V10.658h2.952V21.147z"/>
	</g>
</g>
<g id="Layer_1">
</g>
</svg>
