<?xml version="1.0" encoding="iso-8859-1"?>
<!-- Generator: Adobe Illustrator 20.0.0, SVG Export Plug-In . SVG Version: 6.00 Build 0)  -->
<!DOCTYPE svg PUBLIC "-//W3C//DTD SVG 1.1//EN" "http://www.w3.org/Graphics/SVG/1.1/DTD/svg11.dtd">
<svg version="1.1" xmlns="http://www.w3.org/2000/svg" xmlns:xlink="http://www.w3.org/1999/xlink" x="0px" y="0px"
	 viewBox="0 0 92.702 41.4" style="enable-background:new 0 0 92.702 41.4;" xml:space="preserve">
<g id="panes">
	<g>
		<path style="fill:#FFFFFF;" d="M92.002,35.7c0,2.75-2.25,5-5,5h-30c-2.75,0-5-2.25-5-5v-30c0-2.75,2.25-5,5-5h30
			c2.75,0,5,2.25,5,5V35.7z"/>
		<path style="fill:none;stroke:#010101;stroke-width:1.4;stroke-miterlimit:10;" d="M92.002,35.7c0,2.75-2.25,5-5,5h-30
			c-2.75,0-5-2.25-5-5v-30c0-2.75,2.25-5,5-5h30c2.75,0,5,2.25,5,5V35.7z"/>
	</g>
	<g>
		<path style="fill:#010101;" d="M69.938,22.996c0.12,1.512,1.608,2.231,3.312,2.231c1.248,0,2.256-0.168,3.24-0.479l0.479,2.472
			c-1.2,0.48-2.664,0.721-4.248,0.721c-3.984,0-6.265-2.305-6.265-5.977c0-2.977,1.849-6.265,5.929-6.265
			c3.792,0,5.232,2.952,5.232,5.856c0,0.624-0.072,1.176-0.12,1.44H69.938z M74.234,20.5c0-0.889-0.384-2.377-2.063-2.377
			c-1.536,0-2.16,1.393-2.257,2.377H74.234z"/>
	</g>
	<g>
		<path style="fill:#FFFFFF;" d="M40.7,35.7c0,2.75-2.25,5-5,5h-30c-2.75,0-5-2.25-5-5v-30c0-2.75,2.25-5,5-5h30c2.75,0,5,2.25,5,5
			V35.7z"/>
		<path style="fill:none;stroke:#010101;stroke-width:1.4;stroke-miterlimit:10;" d="M40.7,35.7c0,2.75-2.25,5-5,5h-30
			c-2.75,0-5-2.25-5-5v-30c0-2.75,2.25-5,5-5h30c2.75,0,5,2.25,5,5V35.7z"/>
	</g>
	<g>
		<path style="fill:#010101;" d="M15.577,15.963l0.937,4.801c0.239,1.224,0.479,2.521,0.672,3.864h0.048
			c0.24-1.344,0.576-2.688,0.864-3.84l1.248-4.825h2.88l1.176,4.681c0.312,1.32,0.624,2.641,0.864,3.984h0.048
			c0.168-1.344,0.408-2.664,0.673-4.009l1.008-4.656h3.576L25.97,27.7h-3.432l-1.104-4.128c-0.288-1.152-0.504-2.209-0.744-3.648
			h-0.048c-0.216,1.464-0.456,2.544-0.769,3.648L18.697,27.7h-3.433l-3.408-11.737H15.577z"/>
	</g>
</g>
<g id="Layer_1">
</g>
</svg>
