<?xml version="1.0" encoding="iso-8859-1"?>
<!-- Generator: Adobe Illustrator 20.0.0, SVG Export Plug-In . SVG Version: 6.00 Build 0)  -->
<!DOCTYPE svg PUBLIC "-//W3C//DTD SVG 1.1//EN" "http://www.w3.org/Graphics/SVG/1.1/DTD/svg11.dtd">
<svg version="1.1" xmlns="http://www.w3.org/2000/svg" xmlns:xlink="http://www.w3.org/1999/xlink" x="0px" y="0px"
	 viewBox="0 0 41.4 41.4" style="enable-background:new 0 0 41.4 41.4;" xml:space="preserve">
<g id="print">
	<g>
		<path style="fill:#FFFFFF;" d="M40.7,35.7c0,2.75-2.25,5-5,5h-30c-2.75,0-5-2.25-5-5v-30c0-2.75,2.25-5,5-5h30c2.75,0,5,2.25,5,5
			V35.7z"/>
		<path style="fill:none;stroke:#010101;stroke-width:1.4;stroke-miterlimit:10;" d="M40.7,35.7c0,2.75-2.25,5-5,5h-30
			c-2.75,0-5-2.25-5-5v-30c0-2.75,2.25-5,5-5h30c2.75,0,5,2.25,5,5V35.7z"/>
	</g>
	<g>
		<path style="fill:#010101;" d="M14.988,17.9c0-1.536-0.048-2.856-0.096-3.937h3.168l0.168,1.633h0.048
			c0.864-1.248,2.209-1.896,3.913-1.896c2.568,0,4.872,2.232,4.872,5.977c0,4.272-2.712,6.288-5.328,6.288
			c-1.416,0-2.521-0.576-3.049-1.344h-0.048v5.832h-3.648V17.9z M18.637,20.66c0,0.288,0.024,0.552,0.072,0.768
			c0.24,0.984,1.08,1.729,2.136,1.729c1.584,0,2.521-1.32,2.521-3.312c0-1.872-0.84-3.288-2.473-3.288
			c-1.031,0-1.943,0.768-2.184,1.848c-0.048,0.192-0.072,0.433-0.072,0.648V20.66z"/>
	</g>
</g>
<g id="Layer_1">
</g>
</svg>
