<?xml version="1.0" encoding="iso-8859-1"?>
<!-- Generator: Adobe Illustrator 20.0.0, SVG Export Plug-In . SVG Version: 6.00 Build 0)  -->
<!DOCTYPE svg PUBLIC "-//W3C//DTD SVG 1.1//EN" "http://www.w3.org/Graphics/SVG/1.1/DTD/svg11.dtd">
<svg version="1.1" xmlns="http://www.w3.org/2000/svg" xmlns:xlink="http://www.w3.org/1999/xlink" x="0px" y="0px"
	 viewBox="0 0 91.4 41.4" style="enable-background:new 0 0 91.4 41.4;" xml:space="preserve">
<g id="r-f">
	<g>
		<path style="fill:#FFFFFF;" d="M40.7,35.7c0,2.75-2.25,5-5,5h-30c-2.75,0-5-2.25-5-5v-30c0-2.75,2.25-5,5-5h30c2.75,0,5,2.25,5,5
			V35.7z"/>
		<path style="fill:none;stroke:#010101;stroke-width:1.4;stroke-miterlimit:10;" d="M40.7,35.7c0,2.75-2.25,5-5,5h-30
			c-2.75,0-5-2.25-5-5v-30c0-2.75,2.25-5,5-5h30c2.75,0,5,2.25,5,5V35.7z"/>
	</g>
	<g>
		<path style="fill:#010101;" d="M17.604,19.827c0-1.728-0.048-2.855-0.096-3.864h3.145l0.12,2.16h0.096
			c0.6-1.704,2.04-2.424,3.168-2.424c0.336,0,0.504,0,0.769,0.048v3.433c-0.265-0.048-0.576-0.097-0.984-0.097
			c-1.344,0-2.256,0.721-2.496,1.849c-0.048,0.24-0.072,0.528-0.072,0.816V27.7h-3.648V19.827z"/>
	</g>
	<g>
		<path style="fill:#FFFFFF;" d="M90.7,35.7c0,2.75-2.25,5-5,5h-30c-2.75,0-5-2.25-5-5v-30c0-2.75,2.25-5,5-5h30c2.75,0,5,2.25,5,5
			V35.7z"/>
		<path style="fill:none;stroke:#010101;stroke-width:1.4;stroke-miterlimit:10;" d="M90.7,35.7c0,2.75-2.25,5-5,5h-30
			c-2.75,0-5-2.25-5-5v-30c0-2.75,2.25-5,5-5h30c2.75,0,5,2.25,5,5V35.7z"/>
	</g>
	<g>
		<path style="fill:#010101;" d="M68.48,27.7v-9.049h-1.536v-2.688h1.536v-0.456c0-1.416,0.433-2.976,1.488-3.936
			c0.912-0.864,2.185-1.177,3.24-1.177c0.816,0,1.44,0.096,1.944,0.24l-0.145,2.809c-0.312-0.097-0.695-0.168-1.176-0.168
			c-1.2,0-1.704,0.936-1.704,2.088v0.6h2.353v2.688h-2.328V27.7H68.48z"/>
	</g>
</g>
<g id="Layer_1">
</g>
</svg>
