<?xml version="1.0" encoding="iso-8859-1"?>
<!-- Generator: Adobe Illustrator 20.1.0, SVG Export Plug-In . SVG Version: 6.00 Build 0)  -->
<!DOCTYPE svg PUBLIC "-//W3C//DTD SVG 1.1//EN" "http://www.w3.org/Graphics/SVG/1.1/DTD/svg11.dtd">
<svg version="1.1" id="Layer_1" xmlns="http://www.w3.org/2000/svg" xmlns:xlink="http://www.w3.org/1999/xlink" x="0px" y="0px"
	 viewBox="0 0 94.863 67.695" style="enable-background:new 0 0 94.863 67.695;" xml:space="preserve">
<g>
	<g>
		<path style="fill:#C0C1C3;" d="M75.738,50.877c0,2.239-1.832,4.07-4.07,4.07H26.897c-2.239,0-4.07-1.832-4.07-4.07V6.105
			c0-2.239,1.832-4.07,4.07-4.07h44.772c2.239,0,4.07,1.832,4.07,4.07V50.877z"/>
		<path style="fill:#FFFFFF;" d="M71.668,55.625H26.897c-2.618,0-4.748-2.13-4.748-4.748V6.105c0-2.618,2.13-4.748,4.748-4.748
			h44.772c2.618,0,4.748,2.13,4.748,4.748v44.772C76.417,53.495,74.287,55.625,71.668,55.625z M26.897,2.713
			c-1.87,0-3.392,1.522-3.392,3.392v44.772c0,1.87,1.522,3.392,3.392,3.392h44.772c1.87,0,3.392-1.522,3.392-3.392V6.105
			c0-1.87-1.522-3.392-3.392-3.392H26.897z"/>
	</g>
	<g>
		<circle style="fill:#FFFFFF;" cx="49.282" cy="28.491" r="20.69"/>
		<path style="fill:#FFFFFF;" d="M49.282,52.233c-13.092,0-23.742-10.651-23.742-23.742S36.191,4.749,49.282,4.749
			s23.742,10.651,23.742,23.742S62.374,52.233,49.282,52.233z M49.282,10.854c-9.725,0-17.637,7.912-17.637,17.637
			s7.912,17.637,17.637,17.637S66.92,38.216,66.92,28.491S59.008,10.854,49.282,10.854z"/>
		<path style="fill:#231F20;" d="M49.282,49.859c-11.782,0-21.368-9.586-21.368-21.368S37.5,7.123,49.282,7.123
			s21.368,9.586,21.368,21.368S61.065,49.859,49.282,49.859z M49.282,8.479c-11.034,0-20.012,8.977-20.012,20.012
			s8.977,20.012,20.012,20.012s20.012-8.977,20.012-20.012S60.317,8.479,49.282,8.479z"/>
	</g>
	<g>
		<path style="fill:#79B1DF;" d="M28.932,39.005c-5.798,0-10.515-4.717-10.515-10.515s4.717-10.515,10.515-10.515
			s10.515,4.717,10.515,10.515S34.729,39.005,28.932,39.005z"/>
		<path style="fill:#FFFFFF;" d="M28.932,18.994c5.245,0,9.497,4.252,9.497,9.497c0,5.245-4.252,9.497-9.497,9.497
			s-9.497-4.252-9.497-9.497C19.435,23.246,23.687,18.994,28.932,18.994 M28.932,16.959c-6.359,0-11.532,5.173-11.532,11.532
			s5.173,11.532,11.532,11.532s11.532-5.173,11.532-11.532S35.291,16.959,28.932,16.959L28.932,16.959z"/>
	</g>
	<g>
		<circle style="fill:#F0C517;" cx="49.282" cy="48.842" r="7.123"/>
		<path style="fill:#FFFFFF;" d="M49.282,42.736c3.372,0,6.105,2.733,6.105,6.105s-2.733,6.105-6.105,6.105
			s-6.105-2.733-6.105-6.105S45.911,42.736,49.282,42.736 M49.282,40.701c-4.489,0-8.14,3.652-8.14,8.14s3.652,8.14,8.14,8.14
			s8.14-3.652,8.14-8.14S53.771,40.701,49.282,40.701L49.282,40.701z"/>
	</g>
	<g>
		<circle style="fill:#F6921E;" cx="49.282" cy="8.14" r="7.123"/>
		<path style="fill:#FFFFFF;" d="M49.282,2.035c3.372,0,6.105,2.733,6.105,6.105s-2.733,6.105-6.105,6.105s-6.105-2.733-6.105-6.105
			S45.911,2.035,49.282,2.035 M49.282,0c-4.489,0-8.14,3.652-8.14,8.14s3.652,8.14,8.14,8.14s8.14-3.652,8.14-8.14
			S53.771,0,49.282,0L49.282,0z"/>
	</g>
	<g>
		<rect x="59.119" y="19.333" style="fill:#9BB73C;" width="22.386" height="18.316"/>
		<path style="fill:#FFFFFF;" d="M80.487,20.351v16.281H60.136V20.351H80.487 M82.522,18.316h-2.035H60.136h-2.035v2.035v16.281
			v2.035h2.035h20.351h2.035v-2.035V20.351V18.316L82.522,18.316z"/>
	</g>
	<path style="opacity:0.2;fill:#231F20;" d="M49.282,50.029c-11.876,0-21.538-9.662-21.538-21.538S37.406,6.953,49.282,6.953
		S70.82,16.615,70.82,28.491S61.158,50.029,49.282,50.029z M49.282,8.649c-10.941,0-19.842,8.901-19.842,19.842
		s8.901,19.842,19.842,19.842s19.842-8.901,19.842-19.842S60.223,8.649,49.282,8.649z"/>
	<g>
		<circle style="fill:#EC1C24;" cx="49.282" cy="28.491" r="5.766"/>
		<path style="fill:#FFFFFF;" d="M49.282,23.742c2.623,0,4.748,2.126,4.748,4.748c0,2.623-2.126,4.748-4.748,4.748
			c-2.623,0-4.748-2.126-4.748-4.748C44.534,25.868,46.66,23.742,49.282,23.742 M49.282,21.707c-3.74,0-6.784,3.043-6.784,6.784
			c0,3.74,3.043,6.784,6.784,6.784c3.74,0,6.784-3.043,6.784-6.784C56.066,24.751,53.023,21.707,49.282,21.707L49.282,21.707z"/>
	</g>
	<g>
		<g>
			<path style="fill:#221F1F;" d="M5.296,63.409c0,0.606-0.262,1.079-0.785,1.418s-1.234,0.509-2.131,0.509
				c-0.972,0-1.72-0.105-2.244-0.316v-0.773c0.337,0.119,0.703,0.214,1.099,0.283c0.396,0.069,0.789,0.104,1.178,0.104
				c0.636,0,1.114-0.101,1.436-0.304c0.322-0.203,0.482-0.484,0.482-0.846c0-0.239-0.057-0.434-0.171-0.587
				c-0.114-0.152-0.305-0.293-0.572-0.422c-0.267-0.129-0.674-0.275-1.22-0.438c-0.763-0.229-1.308-0.501-1.635-0.815
				c-0.327-0.314-0.491-0.724-0.491-1.23c0-0.531,0.237-0.953,0.712-1.267c0.475-0.314,1.103-0.471,1.885-0.471
				c0.815,0,1.565,0.126,2.249,0.377l-0.297,0.697c-0.677-0.239-1.335-0.358-1.974-0.358c-0.505,0-0.899,0.091-1.183,0.273
				c-0.284,0.182-0.426,0.435-0.426,0.758c0,0.239,0.052,0.434,0.157,0.587c0.105,0.152,0.281,0.292,0.53,0.419
				c0.249,0.127,0.629,0.268,1.141,0.422c0.86,0.258,1.452,0.534,1.775,0.829C5.134,62.554,5.296,62.938,5.296,63.409z"/>
			<path style="fill:#221F1F;" d="M6.144,60.078h0.998l1.346,2.945c0.295,0.672,0.479,1.158,0.55,1.456h0.045
				c0.049-0.16,0.151-0.434,0.306-0.822c0.155-0.388,0.663-1.581,1.523-3.578h0.998l-2.642,5.88
				c-0.262,0.581-0.567,0.993-0.917,1.237c-0.35,0.243-0.779,0.365-1.287,0.365c-0.284,0-0.565-0.027-0.841-0.08v-0.627
				c0.206,0.038,0.436,0.057,0.69,0.057c0.639,0,1.096-0.301,1.369-0.905l0.342-0.735L6.144,60.078z"/>
			<path style="fill:#221F1F;" d="M17.161,63.833c0,0.481-0.213,0.851-0.639,1.112c-0.426,0.261-1.025,0.391-1.795,0.391
				c-0.815,0-1.451-0.108-1.907-0.325v-0.726c0.295,0.126,0.612,0.225,0.951,0.297c0.338,0.072,0.665,0.108,0.979,0.108
				c0.486,0,0.86-0.065,1.122-0.196c0.262-0.13,0.393-0.329,0.393-0.596c0-0.201-0.104-0.373-0.311-0.516
				c-0.208-0.143-0.612-0.312-1.214-0.507c-0.572-0.179-0.979-0.335-1.22-0.469c-0.241-0.134-0.421-0.285-0.538-0.455
				c-0.118-0.17-0.177-0.372-0.177-0.608c0-0.421,0.204-0.753,0.611-0.996c0.408-0.243,0.967-0.365,1.677-0.365
				c0.662,0,1.309,0.113,1.941,0.339l-0.331,0.636c-0.617-0.214-1.176-0.32-1.677-0.32c-0.441,0-0.774,0.058-0.998,0.174
				c-0.224,0.116-0.337,0.276-0.337,0.481c0,0.138,0.042,0.256,0.126,0.353c0.084,0.097,0.22,0.19,0.407,0.278
				c0.187,0.088,0.546,0.215,1.077,0.382c0.729,0.223,1.222,0.448,1.478,0.674C17.033,63.206,17.161,63.49,17.161,63.833z"/>
			<path style="fill:#221F1F;" d="M20.948,64.69c0.165,0,0.323-0.01,0.477-0.031c0.153-0.02,0.275-0.041,0.365-0.064v0.598
				c-0.101,0.041-0.25,0.075-0.446,0.101c-0.196,0.027-0.373,0.04-0.53,0.04c-1.189,0-1.784-0.526-1.784-1.578v-3.072h-0.881v-0.377
				l0.881-0.325l0.393-1.102h0.538v1.197h1.784v0.608h-1.784v3.039c0,0.311,0.088,0.55,0.264,0.716S20.641,64.69,20.948,64.69z"/>
			<path style="fill:#221F1F;" d="M25.902,65.336c-0.909,0-1.626-0.232-2.151-0.697c-0.525-0.465-0.788-1.11-0.788-1.936
				c0-0.832,0.244-1.494,0.732-1.984c0.488-0.49,1.143-0.735,1.966-0.735c0.77,0,1.38,0.213,1.828,0.638
				c0.449,0.426,0.673,0.987,0.673,1.684v0.495h-4.235c0.019,0.606,0.201,1.066,0.547,1.38c0.346,0.314,0.833,0.471,1.461,0.471
				c0.662,0,1.316-0.116,1.963-0.349v0.697c-0.329,0.119-0.64,0.205-0.934,0.257C26.671,65.31,26.317,65.336,25.902,65.336z
				 M25.649,60.638c-0.494,0-0.887,0.135-1.181,0.405s-0.466,0.644-0.519,1.121h3.214c0-0.493-0.131-0.871-0.393-1.133
				C26.509,60.77,26.135,60.638,25.649,60.638z"/>
			<path style="fill:#221F1F;" d="M37.872,65.241v-3.359c0-0.411-0.105-0.72-0.314-0.926c-0.209-0.206-0.535-0.309-0.976-0.309
				c-0.58,0-1.008,0.14-1.284,0.419c-0.277,0.28-0.415,0.71-0.415,1.291v2.883h-0.931v-3.359c0-0.411-0.105-0.72-0.314-0.926
				c-0.209-0.206-0.537-0.309-0.982-0.309c-0.583,0-1.011,0.147-1.282,0.441c-0.271,0.294-0.407,0.775-0.407,1.444v2.709h-0.931
				v-5.164h0.757l0.151,0.707h0.045c0.176-0.251,0.423-0.448,0.743-0.589c0.32-0.141,0.678-0.212,1.074-0.212
				c0.961,0,1.589,0.292,1.885,0.876h0.045c0.183-0.27,0.449-0.484,0.796-0.641c0.348-0.157,0.744-0.236,1.189-0.236
				c0.695,0,1.216,0.15,1.562,0.45c0.346,0.3,0.519,0.78,0.519,1.439v3.369H37.872z"/>
			<path style="fill:#221F1F;" d="M44.974,63.833c0,0.481-0.213,0.851-0.639,1.112c-0.426,0.261-1.025,0.391-1.795,0.391
				c-0.815,0-1.451-0.108-1.907-0.325v-0.726c0.295,0.126,0.612,0.225,0.951,0.297c0.338,0.072,0.665,0.108,0.979,0.108
				c0.486,0,0.86-0.065,1.122-0.196c0.262-0.13,0.393-0.329,0.393-0.596c0-0.201-0.104-0.373-0.311-0.516
				c-0.208-0.143-0.612-0.312-1.214-0.507c-0.572-0.179-0.979-0.335-1.22-0.469c-0.241-0.134-0.421-0.285-0.538-0.455
				c-0.118-0.17-0.177-0.372-0.177-0.608c0-0.421,0.204-0.753,0.611-0.996c0.408-0.243,0.967-0.365,1.677-0.365
				c0.662,0,1.309,0.113,1.941,0.339l-0.331,0.636c-0.617-0.214-1.176-0.32-1.677-0.32c-0.441,0-0.774,0.058-0.998,0.174
				c-0.224,0.116-0.337,0.276-0.337,0.481c0,0.138,0.042,0.256,0.126,0.353c0.084,0.097,0.22,0.19,0.407,0.278
				c0.187,0.088,0.546,0.215,1.077,0.382c0.729,0.223,1.222,0.448,1.478,0.674C44.846,63.206,44.974,63.49,44.974,63.833z"/>
			<path style="fill:#221F1F;" d="M59.187,65.241l-1.021-2.191h-3.287l-1.01,2.191h-0.965l3.242-6.916h0.802l3.225,6.916H59.187z
				 M57.868,62.33l-0.953-2.134c-0.123-0.27-0.251-0.601-0.381-0.994c-0.082,0.301-0.2,0.633-0.353,0.994l-0.965,2.134H57.868z"/>
			<path style="fill:#221F1F;" d="M66.881,60.078v0.495l-1.139,0.113c0.105,0.11,0.198,0.254,0.28,0.431
				c0.082,0.177,0.123,0.378,0.123,0.601c0,0.506-0.206,0.909-0.617,1.211c-0.411,0.301-0.976,0.452-1.694,0.452
				c-0.183,0-0.355-0.013-0.516-0.038c-0.396,0.176-0.595,0.397-0.595,0.664c0,0.141,0.069,0.246,0.208,0.313
				c0.138,0.068,0.376,0.101,0.712,0.101h1.088c0.666,0,1.177,0.118,1.534,0.353c0.357,0.236,0.536,0.578,0.536,1.027
				c0,0.572-0.273,1.007-0.819,1.307c-0.546,0.3-1.342,0.45-2.389,0.45c-0.804,0-1.424-0.126-1.859-0.377
				c-0.436-0.251-0.653-0.606-0.653-1.065c0-0.314,0.12-0.586,0.359-0.815c0.239-0.229,0.576-0.385,1.01-0.466
				c-0.157-0.06-0.289-0.152-0.395-0.278c-0.107-0.126-0.16-0.272-0.16-0.438c0-0.188,0.06-0.353,0.179-0.495
				c0.12-0.141,0.308-0.278,0.566-0.41c-0.318-0.11-0.577-0.297-0.777-0.561c-0.2-0.264-0.3-0.565-0.3-0.905
				c0-0.565,0.202-1.001,0.606-1.307c0.404-0.306,0.976-0.459,1.716-0.459c0.322,0,0.611,0.031,0.869,0.094H66.881z M61.979,66.108
				c0,0.28,0.14,0.491,0.421,0.636c0.28,0.144,0.682,0.217,1.206,0.217c0.781,0,1.36-0.098,1.736-0.294
				c0.376-0.196,0.564-0.462,0.564-0.799c0-0.28-0.103-0.474-0.308-0.582c-0.206-0.108-0.593-0.163-1.161-0.163H63.32
				c-0.423,0-0.752,0.085-0.987,0.254C62.097,65.548,61.979,65.791,61.979,66.108z M62.484,61.732c0,0.361,0.122,0.634,0.365,0.82
				c0.243,0.185,0.581,0.278,1.015,0.278c0.909,0,1.363-0.371,1.363-1.112c0-0.776-0.46-1.164-1.38-1.164
				c-0.437,0-0.774,0.099-1.01,0.297C62.602,61.048,62.484,61.342,62.484,61.732z"/>
			<path style="fill:#221F1F;" d="M71.429,65.336c-0.909,0-1.626-0.232-2.151-0.697c-0.525-0.465-0.788-1.11-0.788-1.936
				c0-0.832,0.244-1.494,0.732-1.984c0.488-0.49,1.143-0.735,1.966-0.735c0.77,0,1.38,0.213,1.828,0.638
				c0.449,0.426,0.673,0.987,0.673,1.684v0.495h-4.235c0.019,0.606,0.201,1.066,0.547,1.38c0.346,0.314,0.833,0.471,1.461,0.471
				c0.662,0,1.316-0.116,1.963-0.349v0.697c-0.329,0.119-0.64,0.205-0.934,0.257C72.198,65.31,71.844,65.336,71.429,65.336z
				 M71.177,60.638c-0.494,0-0.887,0.135-1.181,0.405c-0.294,0.27-0.466,0.644-0.519,1.121h3.214c0-0.493-0.131-0.871-0.393-1.133
				C72.037,60.77,71.663,60.638,71.177,60.638z"/>
			<path style="fill:#221F1F;" d="M80.173,65.241v-3.34c0-0.421-0.114-0.735-0.342-0.942c-0.228-0.207-0.585-0.311-1.071-0.311
				c-0.643,0-1.114,0.146-1.413,0.438s-0.449,0.774-0.449,1.446v2.709h-0.931v-5.164h0.757l0.151,0.707h0.045
				c0.191-0.254,0.458-0.452,0.802-0.591c0.344-0.14,0.727-0.21,1.15-0.21c0.74,0,1.298,0.15,1.671,0.45
				c0.374,0.3,0.561,0.78,0.561,1.439v3.369H80.173z"/>
			<path style="fill:#221F1F;" d="M86.162,65.336c-0.89,0-1.579-0.23-2.067-0.69c-0.488-0.46-0.732-1.111-0.732-1.953
				c0-0.864,0.248-1.531,0.743-2.002c0.495-0.471,1.201-0.707,2.117-0.707c0.295,0,0.591,0.027,0.886,0.08
				c0.295,0.054,0.527,0.116,0.695,0.188l-0.286,0.664c-0.206-0.069-0.43-0.126-0.673-0.172c-0.243-0.046-0.458-0.068-0.645-0.068
				c-1.249,0-1.873,0.669-1.873,2.007c0,0.634,0.152,1.121,0.457,1.461c0.305,0.339,0.756,0.509,1.355,0.509
				c0.512,0,1.038-0.093,1.576-0.278v0.693C87.305,65.246,86.787,65.336,86.162,65.336z"/>
			<path style="fill:#221F1F;" d="M88.887,60.078h0.998l1.346,2.945c0.295,0.672,0.479,1.158,0.55,1.456h0.045
				c0.049-0.16,0.151-0.434,0.306-0.822c0.155-0.388,0.663-1.581,1.523-3.578h0.998l-2.642,5.88
				c-0.262,0.581-0.567,0.993-0.917,1.237c-0.35,0.243-0.779,0.365-1.287,0.365c-0.284,0-0.565-0.027-0.841-0.08v-0.627
				c0.206,0.038,0.436,0.057,0.69,0.057c0.639,0,1.096-0.301,1.369-0.905l0.342-0.735L88.887,60.078z"/>
		</g>
		<g>
			<path style="fill:#231F20;" d="M5.296,63.409c0,0.606-0.262,1.079-0.785,1.418s-1.234,0.509-2.131,0.509
				c-0.972,0-1.72-0.105-2.244-0.316v-0.773c0.337,0.119,0.703,0.214,1.099,0.283c0.396,0.069,0.789,0.104,1.178,0.104
				c0.636,0,1.114-0.101,1.436-0.304c0.322-0.203,0.482-0.484,0.482-0.846c0-0.239-0.057-0.434-0.171-0.587
				c-0.114-0.152-0.305-0.293-0.572-0.422c-0.267-0.129-0.674-0.275-1.22-0.438c-0.763-0.229-1.308-0.501-1.635-0.815
				c-0.327-0.314-0.491-0.724-0.491-1.23c0-0.531,0.237-0.953,0.712-1.267c0.475-0.314,1.103-0.471,1.885-0.471
				c0.815,0,1.565,0.126,2.249,0.377l-0.297,0.697c-0.677-0.239-1.335-0.358-1.974-0.358c-0.505,0-0.899,0.091-1.183,0.273
				c-0.284,0.182-0.426,0.435-0.426,0.758c0,0.239,0.052,0.434,0.157,0.587c0.105,0.152,0.281,0.292,0.53,0.419
				c0.249,0.127,0.629,0.268,1.141,0.422c0.86,0.258,1.452,0.534,1.775,0.829C5.134,62.554,5.296,62.938,5.296,63.409z"/>
			<path style="fill:#231F20;" d="M6.144,60.078h0.998l1.346,2.945c0.295,0.672,0.479,1.158,0.55,1.456h0.045
				c0.049-0.16,0.151-0.434,0.306-0.822c0.155-0.388,0.663-1.581,1.523-3.578h0.998l-2.642,5.88
				c-0.262,0.581-0.567,0.993-0.917,1.237c-0.35,0.243-0.779,0.365-1.287,0.365c-0.284,0-0.565-0.027-0.841-0.08v-0.627
				c0.206,0.038,0.436,0.057,0.69,0.057c0.639,0,1.096-0.301,1.369-0.905l0.342-0.735L6.144,60.078z"/>
			<path style="fill:#231F20;" d="M17.161,63.833c0,0.481-0.213,0.851-0.639,1.112c-0.426,0.261-1.025,0.391-1.795,0.391
				c-0.815,0-1.451-0.108-1.907-0.325v-0.726c0.295,0.126,0.612,0.225,0.951,0.297c0.338,0.072,0.665,0.108,0.979,0.108
				c0.486,0,0.86-0.065,1.122-0.196c0.262-0.13,0.393-0.329,0.393-0.596c0-0.201-0.104-0.373-0.311-0.516
				c-0.208-0.143-0.612-0.312-1.214-0.507c-0.572-0.179-0.979-0.335-1.22-0.469c-0.241-0.134-0.421-0.285-0.538-0.455
				c-0.118-0.17-0.177-0.372-0.177-0.608c0-0.421,0.204-0.753,0.611-0.996c0.408-0.243,0.967-0.365,1.677-0.365
				c0.662,0,1.309,0.113,1.941,0.339l-0.331,0.636c-0.617-0.214-1.176-0.32-1.677-0.32c-0.441,0-0.774,0.058-0.998,0.174
				c-0.224,0.116-0.337,0.276-0.337,0.481c0,0.138,0.042,0.256,0.126,0.353c0.084,0.097,0.22,0.19,0.407,0.278
				c0.187,0.088,0.546,0.215,1.077,0.382c0.729,0.223,1.222,0.448,1.478,0.674C17.033,63.206,17.161,63.49,17.161,63.833z"/>
			<path style="fill:#231F20;" d="M20.948,64.69c0.165,0,0.323-0.01,0.477-0.031c0.153-0.02,0.275-0.041,0.365-0.064v0.598
				c-0.101,0.041-0.25,0.075-0.446,0.101c-0.196,0.027-0.373,0.04-0.53,0.04c-1.189,0-1.784-0.526-1.784-1.578v-3.072h-0.881v-0.377
				l0.881-0.325l0.393-1.102h0.538v1.197h1.784v0.608h-1.784v3.039c0,0.311,0.088,0.55,0.264,0.716S20.641,64.69,20.948,64.69z"/>
			<path style="fill:#231F20;" d="M25.902,65.336c-0.909,0-1.626-0.232-2.151-0.697c-0.525-0.465-0.788-1.11-0.788-1.936
				c0-0.832,0.244-1.494,0.732-1.984c0.488-0.49,1.143-0.735,1.966-0.735c0.77,0,1.38,0.213,1.828,0.638
				c0.449,0.426,0.673,0.987,0.673,1.684v0.495h-4.235c0.019,0.606,0.201,1.066,0.547,1.38c0.346,0.314,0.833,0.471,1.461,0.471
				c0.662,0,1.316-0.116,1.963-0.349v0.697c-0.329,0.119-0.64,0.205-0.934,0.257C26.671,65.31,26.317,65.336,25.902,65.336z
				 M25.649,60.638c-0.494,0-0.887,0.135-1.181,0.405s-0.466,0.644-0.519,1.121h3.214c0-0.493-0.131-0.871-0.393-1.133
				C26.509,60.77,26.135,60.638,25.649,60.638z"/>
			<path style="fill:#231F20;" d="M37.872,65.241v-3.359c0-0.411-0.105-0.72-0.314-0.926c-0.209-0.206-0.535-0.309-0.976-0.309
				c-0.58,0-1.008,0.14-1.284,0.419c-0.277,0.28-0.415,0.71-0.415,1.291v2.883h-0.931v-3.359c0-0.411-0.105-0.72-0.314-0.926
				c-0.209-0.206-0.537-0.309-0.982-0.309c-0.583,0-1.011,0.147-1.282,0.441c-0.271,0.294-0.407,0.775-0.407,1.444v2.709h-0.931
				v-5.164h0.757l0.151,0.707h0.045c0.176-0.251,0.423-0.448,0.743-0.589c0.32-0.141,0.678-0.212,1.074-0.212
				c0.961,0,1.589,0.292,1.885,0.876h0.045c0.183-0.27,0.449-0.484,0.796-0.641c0.348-0.157,0.744-0.236,1.189-0.236
				c0.695,0,1.216,0.15,1.562,0.45c0.346,0.3,0.519,0.78,0.519,1.439v3.369H37.872z"/>
			<path style="fill:#231F20;" d="M44.974,63.833c0,0.481-0.213,0.851-0.639,1.112c-0.426,0.261-1.025,0.391-1.795,0.391
				c-0.815,0-1.451-0.108-1.907-0.325v-0.726c0.295,0.126,0.612,0.225,0.951,0.297c0.338,0.072,0.665,0.108,0.979,0.108
				c0.486,0,0.86-0.065,1.122-0.196c0.262-0.13,0.393-0.329,0.393-0.596c0-0.201-0.104-0.373-0.311-0.516
				c-0.208-0.143-0.612-0.312-1.214-0.507c-0.572-0.179-0.979-0.335-1.22-0.469c-0.241-0.134-0.421-0.285-0.538-0.455
				c-0.118-0.17-0.177-0.372-0.177-0.608c0-0.421,0.204-0.753,0.611-0.996c0.408-0.243,0.967-0.365,1.677-0.365
				c0.662,0,1.309,0.113,1.941,0.339l-0.331,0.636c-0.617-0.214-1.176-0.32-1.677-0.32c-0.441,0-0.774,0.058-0.998,0.174
				c-0.224,0.116-0.337,0.276-0.337,0.481c0,0.138,0.042,0.256,0.126,0.353c0.084,0.097,0.22,0.19,0.407,0.278
				c0.187,0.088,0.546,0.215,1.077,0.382c0.729,0.223,1.222,0.448,1.478,0.674C44.846,63.206,44.974,63.49,44.974,63.833z"/>
			<path style="fill:#231F20;" d="M59.187,65.241l-1.021-2.191h-3.287l-1.01,2.191h-0.965l3.242-6.916h0.802l3.225,6.916H59.187z
				 M57.868,62.33l-0.953-2.134c-0.123-0.27-0.251-0.601-0.381-0.994c-0.082,0.301-0.2,0.633-0.353,0.994l-0.965,2.134H57.868z"/>
			<path style="fill:#231F20;" d="M66.881,60.078v0.495l-1.139,0.113c0.105,0.11,0.198,0.254,0.28,0.431
				c0.082,0.177,0.123,0.378,0.123,0.601c0,0.506-0.206,0.909-0.617,1.211c-0.411,0.301-0.976,0.452-1.694,0.452
				c-0.183,0-0.355-0.013-0.516-0.038c-0.396,0.176-0.595,0.397-0.595,0.664c0,0.141,0.069,0.246,0.208,0.313
				c0.138,0.068,0.376,0.101,0.712,0.101h1.088c0.666,0,1.177,0.118,1.534,0.353c0.357,0.236,0.536,0.578,0.536,1.027
				c0,0.572-0.273,1.007-0.819,1.307c-0.546,0.3-1.342,0.45-2.389,0.45c-0.804,0-1.424-0.126-1.859-0.377
				c-0.436-0.251-0.653-0.606-0.653-1.065c0-0.314,0.12-0.586,0.359-0.815c0.239-0.229,0.576-0.385,1.01-0.466
				c-0.157-0.06-0.289-0.152-0.395-0.278c-0.107-0.126-0.16-0.272-0.16-0.438c0-0.188,0.06-0.353,0.179-0.495
				c0.12-0.141,0.308-0.278,0.566-0.41c-0.318-0.11-0.577-0.297-0.777-0.561c-0.2-0.264-0.3-0.565-0.3-0.905
				c0-0.565,0.202-1.001,0.606-1.307c0.404-0.306,0.976-0.459,1.716-0.459c0.322,0,0.611,0.031,0.869,0.094H66.881z M61.979,66.108
				c0,0.28,0.14,0.491,0.421,0.636c0.28,0.144,0.682,0.217,1.206,0.217c0.781,0,1.36-0.098,1.736-0.294
				c0.376-0.196,0.564-0.462,0.564-0.799c0-0.28-0.103-0.474-0.308-0.582c-0.206-0.108-0.593-0.163-1.161-0.163H63.32
				c-0.423,0-0.752,0.085-0.987,0.254C62.097,65.548,61.979,65.791,61.979,66.108z M62.484,61.732c0,0.361,0.122,0.634,0.365,0.82
				c0.243,0.185,0.581,0.278,1.015,0.278c0.909,0,1.363-0.371,1.363-1.112c0-0.776-0.46-1.164-1.38-1.164
				c-0.437,0-0.774,0.099-1.01,0.297C62.602,61.048,62.484,61.342,62.484,61.732z"/>
			<path style="fill:#231F20;" d="M71.429,65.336c-0.909,0-1.626-0.232-2.151-0.697c-0.525-0.465-0.788-1.11-0.788-1.936
				c0-0.832,0.244-1.494,0.732-1.984c0.488-0.49,1.143-0.735,1.966-0.735c0.77,0,1.38,0.213,1.828,0.638
				c0.449,0.426,0.673,0.987,0.673,1.684v0.495h-4.235c0.019,0.606,0.201,1.066,0.547,1.38c0.346,0.314,0.833,0.471,1.461,0.471
				c0.662,0,1.316-0.116,1.963-0.349v0.697c-0.329,0.119-0.64,0.205-0.934,0.257C72.198,65.31,71.844,65.336,71.429,65.336z
				 M71.177,60.638c-0.494,0-0.887,0.135-1.181,0.405c-0.294,0.27-0.466,0.644-0.519,1.121h3.214c0-0.493-0.131-0.871-0.393-1.133
				C72.037,60.77,71.663,60.638,71.177,60.638z"/>
			<path style="fill:#231F20;" d="M80.173,65.241v-3.34c0-0.421-0.114-0.735-0.342-0.942c-0.228-0.207-0.585-0.311-1.071-0.311
				c-0.643,0-1.114,0.146-1.413,0.438s-0.449,0.774-0.449,1.446v2.709h-0.931v-5.164h0.757l0.151,0.707h0.045
				c0.191-0.254,0.458-0.452,0.802-0.591c0.344-0.14,0.727-0.21,1.15-0.21c0.74,0,1.298,0.15,1.671,0.45
				c0.374,0.3,0.561,0.78,0.561,1.439v3.369H80.173z"/>
			<path style="fill:#231F20;" d="M86.162,65.336c-0.89,0-1.579-0.23-2.067-0.69c-0.488-0.46-0.732-1.111-0.732-1.953
				c0-0.864,0.248-1.531,0.743-2.002c0.495-0.471,1.201-0.707,2.117-0.707c0.295,0,0.591,0.027,0.886,0.08
				c0.295,0.054,0.527,0.116,0.695,0.188l-0.286,0.664c-0.206-0.069-0.43-0.126-0.673-0.172c-0.243-0.046-0.458-0.068-0.645-0.068
				c-1.249,0-1.873,0.669-1.873,2.007c0,0.634,0.152,1.121,0.457,1.461c0.305,0.339,0.756,0.509,1.355,0.509
				c0.512,0,1.038-0.093,1.576-0.278v0.693C87.305,65.246,86.787,65.336,86.162,65.336z"/>
			<path style="fill:#231F20;" d="M88.887,60.078h0.998l1.346,2.945c0.295,0.672,0.479,1.158,0.55,1.456h0.045
				c0.049-0.16,0.151-0.434,0.306-0.822c0.155-0.388,0.663-1.581,1.523-3.578h0.998l-2.642,5.88
				c-0.262,0.581-0.567,0.993-0.917,1.237c-0.35,0.243-0.779,0.365-1.287,0.365c-0.284,0-0.565-0.027-0.841-0.08v-0.627
				c0.206,0.038,0.436,0.057,0.69,0.057c0.639,0,1.096-0.301,1.369-0.905l0.342-0.735L88.887,60.078z"/>
		</g>
		<g>
			<path style="fill:none;stroke:#231F20;stroke-width:0.2717;stroke-miterlimit:10;" d="M5.296,63.409
				c0,0.606-0.262,1.079-0.785,1.418s-1.234,0.509-2.131,0.509c-0.972,0-1.72-0.105-2.244-0.316v-0.773
				c0.337,0.119,0.703,0.214,1.099,0.283c0.396,0.069,0.789,0.104,1.178,0.104c0.636,0,1.114-0.101,1.436-0.304
				c0.322-0.203,0.482-0.484,0.482-0.846c0-0.239-0.057-0.434-0.171-0.587c-0.114-0.152-0.305-0.293-0.572-0.422
				c-0.267-0.129-0.674-0.275-1.22-0.438c-0.763-0.229-1.308-0.501-1.635-0.815c-0.327-0.314-0.491-0.724-0.491-1.23
				c0-0.531,0.237-0.953,0.712-1.267c0.475-0.314,1.103-0.471,1.885-0.471c0.815,0,1.565,0.126,2.249,0.377l-0.297,0.697
				c-0.677-0.239-1.335-0.358-1.974-0.358c-0.505,0-0.899,0.091-1.183,0.273c-0.284,0.182-0.426,0.435-0.426,0.758
				c0,0.239,0.052,0.434,0.157,0.587c0.105,0.152,0.281,0.292,0.53,0.419c0.249,0.127,0.629,0.268,1.141,0.422
				c0.86,0.258,1.452,0.534,1.775,0.829C5.134,62.554,5.296,62.938,5.296,63.409z"/>
			<path style="fill:none;stroke:#231F20;stroke-width:0.2717;stroke-miterlimit:10;" d="M6.144,60.078h0.998l1.346,2.945
				c0.295,0.672,0.479,1.158,0.55,1.456h0.045c0.049-0.16,0.151-0.434,0.306-0.822c0.155-0.388,0.663-1.581,1.523-3.578h0.998
				l-2.642,5.88c-0.262,0.581-0.567,0.993-0.917,1.237c-0.35,0.243-0.779,0.365-1.287,0.365c-0.284,0-0.565-0.027-0.841-0.08v-0.627
				c0.206,0.038,0.436,0.057,0.69,0.057c0.639,0,1.096-0.301,1.369-0.905l0.342-0.735L6.144,60.078z"/>
			<path style="fill:none;stroke:#231F20;stroke-width:0.2717;stroke-miterlimit:10;" d="M17.161,63.833
				c0,0.481-0.213,0.851-0.639,1.112c-0.426,0.261-1.025,0.391-1.795,0.391c-0.815,0-1.451-0.108-1.907-0.325v-0.726
				c0.295,0.126,0.612,0.225,0.951,0.297c0.338,0.072,0.665,0.108,0.979,0.108c0.486,0,0.86-0.065,1.122-0.196
				c0.262-0.13,0.393-0.329,0.393-0.596c0-0.201-0.104-0.373-0.311-0.516c-0.208-0.143-0.612-0.312-1.214-0.507
				c-0.572-0.179-0.979-0.335-1.22-0.469c-0.241-0.134-0.421-0.285-0.538-0.455c-0.118-0.17-0.177-0.372-0.177-0.608
				c0-0.421,0.204-0.753,0.611-0.996c0.408-0.243,0.967-0.365,1.677-0.365c0.662,0,1.309,0.113,1.941,0.339l-0.331,0.636
				c-0.617-0.214-1.176-0.32-1.677-0.32c-0.441,0-0.774,0.058-0.998,0.174c-0.224,0.116-0.337,0.276-0.337,0.481
				c0,0.138,0.042,0.256,0.126,0.353c0.084,0.097,0.22,0.19,0.407,0.278c0.187,0.088,0.546,0.215,1.077,0.382
				c0.729,0.223,1.222,0.448,1.478,0.674C17.033,63.206,17.161,63.49,17.161,63.833z"/>
			<path style="fill:none;stroke:#231F20;stroke-width:0.2717;stroke-miterlimit:10;" d="M20.948,64.69
				c0.165,0,0.323-0.01,0.477-0.031c0.153-0.02,0.275-0.041,0.365-0.064v0.598c-0.101,0.041-0.25,0.075-0.446,0.101
				c-0.196,0.027-0.373,0.04-0.53,0.04c-1.189,0-1.784-0.526-1.784-1.578v-3.072h-0.881v-0.377l0.881-0.325l0.393-1.102h0.538v1.197
				h1.784v0.608h-1.784v3.039c0,0.311,0.088,0.55,0.264,0.716S20.641,64.69,20.948,64.69z"/>
			<path style="fill:none;stroke:#231F20;stroke-width:0.2717;stroke-miterlimit:10;" d="M25.902,65.336
				c-0.909,0-1.626-0.232-2.151-0.697c-0.525-0.465-0.788-1.11-0.788-1.936c0-0.832,0.244-1.494,0.732-1.984
				c0.488-0.49,1.143-0.735,1.966-0.735c0.77,0,1.38,0.213,1.828,0.638c0.449,0.426,0.673,0.987,0.673,1.684v0.495h-4.235
				c0.019,0.606,0.201,1.066,0.547,1.38c0.346,0.314,0.833,0.471,1.461,0.471c0.662,0,1.316-0.116,1.963-0.349v0.697
				c-0.329,0.119-0.64,0.205-0.934,0.257C26.671,65.31,26.317,65.336,25.902,65.336z M25.649,60.638
				c-0.494,0-0.887,0.135-1.181,0.405s-0.466,0.644-0.519,1.121h3.214c0-0.493-0.131-0.871-0.393-1.133
				C26.509,60.77,26.135,60.638,25.649,60.638z"/>
			<path style="fill:none;stroke:#231F20;stroke-width:0.2717;stroke-miterlimit:10;" d="M37.872,65.241v-3.359
				c0-0.411-0.105-0.72-0.314-0.926c-0.209-0.206-0.535-0.309-0.976-0.309c-0.58,0-1.008,0.14-1.284,0.419
				c-0.277,0.28-0.415,0.71-0.415,1.291v2.883h-0.931v-3.359c0-0.411-0.105-0.72-0.314-0.926c-0.209-0.206-0.537-0.309-0.982-0.309
				c-0.583,0-1.011,0.147-1.282,0.441c-0.271,0.294-0.407,0.775-0.407,1.444v2.709h-0.931v-5.164h0.757l0.151,0.707h0.045
				c0.176-0.251,0.423-0.448,0.743-0.589c0.32-0.141,0.678-0.212,1.074-0.212c0.961,0,1.589,0.292,1.885,0.876h0.045
				c0.183-0.27,0.449-0.484,0.796-0.641c0.348-0.157,0.744-0.236,1.189-0.236c0.695,0,1.216,0.15,1.562,0.45
				c0.346,0.3,0.519,0.78,0.519,1.439v3.369H37.872z"/>
			<path style="fill:none;stroke:#231F20;stroke-width:0.2717;stroke-miterlimit:10;" d="M44.974,63.833
				c0,0.481-0.213,0.851-0.639,1.112c-0.426,0.261-1.025,0.391-1.795,0.391c-0.815,0-1.451-0.108-1.907-0.325v-0.726
				c0.295,0.126,0.612,0.225,0.951,0.297c0.338,0.072,0.665,0.108,0.979,0.108c0.486,0,0.86-0.065,1.122-0.196
				c0.262-0.13,0.393-0.329,0.393-0.596c0-0.201-0.104-0.373-0.311-0.516c-0.208-0.143-0.612-0.312-1.214-0.507
				c-0.572-0.179-0.979-0.335-1.22-0.469c-0.241-0.134-0.421-0.285-0.538-0.455c-0.118-0.17-0.177-0.372-0.177-0.608
				c0-0.421,0.204-0.753,0.611-0.996c0.408-0.243,0.967-0.365,1.677-0.365c0.662,0,1.309,0.113,1.941,0.339l-0.331,0.636
				c-0.617-0.214-1.176-0.32-1.677-0.32c-0.441,0-0.774,0.058-0.998,0.174c-0.224,0.116-0.337,0.276-0.337,0.481
				c0,0.138,0.042,0.256,0.126,0.353c0.084,0.097,0.22,0.19,0.407,0.278c0.187,0.088,0.546,0.215,1.077,0.382
				c0.729,0.223,1.222,0.448,1.478,0.674C44.846,63.206,44.974,63.49,44.974,63.833z"/>
			<path style="fill:none;stroke:#231F20;stroke-width:0.2717;stroke-miterlimit:10;" d="M59.187,65.241l-1.021-2.191h-3.287
				l-1.01,2.191h-0.965l3.242-6.916h0.802l3.225,6.916H59.187z M57.868,62.33l-0.953-2.134c-0.123-0.27-0.251-0.601-0.381-0.994
				c-0.082,0.301-0.2,0.633-0.353,0.994l-0.965,2.134H57.868z"/>
			<path style="fill:none;stroke:#231F20;stroke-width:0.2717;stroke-miterlimit:10;" d="M66.881,60.078v0.495l-1.139,0.113
				c0.105,0.11,0.198,0.254,0.28,0.431c0.082,0.177,0.123,0.378,0.123,0.601c0,0.506-0.206,0.909-0.617,1.211
				c-0.411,0.301-0.976,0.452-1.694,0.452c-0.183,0-0.355-0.013-0.516-0.038c-0.396,0.176-0.595,0.397-0.595,0.664
				c0,0.141,0.069,0.246,0.208,0.313c0.138,0.068,0.376,0.101,0.712,0.101h1.088c0.666,0,1.177,0.118,1.534,0.353
				c0.357,0.236,0.536,0.578,0.536,1.027c0,0.572-0.273,1.007-0.819,1.307c-0.546,0.3-1.342,0.45-2.389,0.45
				c-0.804,0-1.424-0.126-1.859-0.377c-0.436-0.251-0.653-0.606-0.653-1.065c0-0.314,0.12-0.586,0.359-0.815
				c0.239-0.229,0.576-0.385,1.01-0.466c-0.157-0.06-0.289-0.152-0.395-0.278c-0.107-0.126-0.16-0.272-0.16-0.438
				c0-0.188,0.06-0.353,0.179-0.495c0.12-0.141,0.308-0.278,0.566-0.41c-0.318-0.11-0.577-0.297-0.777-0.561
				c-0.2-0.264-0.3-0.565-0.3-0.905c0-0.565,0.202-1.001,0.606-1.307c0.404-0.306,0.976-0.459,1.716-0.459
				c0.322,0,0.611,0.031,0.869,0.094H66.881z M61.979,66.108c0,0.28,0.14,0.491,0.421,0.636c0.28,0.144,0.682,0.217,1.206,0.217
				c0.781,0,1.36-0.098,1.736-0.294c0.376-0.196,0.564-0.462,0.564-0.799c0-0.28-0.103-0.474-0.308-0.582
				c-0.206-0.108-0.593-0.163-1.161-0.163H63.32c-0.423,0-0.752,0.085-0.987,0.254C62.097,65.548,61.979,65.791,61.979,66.108z
				 M62.484,61.732c0,0.361,0.122,0.634,0.365,0.82c0.243,0.185,0.581,0.278,1.015,0.278c0.909,0,1.363-0.371,1.363-1.112
				c0-0.776-0.46-1.164-1.38-1.164c-0.437,0-0.774,0.099-1.01,0.297C62.602,61.048,62.484,61.342,62.484,61.732z"/>
			<path style="fill:none;stroke:#231F20;stroke-width:0.2717;stroke-miterlimit:10;" d="M71.429,65.336
				c-0.909,0-1.626-0.232-2.151-0.697c-0.525-0.465-0.788-1.11-0.788-1.936c0-0.832,0.244-1.494,0.732-1.984
				c0.488-0.49,1.143-0.735,1.966-0.735c0.77,0,1.38,0.213,1.828,0.638c0.449,0.426,0.673,0.987,0.673,1.684v0.495h-4.235
				c0.019,0.606,0.201,1.066,0.547,1.38c0.346,0.314,0.833,0.471,1.461,0.471c0.662,0,1.316-0.116,1.963-0.349v0.697
				c-0.329,0.119-0.64,0.205-0.934,0.257C72.198,65.31,71.844,65.336,71.429,65.336z M71.177,60.638
				c-0.494,0-0.887,0.135-1.181,0.405c-0.294,0.27-0.466,0.644-0.519,1.121h3.214c0-0.493-0.131-0.871-0.393-1.133
				C72.037,60.77,71.663,60.638,71.177,60.638z"/>
			<path style="fill:none;stroke:#231F20;stroke-width:0.2717;stroke-miterlimit:10;" d="M80.173,65.241v-3.34
				c0-0.421-0.114-0.735-0.342-0.942c-0.228-0.207-0.585-0.311-1.071-0.311c-0.643,0-1.114,0.146-1.413,0.438
				s-0.449,0.774-0.449,1.446v2.709h-0.931v-5.164h0.757l0.151,0.707h0.045c0.191-0.254,0.458-0.452,0.802-0.591
				c0.344-0.14,0.727-0.21,1.15-0.21c0.74,0,1.298,0.15,1.671,0.45c0.374,0.3,0.561,0.78,0.561,1.439v3.369H80.173z"/>
			<path style="fill:none;stroke:#231F20;stroke-width:0.2717;stroke-miterlimit:10;" d="M86.162,65.336
				c-0.89,0-1.579-0.23-2.067-0.69c-0.488-0.46-0.732-1.111-0.732-1.953c0-0.864,0.248-1.531,0.743-2.002
				c0.495-0.471,1.201-0.707,2.117-0.707c0.295,0,0.591,0.027,0.886,0.08c0.295,0.054,0.527,0.116,0.695,0.188l-0.286,0.664
				c-0.206-0.069-0.43-0.126-0.673-0.172c-0.243-0.046-0.458-0.068-0.645-0.068c-1.249,0-1.873,0.669-1.873,2.007
				c0,0.634,0.152,1.121,0.457,1.461c0.305,0.339,0.756,0.509,1.355,0.509c0.512,0,1.038-0.093,1.576-0.278v0.693
				C87.305,65.246,86.787,65.336,86.162,65.336z"/>
			<path style="fill:none;stroke:#231F20;stroke-width:0.2717;stroke-miterlimit:10;" d="M88.887,60.078h0.998l1.346,2.945
				c0.295,0.672,0.479,1.158,0.55,1.456h0.045c0.049-0.16,0.151-0.434,0.306-0.822c0.155-0.388,0.663-1.581,1.523-3.578h0.998
				l-2.642,5.88c-0.262,0.581-0.567,0.993-0.917,1.237c-0.35,0.243-0.779,0.365-1.287,0.365c-0.284,0-0.565-0.027-0.841-0.08v-0.627
				c0.206,0.038,0.436,0.057,0.69,0.057c0.639,0,1.096-0.301,1.369-0.905l0.342-0.735L88.887,60.078z"/>
		</g>
	</g>
	<circle style="fill:#EC1C24;" cx="49.282" cy="62.285" r="1.696"/>
</g>
</svg>
