<?xml version="1.0" encoding="iso-8859-1"?>
<!-- Generator: Adobe Illustrator 20.1.0, SVG Export Plug-In . SVG Version: 6.00 Build 0)  -->
<!DOCTYPE svg PUBLIC "-//W3C//DTD SVG 1.1//EN" "http://www.w3.org/Graphics/SVG/1.1/DTD/svg11.dtd">
<svg version="1.1" id="Layer_1" xmlns="http://www.w3.org/2000/svg" xmlns:xlink="http://www.w3.org/1999/xlink" x="0px" y="0px"
	 viewBox="0 0 665.076 66.411" style="enable-background:new 0 0 665.076 66.411;" xml:space="preserve">
<g>
	<g>
		<path style="fill:#231F20;" d="M253.921,38.89c1.172,0.674,2.931,1.26,4.777,1.26c2.316,0,3.605-1.084,3.605-2.696
			c0-1.495-0.996-2.374-3.518-3.283c-3.253-1.172-5.334-2.902-5.334-5.745c0-3.225,2.696-5.687,6.976-5.687
			c2.14,0,3.723,0.469,4.749,0.997l-0.88,2.902c-0.703-0.381-2.081-0.938-3.928-0.938c-2.286,0-3.283,1.231-3.283,2.374
			c0,1.524,1.144,2.228,3.782,3.254c3.429,1.29,5.1,3.019,5.1,5.863c0,3.165-2.403,5.921-7.504,5.921
			c-2.081,0-4.25-0.586-5.335-1.231L253.921,38.89z"/>
		<path style="fill:#231F20;" d="M281.853,38.538c0,1.7,0.059,3.107,0.117,4.28h-3.166l-0.176-2.169h-0.059
			c-0.615,1.025-2.022,2.491-4.572,2.491c-2.608,0-4.983-1.554-4.983-6.214v-8.384h3.605v7.768c0,2.375,0.763,3.898,2.668,3.898
			c1.436,0,2.374-1.025,2.755-1.935c0.117-0.322,0.205-0.703,0.205-1.113v-8.618h3.605V38.538z"/>
		<path style="fill:#231F20;" d="M285.572,39.506c0.821,0.498,2.374,1.026,3.664,1.026c1.583,0,2.286-0.646,2.286-1.583
			c0-0.968-0.586-1.466-2.345-2.081c-2.784-0.968-3.957-2.492-3.928-4.163c0-2.521,2.081-4.485,5.394-4.485
			c1.583,0,2.96,0.411,3.781,0.85l-0.703,2.55c-0.616-0.352-1.759-0.821-3.02-0.821c-1.29,0-1.993,0.616-1.993,1.495
			c0,0.909,0.674,1.348,2.491,1.993c2.58,0.938,3.781,2.257,3.811,4.368c0,2.579-2.022,4.455-5.804,4.455
			c-1.729,0-3.283-0.41-4.338-0.997L285.572,39.506z"/>
		<path style="fill:#231F20;" d="M302.103,24.468v4.075h3.43v2.697h-3.43v6.302c0,1.729,0.469,2.638,1.847,2.638
			c0.615,0,1.085-0.088,1.407-0.176l0.059,2.756c-0.528,0.205-1.466,0.352-2.609,0.352c-1.318,0-2.433-0.439-3.106-1.173
			c-0.763-0.82-1.114-2.11-1.114-3.986v-6.712h-2.052v-2.697h2.052v-3.225L302.103,24.468z"/>
		<path style="fill:#231F20;" d="M316.288,42.818l-0.234-1.583h-0.088c-0.88,1.113-2.374,1.905-4.221,1.905
			c-2.873,0-4.485-2.081-4.485-4.25c0-3.605,3.195-5.423,8.472-5.394v-0.234c0-0.938-0.381-2.492-2.902-2.492
			c-1.407,0-2.872,0.44-3.84,1.055l-0.703-2.345c1.055-0.645,2.901-1.261,5.159-1.261c4.572,0,5.892,2.902,5.892,6.009v5.159
			c0,1.29,0.059,2.55,0.205,3.43H316.288z M315.819,35.842c-2.551-0.059-4.983,0.498-4.983,2.667c0,1.407,0.909,2.053,2.052,2.053
			c1.437,0,2.492-0.938,2.814-1.965c0.088-0.264,0.117-0.557,0.117-0.791V35.842z"/>
		<path style="fill:#231F20;" d="M326.984,24.556c0,1.084-0.791,1.935-2.052,1.935c-1.201,0-1.993-0.85-1.993-1.935
			c0-1.114,0.821-1.964,2.022-1.964C326.193,22.592,326.955,23.442,326.984,24.556z M323.145,42.818V28.543h3.635v14.275H323.145z"
			/>
		<path style="fill:#231F20;" d="M330.647,32.793c0-1.641-0.029-3.019-0.117-4.25h3.165l0.176,2.14h0.089
			c0.615-1.114,2.169-2.462,4.543-2.462c2.491,0,5.071,1.612,5.071,6.126v8.472h-3.605v-8.062c0-2.052-0.763-3.605-2.727-3.605
			c-1.436,0-2.433,1.026-2.813,2.11c-0.117,0.322-0.146,0.762-0.146,1.172v8.384h-3.635V32.793z"/>
		<path style="fill:#231F20;" d="M355.443,42.818l-0.235-1.583h-0.088c-0.879,1.113-2.374,1.905-4.221,1.905
			c-2.872,0-4.484-2.081-4.484-4.25c0-3.605,3.194-5.423,8.471-5.394v-0.234c0-0.938-0.381-2.492-2.901-2.492
			c-1.407,0-2.873,0.44-3.84,1.055l-0.704-2.345c1.056-0.645,2.902-1.261,5.159-1.261c4.572,0,5.892,2.902,5.892,6.009v5.159
			c0,1.29,0.059,2.55,0.205,3.43H355.443z M354.974,35.842c-2.55-0.059-4.982,0.498-4.982,2.667c0,1.407,0.908,2.053,2.052,2.053
			c1.437,0,2.491-0.938,2.813-1.965c0.088-0.264,0.117-0.557,0.117-0.791V35.842z"/>
		<path style="fill:#231F20;" d="M362.183,42.818c0.059-0.968,0.117-2.551,0.117-4.016V22.006h3.605v8.5h0.059
			c0.879-1.378,2.433-2.287,4.572-2.287c3.488,0,5.979,2.902,5.95,7.241c0,5.13-3.253,7.68-6.478,7.68
			c-1.847,0-3.488-0.703-4.515-2.462h-0.059l-0.176,2.14H362.183z M365.905,36.926c0,0.293,0.029,0.586,0.088,0.85
			c0.381,1.437,1.642,2.521,3.194,2.521c2.258,0,3.635-1.817,3.635-4.689c0-2.521-1.201-4.573-3.605-4.573
			c-1.465,0-2.784,1.056-3.194,2.638c-0.059,0.264-0.117,0.586-0.117,0.938V36.926z"/>
		<path style="fill:#231F20;" d="M379.444,22.006h3.635v20.812h-3.635V22.006z"/>
		<path style="fill:#231F20;" d="M389.526,36.691c0.088,2.58,2.11,3.693,4.396,3.693c1.671,0,2.873-0.234,3.957-0.645l0.527,2.491
			c-1.23,0.499-2.931,0.88-4.982,0.88c-4.632,0-7.357-2.844-7.357-7.211c0-3.958,2.403-7.68,6.977-7.68
			c4.631,0,6.155,3.811,6.155,6.948c0,0.674-0.059,1.201-0.117,1.523H389.526z M395.799,34.171c0.029-1.319-0.557-3.488-2.961-3.488
			c-2.228,0-3.165,2.022-3.312,3.488H395.799z"/>
		<path style="fill:#231F20;" d="M408.312,23.061h11.402v2.96h-7.797v5.452h7.27v2.96h-7.27v8.384h-3.605V23.061z"/>
		<path style="fill:#231F20;" d="M426.922,24.556c0,1.084-0.791,1.935-2.052,1.935c-1.201,0-1.993-0.85-1.993-1.935
			c0-1.114,0.821-1.964,2.022-1.964C426.131,22.592,426.893,23.442,426.922,24.556z M423.082,42.818V28.543h3.635v14.275H423.082z"
			/>
		<path style="fill:#231F20;" d="M430.585,32.793c0-1.641-0.029-3.019-0.117-4.25h3.165l0.176,2.14h0.089
			c0.615-1.114,2.169-2.462,4.543-2.462c2.491,0,5.071,1.612,5.071,6.126v8.472h-3.605v-8.062c0-2.052-0.763-3.605-2.727-3.605
			c-1.436,0-2.433,1.026-2.813,2.11c-0.117,0.322-0.146,0.762-0.146,1.172v8.384h-3.635V32.793z"/>
		<path style="fill:#231F20;" d="M455.381,42.818l-0.235-1.583h-0.088c-0.879,1.113-2.374,1.905-4.221,1.905
			c-2.872,0-4.484-2.081-4.484-4.25c0-3.605,3.194-5.423,8.471-5.394v-0.234c0-0.938-0.381-2.492-2.901-2.492
			c-1.407,0-2.873,0.44-3.84,1.055l-0.704-2.345c1.056-0.645,2.902-1.261,5.159-1.261c4.572,0,5.892,2.902,5.892,6.009v5.159
			c0,1.29,0.059,2.55,0.205,3.43H455.381z M454.911,35.842c-2.55-0.059-4.982,0.498-4.982,2.667c0,1.407,0.908,2.053,2.052,2.053
			c1.437,0,2.491-0.938,2.813-1.965c0.088-0.264,0.117-0.557,0.117-0.791V35.842z"/>
		<path style="fill:#231F20;" d="M462.237,32.793c0-1.641-0.029-3.019-0.117-4.25h3.165l0.176,2.14h0.089
			c0.615-1.114,2.169-2.462,4.543-2.462c2.491,0,5.071,1.612,5.071,6.126v8.472h-3.605v-8.062c0-2.052-0.763-3.605-2.727-3.605
			c-1.436,0-2.433,1.026-2.813,2.11c-0.117,0.322-0.146,0.762-0.146,1.172v8.384h-3.635V32.793z"/>
		<path style="fill:#231F20;" d="M489.494,42.379c-0.762,0.352-2.257,0.732-4.045,0.732c-4.455,0-7.357-2.844-7.357-7.27
			c0-4.28,2.932-7.622,7.944-7.622c1.318,0,2.667,0.293,3.487,0.674l-0.645,2.697c-0.586-0.264-1.437-0.557-2.726-0.557
			c-2.756,0-4.397,2.023-4.368,4.632c0,2.931,1.905,4.602,4.368,4.602c1.26,0,2.14-0.264,2.843-0.557L489.494,42.379z"/>
		<path style="fill:#231F20;" d="M494.71,36.691c0.088,2.58,2.11,3.693,4.396,3.693c1.671,0,2.873-0.234,3.958-0.645l0.527,2.491
			c-1.231,0.499-2.932,0.88-4.983,0.88c-4.631,0-7.357-2.844-7.357-7.211c0-3.958,2.404-7.68,6.977-7.68
			c4.631,0,6.155,3.811,6.155,6.948c0,0.674-0.059,1.201-0.117,1.523H494.71z M500.982,34.171c0.029-1.319-0.557-3.488-2.96-3.488
			c-2.228,0-3.166,2.022-3.312,3.488H500.982z"/>
		<path style="fill:#231F20;" d="M513.407,38.89c1.172,0.674,2.931,1.26,4.777,1.26c2.316,0,3.605-1.084,3.605-2.696
			c0-1.495-0.996-2.374-3.518-3.283c-3.253-1.172-5.334-2.902-5.334-5.745c0-3.225,2.696-5.687,6.976-5.687
			c2.14,0,3.723,0.469,4.749,0.997l-0.88,2.902c-0.703-0.381-2.081-0.938-3.928-0.938c-2.286,0-3.283,1.231-3.283,2.374
			c0,1.524,1.144,2.228,3.782,3.254c3.429,1.29,5.1,3.019,5.1,5.863c0,3.165-2.403,5.921-7.504,5.921
			c-2.081,0-4.25-0.586-5.335-1.231L513.407,38.89z"/>
		<path style="fill:#231F20;" d="M530.816,28.543l2.579,7.65c0.294,0.88,0.587,1.964,0.792,2.785h0.088
			c0.234-0.821,0.498-1.876,0.762-2.814l2.228-7.621h3.869l-3.575,9.731c-1.964,5.335-3.283,7.709-4.983,9.175
			c-1.407,1.261-2.873,1.729-3.781,1.847l-0.821-3.048c0.616-0.147,1.378-0.47,2.111-0.997c0.674-0.439,1.465-1.29,1.964-2.257
			c0.146-0.264,0.234-0.469,0.234-0.646c0-0.146-0.029-0.352-0.205-0.703l-5.218-13.103H530.816z"/>
		<path style="fill:#231F20;" d="M543.037,39.506c0.821,0.498,2.374,1.026,3.664,1.026c1.583,0,2.286-0.646,2.286-1.583
			c0-0.968-0.586-1.466-2.345-2.081c-2.784-0.968-3.957-2.492-3.928-4.163c0-2.521,2.081-4.485,5.394-4.485
			c1.583,0,2.96,0.411,3.781,0.85l-0.703,2.55c-0.616-0.352-1.759-0.821-3.02-0.821c-1.29,0-1.993,0.616-1.993,1.495
			c0,0.909,0.674,1.348,2.491,1.993c2.58,0.938,3.781,2.257,3.811,4.368c0,2.579-2.022,4.455-5.804,4.455
			c-1.729,0-3.283-0.41-4.338-0.997L543.037,39.506z"/>
		<path style="fill:#231F20;" d="M559.567,24.468v4.075h3.43v2.697h-3.43v6.302c0,1.729,0.469,2.638,1.847,2.638
			c0.615,0,1.085-0.088,1.407-0.176l0.059,2.756c-0.528,0.205-1.466,0.352-2.609,0.352c-1.318,0-2.433-0.439-3.106-1.173
			c-0.763-0.82-1.114-2.11-1.114-3.986v-6.712h-2.052v-2.697h2.052v-3.225L559.567,24.468z"/>
		<path style="fill:#231F20;" d="M568.271,36.691c0.088,2.58,2.11,3.693,4.396,3.693c1.671,0,2.873-0.234,3.958-0.645l0.527,2.491
			c-1.231,0.499-2.932,0.88-4.983,0.88c-4.631,0-7.357-2.844-7.357-7.211c0-3.958,2.404-7.68,6.977-7.68
			c4.631,0,6.155,3.811,6.155,6.948c0,0.674-0.059,1.201-0.117,1.523H568.271z M574.544,34.171c0.029-1.319-0.557-3.488-2.96-3.488
			c-2.228,0-3.166,2.022-3.312,3.488H574.544z"/>
		<path style="fill:#231F20;" d="M580.844,32.793c0-1.641-0.029-3.019-0.117-4.25h3.107l0.146,2.11h0.088
			c0.703-1.114,1.993-2.433,4.396-2.433c1.876,0,3.342,1.056,3.957,2.638h0.059c0.499-0.792,1.085-1.377,1.759-1.788
			c0.792-0.557,1.7-0.85,2.873-0.85c2.374,0,4.777,1.612,4.777,6.185v8.413h-3.517v-7.885c0-2.375-0.821-3.782-2.551-3.782
			c-1.23,0-2.14,0.879-2.521,1.905c-0.088,0.352-0.176,0.792-0.176,1.202v8.56h-3.518v-8.267c0-1.993-0.791-3.4-2.462-3.4
			c-1.349,0-2.258,1.055-2.58,2.052c-0.146,0.352-0.205,0.762-0.205,1.172v8.442h-3.518V32.793z"/>
		<path style="fill:#231F20;" d="M628.588,34.757c-0.117-2.55-0.264-5.628-0.234-8.295h-0.088c-0.645,2.403-1.466,5.071-2.345,7.563
			l-2.873,8.56h-2.784l-2.639-8.442c-0.762-2.521-1.465-5.218-1.993-7.68h-0.059c-0.088,2.579-0.205,5.716-0.352,8.413l-0.439,7.943
			h-3.371l1.319-19.757h4.748l2.58,7.943c0.703,2.316,1.318,4.661,1.817,6.859h0.088c0.527-2.14,1.201-4.573,1.964-6.889
			l2.726-7.914h4.69l1.143,19.757h-3.518L628.588,34.757z"/>
		<path style="fill:#231F20;" d="M644.032,42.818l-0.235-1.583h-0.088c-0.879,1.113-2.374,1.905-4.221,1.905
			c-2.872,0-4.484-2.081-4.484-4.25c0-3.605,3.194-5.423,8.471-5.394v-0.234c0-0.938-0.381-2.492-2.901-2.492
			c-1.407,0-2.873,0.44-3.84,1.055l-0.704-2.345c1.056-0.645,2.902-1.261,5.159-1.261c4.572,0,5.892,2.902,5.892,6.009v5.159
			c0,1.29,0.059,2.55,0.205,3.43H644.032z M643.562,35.842c-2.55-0.059-4.982,0.498-4.982,2.667c0,1.407,0.908,2.053,2.052,2.053
			c1.437,0,2.491-0.938,2.813-1.965c0.088-0.264,0.117-0.557,0.117-0.791V35.842z"/>
		<path style="fill:#231F20;" d="M650.889,33.291c0-1.876-0.059-3.4-0.117-4.749h3.166l0.176,2.198h0.059
			c1.056-1.612,2.726-2.521,4.896-2.521c3.282,0,6.009,2.814,6.009,7.27c0,5.159-3.254,7.65-6.508,7.65
			c-1.788,0-3.282-0.762-4.016-1.905h-0.059v7.387h-3.605V33.291z M654.494,36.839c0,0.352,0.029,0.674,0.117,0.996
			c0.352,1.466,1.642,2.521,3.166,2.521c2.286,0,3.635-1.905,3.635-4.719c0-2.521-1.231-4.573-3.547-4.573
			c-1.495,0-2.873,1.085-3.225,2.668c-0.088,0.293-0.146,0.615-0.146,0.908V36.839z"/>
	</g>
	<g id="TellusMater1_2_">
		<g>
			<path d="M21.377,16.942H0v7.702h2.246l0.287-5.54h6.643v20.957c0,0.337-0.419,0.811-0.809,0.811H6.045v2.089h9.322v-2.089h-2.358
				c-0.384,0-0.773-0.469-0.773-0.811V19.104h6.612l0.324,5.54h2.206V16.942z"/>
			<path d="M29.35,23.156c-5.481,0-9.162,4.052-9.162,10.073c0,3.003,0.854,5.496,2.47,7.215c1.68,1.758,4.088,2.657,7.158,2.657
				c3.808,0,6.114-1.168,7.384-2.161l0.156-0.136v-2.052h-1.831l-0.123,0.142c-0.789,0.942-2.373,2.046-5.441,2.046
				c-4.34,0-6.691-2.562-6.816-7.41h14.231l0.403-0.011l0.01-0.398c0-0.021,0.003-0.043,0.005-0.093
				c0.009-0.133,0.031-0.366,0.031-0.669C37.825,26.43,34.816,23.156,29.35,23.156z M29.35,25.294c3.477,0,5.342,2.056,5.547,6.12
				H23.253C23.715,27.564,25.968,25.294,29.35,25.294z"/>
			<path d="M45.167,40.245V18.003c0-0.882-0.477-1.061-0.88-1.061h-4.983v2.118h2.323c0.311,0,0.664,0.398,0.664,0.671v20.514
				c0,0.296-0.349,0.628-0.664,0.628h-2.181v2.089h8.601v-2.089h-2.21C45.518,40.873,45.167,40.54,45.167,40.245z"/>
			<path d="M55.876,40.245V18.003c0-0.882-0.476-1.061-0.881-1.061h-4.983v2.118h2.324c0.311,0,0.665,0.398,0.665,0.671v20.514
				c0,0.296-0.35,0.628-0.665,0.628h-2.181v2.089h8.603v-2.089h-2.217C56.227,40.873,55.876,40.54,55.876,40.245z"/>
			<path d="M77.944,40.202V23.343h-5.865v2.161h2.989v12.625c-1.651,1.247-4.105,2.672-6.679,2.672c-2.011,0-3.26-0.537-3.26-3.251
				V23.343h-5.645v2.161h2.102c0.264,0,0.633,0.346,0.633,0.665v11.961c0,3.347,1.775,5.046,5.269,5.046
				c3.223,0,5.817-1.459,7.581-2.896v1.092c0.018,0.599,0.058,1.591,1.023,1.591h4.701v-2.089H78.61
				C78.302,40.873,77.944,40.527,77.944,40.202z"/>
			<path d="M90.793,31.59c-3.592-0.605-4.517-1.251-4.517-3.148c0-2.012,1.489-3.122,4.191-3.122c1.839,0,2.655,0.208,3.307,0.498
				c0.449,0.233,0.678,0.564,0.856,2.024l0.044,0.358h2.037v-4.124l-0.276-0.093c-1.511-0.544-3.51-0.827-5.929-0.827
				c-4.406,0-6.93,2.023-6.93,5.539c0,3.997,2.921,4.819,6.178,5.376c3.621,0.602,4.726,1.355,4.726,3.231
				c0,2.481-1.534,3.681-4.696,3.681c-1.714,0-2.737-0.178-3.781-0.64c-0.362-0.168-0.586-0.902-0.702-2.257l-0.032-0.371h-2.086
				v4.323l0.264,0.104c1.156,0.444,3.206,0.959,6.374,0.959c6.202,0,7.507-3.295,7.507-6.047
				C97.327,33.4,94.825,32.252,90.793,31.59z"/>
		</g>
		<g>
			<g>
				<path style="fill:#8F9194;" d="M153.863,38.008l-7.811-21.096h-7.291v2.118h2.071c0.384,0,0.816,0.505,0.816,0.848V40.03
					c0,0.332-0.42,0.827-0.816,0.827h-2.071v2.072h8.716v-2.072h-3.278V20.052l8.268,22.614l0.102,0.263h2.053l8.439-22.984v20.913
					h-3.278v2.072h9.213v-2.072h-2.106c-0.388,0-0.805-0.495-0.805-0.827V19.877c0-0.343,0.424-0.848,0.805-0.848h2.106v-2.118
					h-7.287L153.863,38.008z"/>
				<path style="fill:#8F9194;" d="M186.685,40.876c-0.671,0-1.063-0.199-1.063-1.259V28.776c0-3.801-2.17-5.634-6.64-5.634
					c-2.854,0-5.286,0.544-7.224,1.632l-0.208,0.118v2.344h1.614l0.119-0.112c1.236-1.098,3.078-1.683,5.339-1.683
					c2.902,0,4.088,1.02,4.088,3.502v2.928c-1.351-0.308-2.788-0.45-4.483-0.45c-5.021,0-7.899,2.128-7.899,5.843
					c0,3.675,2.362,5.843,6.315,5.843c2.642,0,4.432-0.698,6.099-2.459c0.191,1.569,1.334,2.441,3.261,2.441
					c0.844,0,1.55-0.248,1.8-0.381l0.232-0.115v-1.9l-0.482,0.081C187.382,40.805,186.893,40.876,186.685,40.876z M177.256,40.949
					c-1.863,0-4.088-0.66-4.088-3.796c0-3.248,3.397-3.727,5.422-3.727c1.344,0,2.693,0.148,4.121,0.467v4.235
					C181.525,39.617,180.03,40.949,177.256,40.949z"/>
				<path style="fill:#8F9194;" d="M197.72,40.618c-0.181,0.119-0.762,0.303-1.54,0.303c-1.429,0-2.107-0.395-2.107-2.646V25.471
					h4.895v-2.15h-4.895v-5.192h-2.919v5.192h-2.696v2.15h2.696v12.988c0,3.133,1.636,4.649,4.989,4.649
					c1.142,0,2.301-0.224,2.941-0.444l0.279-0.104v-2.004h-1.542L197.72,40.618z"/>
				<path style="fill:#8F9194;" d="M209.554,23.142c-5.477,0-9.158,4.041-9.158,10.053c0,3.02,0.851,5.513,2.465,7.209
					c1.681,1.776,4.088,2.686,7.161,2.686c3.808,0,6.117-1.196,7.382-2.187l0.158-0.129v-2.056h-1.83l-0.123,0.155
					c-0.788,0.931-2.374,2.049-5.444,2.049c-4.34,0-6.691-2.562-6.815-7.424h14.229h0.402l0.01-0.409c0,0,0.006-0.044,0.008-0.087
					c0.011-0.141,0.031-0.372,0.031-0.662C218.03,26.399,215.019,23.142,209.554,23.142z M209.554,25.261
					c3.474,0,5.341,2.055,5.544,6.119h-11.636C203.92,27.538,206.175,25.261,209.554,25.261z"/>
				<path style="fill:#8F9194;" d="M232.107,23.335c-0.179-0.057-0.554-0.123-1.031-0.123c-2.634,0-4.511,1.547-5.815,3.052v-1.237
					c0-0.55,0-1.706-1.058-1.706h-4.662v2.15h2.177c0.314,0,0.632,0.397,0.632,0.661V40.21c0,0.317-0.318,0.648-0.632,0.648h-1.995
					v2.072h8.995v-2.072h-3.457V28.815c1.863-2.128,3.736-3.121,5.886-3.121c0.307,0,0.794,0.024,0.8,0.024l0.443,0.037v-2.324
					L232.107,23.335z"/>
			</g>
			<g>
				<path style="fill:#8F9194;" d="M236.496,36.106c-2.069,0-3.513,1.458-3.513,3.553c0,2.092,1.444,3.548,3.513,3.548
					c2.073,0,3.522-1.456,3.522-3.553C240.018,37.564,238.569,36.106,236.496,36.106z M236.496,42.611
					c-1.437,0-2.884-0.913-2.884-2.952c0-2.044,1.447-2.958,2.884-2.958c1.757,0,2.894,1.161,2.894,2.954
					C239.39,41.698,237.935,42.611,236.496,42.611z"/>
				<path style="fill:#8F9194;" d="M237.513,40.588c-0.179,0.27-0.49,0.41-0.925,0.41c-0.94,0-1.138-0.738-1.138-1.364
					c0-0.844,0.431-1.329,1.187-1.329c0.332,0,0.534,0.11,0.665,0.21l0.074,0.72h0.649v-1.576h-0.687l-0.01,0.113
					c-0.145-0.057-0.39-0.139-0.759-0.139c-1.195,0-1.969,0.79-1.969,2.014c0,1.25,0.753,2.029,1.961,2.029
					c0.645,0,1.122-0.175,1.497-0.556l0.054-0.048v-0.567h-0.541L237.513,40.588z"/>
			</g>
		</g>
		<g>
			<path style="fill:#68C7C6;" d="M104.608,42.196c0,0.429-0.347,0.776-0.776,0.776c-0.423,0-0.772-0.348-0.772-0.776
				s0.349-0.76,0.772-0.76C104.261,41.436,104.608,41.767,104.608,42.196z"/>
			<path style="fill:#68C7C6;" d="M106.239,42.676c0,0.424-0.349,0.775-0.772,0.775c-0.431,0-0.776-0.351-0.776-0.775
				c0-0.413,0.345-0.767,0.776-0.767C105.89,41.909,106.239,42.263,106.239,42.676z"/>
			<ellipse style="fill:#68C7C6;" cx="106.238" cy="44.877" rx="0.771" ry="0.777"/>
			<path style="fill:#68C7C6;" d="M109.148,44.517c0,0.43-0.35,0.781-0.778,0.781c-0.423,0-0.773-0.351-0.773-0.781
				c0-0.43,0.35-0.766,0.773-0.766C108.798,43.751,109.148,44.087,109.148,44.517z"/>
			<path style="fill:#68C7C6;" d="M108.527,46.574c0,0.432-0.35,0.779-0.777,0.779c-0.425,0-0.774-0.348-0.774-0.779
				c0-0.426,0.349-0.764,0.774-0.764C108.177,45.81,108.527,46.148,108.527,46.574z"/>
			<path style="fill:#68C7C6;" d="M110.099,46.728c0,0.416-0.35,0.764-0.776,0.764c-0.427,0-0.776-0.348-0.776-0.764
				c0-0.427,0.348-0.781,0.776-0.781C109.749,45.947,110.099,46.301,110.099,46.728z"/>
			<path style="fill:#68C7C6;" d="M111.67,48.37c0,0.424-0.35,0.767-0.776,0.767c-0.426,0-0.777-0.343-0.777-0.767
				c0-0.429,0.352-0.779,0.777-0.779C111.32,47.59,111.67,47.941,111.67,48.37z"/>
			<circle style="fill:#68C7C6;" cx="114.354" cy="49.261" r="0.774"/>
			<path style="fill:#68C7C6;" d="M115.335,41.343c0,0.424-0.351,0.766-0.771,0.766c-0.43,0-0.777-0.341-0.777-0.766
				c0-0.427,0.347-0.779,0.777-0.779C114.985,40.563,115.335,40.916,115.335,41.343z"/>
			<path style="fill:#68C7C6;" d="M112.239,42.35c0,0.429-0.349,0.776-0.771,0.776c-0.429,0-0.783-0.347-0.783-0.776
				c0-0.418,0.354-0.766,0.783-0.766C111.89,41.585,112.239,41.932,112.239,42.35z"/>
			<path style="fill:#68C7C6;" d="M109.05,41.94c0,0.43-0.349,0.781-0.773,0.781c-0.429,0-0.776-0.351-0.776-0.781
				c0-0.421,0.347-0.764,0.776-0.764C108.701,41.176,109.05,41.519,109.05,41.94z"/>
			<ellipse style="fill:#68C7C6;" cx="105.53" cy="40.242" rx="0.773" ry="0.781"/>
			<path style="fill:#68C7C6;" d="M103.907,40.012c0,0.432-0.342,0.763-0.772,0.763s-0.772-0.331-0.772-0.763
				c0-0.433,0.342-0.781,0.772-0.781S103.907,39.579,103.907,40.012z"/>
			<path style="fill:#68C7C6;" d="M113.423,47.711c0,0.421-0.342,0.764-0.772,0.764c-0.43,0-0.771-0.343-0.771-0.764
				c0-0.432,0.341-0.781,0.771-0.781C113.081,46.93,113.423,47.28,113.423,47.711z"/>
			<path style="fill:#68C7C6;" d="M113.423,47.713c0,0.42-0.342,0.764-0.772,0.764c-0.43,0-0.771-0.344-0.771-0.764
				c0-0.432,0.341-0.782,0.771-0.782C113.081,46.93,113.423,47.281,113.423,47.713z"/>
			<path style="fill:#68C7C6;" d="M113.423,47.711c0,0.421-0.342,0.764-0.772,0.764c-0.43,0-0.771-0.343-0.771-0.764
				c0-0.432,0.341-0.781,0.771-0.781C113.081,46.93,113.423,47.28,113.423,47.711z"/>
			<path style="fill:#68C7C6;" d="M113.423,47.713c0,0.42-0.342,0.764-0.772,0.764c-0.43,0-0.771-0.344-0.771-0.764
				c0-0.432,0.341-0.782,0.771-0.782C113.081,46.93,113.423,47.281,113.423,47.713z"/>
			<path style="fill:#68C7C6;" d="M113.423,47.713c0,0.42-0.342,0.764-0.772,0.764c-0.43,0-0.771-0.344-0.771-0.764
				c0-0.429,0.341-0.779,0.771-0.779C113.081,46.933,113.423,47.284,113.423,47.713z"/>
			<path style="fill:#68C7C6;" d="M113.423,47.72c0,0.412-0.342,0.756-0.772,0.756c-0.43,0-0.771-0.344-0.771-0.756
				c0-0.436,0.341-0.784,0.771-0.784C113.081,46.936,113.423,47.284,113.423,47.72z"/>
			<path style="fill:#68C7C6;" d="M113.422,47.72c0,0.412-0.342,0.756-0.773,0.756c-0.429,0-0.77-0.344-0.77-0.756
				c0-0.436,0.341-0.784,0.77-0.784C113.08,46.936,113.422,47.284,113.422,47.72z"/>
			<path style="fill:#68C7C6;" d="M113.421,47.72c0,0.412-0.342,0.756-0.772,0.756s-0.772-0.344-0.772-0.756
				c0-0.436,0.342-0.784,0.772-0.784S113.421,47.284,113.421,47.72z"/>
			<path style="fill:#68C7C6;" d="M113.421,47.72c0,0.412-0.342,0.76-0.772,0.76s-0.772-0.348-0.772-0.76
				c0-0.436,0.342-0.782,0.772-0.782S113.421,47.284,113.421,47.72z"/>
			<path style="fill:#68C7C6;" d="M113.421,47.72c0,0.412-0.342,0.76-0.772,0.76s-0.772-0.348-0.772-0.76
				c0-0.432,0.342-0.782,0.772-0.782S113.421,47.289,113.421,47.72z"/>
			<path style="fill:#68C7C6;" d="M113.421,47.72c0,0.412-0.342,0.76-0.772,0.76s-0.772-0.348-0.772-0.76
				c0-0.432,0.342-0.782,0.772-0.782S113.421,47.289,113.421,47.72z"/>
			<path style="fill:#68C7C6;" d="M113.421,47.72c0,0.412-0.342,0.764-0.772,0.764s-0.772-0.352-0.772-0.764
				c0-0.429,0.342-0.779,0.772-0.779S113.421,47.292,113.421,47.72z"/>
			<circle style="fill:#68C7C6;" cx="116.487" cy="50.035" r="0.773"/>
			<ellipse style="fill:#68C7C6;" cx="117.909" cy="49.254" rx="0.773" ry="0.779"/>
			<path style="fill:#68C7C6;" d="M120.898,49.864c0,0.418-0.347,0.766-0.777,0.766c-0.42,0-0.772-0.348-0.772-0.766
				c0-0.427,0.352-0.778,0.772-0.778C120.551,49.086,120.898,49.437,120.898,49.864z"/>
			<path style="fill:#68C7C6;" d="M121.982,48.132c0,0.416-0.34,0.764-0.771,0.764c-0.43,0-0.773-0.348-0.773-0.764
				c0-0.429,0.343-0.779,0.773-0.779C121.642,47.353,121.982,47.704,121.982,48.132z"/>
			<path style="fill:#68C7C6;" d="M121.982,48.132c0,0.416-0.34,0.766-0.771,0.766c-0.43,0-0.773-0.349-0.773-0.766
				c0-0.429,0.343-0.778,0.773-0.778C121.642,47.354,121.982,47.704,121.982,48.132z"/>
			<path style="fill:#68C7C6;" d="M121.982,48.132c0,0.418-0.34,0.769-0.771,0.769c-0.43,0-0.773-0.351-0.773-0.769
				c0-0.427,0.343-0.775,0.773-0.775C121.642,47.358,121.982,47.705,121.982,48.132z"/>
			<path style="fill:#68C7C6;" d="M121.982,48.132c0,0.418-0.34,0.77-0.771,0.77c-0.43,0-0.773-0.352-0.773-0.77
				c0-0.426,0.343-0.775,0.773-0.775C121.642,47.358,121.982,47.707,121.982,48.132z"/>
			<ellipse style="fill:#68C7C6;" cx="123.467" cy="48.63" rx="0.775" ry="0.772"/>
			<circle style="fill:#68C7C6;" cx="125.747" cy="48.295" r="0.773"/>
			<path style="fill:#68C7C6;" d="M124.745,46.324c0,0.429-0.347,0.778-0.777,0.778c-0.422,0-0.77-0.349-0.77-0.778
				c0-0.423,0.348-0.766,0.77-0.766C124.398,45.558,124.745,45.901,124.745,46.324z"/>
			<path style="fill:#68C7C6;" d="M119.862,46.656c0,0.432-0.348,0.781-0.778,0.781c-0.418,0-0.767-0.349-0.767-0.781
				c0-0.424,0.349-0.763,0.767-0.763C119.513,45.894,119.862,46.232,119.862,46.656z"/>
			<path style="fill:#68C7C6;" d="M122.241,44.589c0,0.43-0.348,0.779-0.771,0.779c-0.431,0-0.777-0.349-0.777-0.779
				c0-0.426,0.346-0.764,0.777-0.764C121.893,43.825,122.241,44.163,122.241,44.589z"/>
			<ellipse style="fill:#68C7C6;" cx="122.694" cy="41.637" rx="0.771" ry="0.779"/>
			<ellipse style="fill:#68C7C6;" cx="119.261" cy="40.652" rx="0.77" ry="0.782"/>
			<path style="fill:#68C7C6;" d="M126.523,43.678c0,0.43-0.346,0.779-0.776,0.779c-0.426,0-0.773-0.349-0.773-0.779
				c0-0.423,0.347-0.764,0.773-0.764C126.176,42.914,126.523,43.255,126.523,43.678z"/>
			<path style="fill:#68C7C6;" d="M127.159,46.656c0,0.432-0.348,0.781-0.772,0.781c-0.429,0-0.774-0.349-0.774-0.781
				c0-0.424,0.344-0.763,0.774-0.763C126.811,45.894,127.159,46.232,127.159,46.656z"/>
			<path style="fill:#68C7C6;" d="M129.414,46.117c0,0.433-0.349,0.776-0.779,0.776c-0.422,0-0.771-0.343-0.771-0.776
				c0-0.429,0.349-0.778,0.771-0.778C129.065,45.339,129.414,45.688,129.414,46.117z"/>
			<path style="fill:#68C7C6;" d="M131.26,44.825c0,0.415-0.35,0.766-0.771,0.766c-0.431,0-0.78-0.351-0.78-0.766
				c0-0.43,0.349-0.781,0.78-0.781C130.91,44.044,131.26,44.395,131.26,44.825z"/>
			<path style="fill:#68C7C6;" d="M129.254,43.987c0,0.426-0.341,0.764-0.772,0.764c-0.431,0-0.772-0.338-0.772-0.764
				c0-0.427,0.341-0.781,0.772-0.781C128.914,43.206,129.254,43.56,129.254,43.987z"/>
			<path style="fill:#68C7C6;" d="M131.523,43.255c0,0.412-0.348,0.763-0.778,0.763c-0.421,0-0.772-0.351-0.772-0.763
				c0-0.432,0.351-0.783,0.772-0.783C131.175,42.473,131.523,42.824,131.523,43.255z"/>
			<path style="fill:#68C7C6;" d="M130.427,40.94c0,0.427-0.348,0.776-0.771,0.776c-0.429,0-0.778-0.349-0.778-0.776
				c0-0.413,0.348-0.767,0.778-0.767C130.08,40.173,130.427,40.527,130.427,40.94z"/>
			<path style="fill:#68C7C6;" d="M133.331,41.83c0,0.433-0.349,0.767-0.772,0.767c-0.429,0-0.779-0.334-0.779-0.767
				c0-0.427,0.35-0.776,0.779-0.776C132.982,41.053,133.331,41.402,133.331,41.83z"/>
			<path style="fill:#68C7C6;" d="M132.769,40.009c0,0.435-0.341,0.766-0.77,0.766c-0.431,0-0.772-0.331-0.772-0.766
				c0-0.432,0.341-0.778,0.772-0.778C132.428,39.231,132.769,39.577,132.769,40.009z"/>
			<path style="fill:#68C7C6;" d="M134.478,38.386c0,0.43-0.348,0.778-0.772,0.778c-0.43,0-0.776-0.348-0.776-0.778
				c0-0.423,0.346-0.764,0.776-0.764C134.13,37.622,134.478,37.963,134.478,38.386z"/>
			<path style="fill:#68C7C6;" d="M135.481,36.377c0,0.429-0.351,0.766-0.772,0.766c-0.43,0-0.78-0.337-0.78-0.766
				c0-0.427,0.35-0.776,0.78-0.776C135.131,35.6,135.481,35.95,135.481,36.377z"/>
			<path style="fill:#68C7C6;" d="M132.929,36.643c0,0.427-0.347,0.778-0.777,0.778c-0.423,0-0.769-0.351-0.769-0.778
				c0-0.417,0.347-0.764,0.769-0.764C132.583,35.879,132.929,36.227,132.929,36.643z"/>
			<path style="fill:#68C7C6;" d="M130.315,37.692c0,0.429-0.35,0.767-0.776,0.767c-0.424,0-0.774-0.338-0.774-0.767
				c0-0.43,0.35-0.779,0.774-0.779C129.965,36.913,130.315,37.262,130.315,37.692z"/>
			<path style="fill:#68C7C6;" d="M134.632,34.895c0,0.423-0.342,0.766-0.772,0.766c-0.43,0-0.772-0.343-0.772-0.766
				c0-0.427,0.342-0.778,0.772-0.778C134.29,34.117,134.632,34.467,134.632,34.895z"/>
			<path style="fill:#68C7C6;" d="M135.536,32.748c0,0.432-0.351,0.782-0.78,0.782c-0.42,0-0.771-0.351-0.771-0.782
				c0-0.407,0.351-0.764,0.771-0.764C135.185,31.984,135.536,32.34,135.536,32.748z"/>
			<ellipse style="fill:#68C7C6;" cx="131.26" cy="33.529" rx="0.771" ry="0.781"/>
			<path style="fill:#68C7C6;" d="M133.703,31.582c0,0.427-0.347,0.764-0.774,0.764c-0.427,0-0.777-0.337-0.777-0.764
				c0-0.43,0.35-0.778,0.777-0.778C133.356,30.805,133.703,31.152,133.703,31.582z"/>
			<path style="fill:#68C7C6;" d="M135.588,30.521c0,0.407-0.343,0.76-0.771,0.76c-0.429,0-0.772-0.352-0.772-0.76
				c0-0.435,0.342-0.786,0.772-0.786C135.245,29.736,135.588,30.086,135.588,30.521z"/>
			<path style="fill:#68C7C6;" d="M134.476,29.296c0,0.43-0.346,0.779-0.773,0.779c-0.429,0-0.774-0.349-0.774-0.779
				c0-0.435,0.344-0.766,0.774-0.766C134.13,28.531,134.476,28.861,134.476,29.296z"/>
			<path style="fill:#68C7C6;" d="M131.999,28.779c0,0.424-0.35,0.772-0.772,0.772c-0.43,0-0.777-0.347-0.777-0.772
				c0-0.423,0.347-0.772,0.777-0.772C131.649,28.007,131.999,28.356,131.999,28.779z"/>
			<path style="fill:#68C7C6;" d="M134.476,27.042c0,0.413-0.346,0.764-0.773,0.764c-0.429,0-0.774-0.351-0.774-0.764
				c0-0.432,0.344-0.781,0.774-0.781C134.13,26.261,134.476,26.61,134.476,27.042z"/>
			<path style="fill:#68C7C6;" d="M132.769,26.316c0,0.429-0.341,0.779-0.77,0.779c-0.431,0-0.772-0.351-0.772-0.779
				c0-0.432,0.341-0.766,0.772-0.766C132.428,25.551,132.769,25.885,132.769,26.316z"/>
			<ellipse style="fill:#68C7C6;" cx="128.667" cy="26.841" rx="0.775" ry="0.78"/>
			<path style="fill:#68C7C6;" d="M130.315,24.046c0,0.43-0.35,0.764-0.776,0.764c-0.424,0-0.776-0.334-0.776-0.764
				c0-0.429,0.352-0.779,0.776-0.779C129.965,23.266,130.315,23.617,130.315,24.046z"/>
			<path style="fill:#68C7C6;" d="M132.538,24.046c0,0.43-0.348,0.764-0.769,0.764c-0.431,0-0.781-0.334-0.781-0.764
				c0-0.429,0.35-0.779,0.781-0.779C132.19,23.266,132.538,23.617,132.538,24.046z"/>
			<path style="fill:#68C7C6;" d="M127.332,22.811c0,0.426-0.348,0.758-0.771,0.758c-0.431,0-0.779-0.332-0.779-0.758
				c0-0.43,0.348-0.781,0.779-0.781C126.983,22.03,127.332,22.381,127.332,22.811z"/>
			<path style="fill:#68C7C6;" d="M124.122,22.701c0,0.432-0.35,0.781-0.781,0.781c-0.422,0-0.77-0.349-0.77-0.781
				c0-0.43,0.348-0.779,0.77-0.779C123.772,21.922,124.122,22.271,124.122,22.701z"/>
			<path style="fill:#68C7C6;" d="M121.218,23.983c0,0.432-0.348,0.779-0.773,0.779c-0.428,0-0.778-0.348-0.778-0.779
				c0-0.415,0.35-0.763,0.778-0.763C120.869,23.22,121.218,23.568,121.218,23.983z"/>
			<ellipse style="fill:#68C7C6;" cx="118.259" cy="27.335" rx="0.774" ry="0.779"/>
			<path style="fill:#68C7C6;" d="M117.215,30.408c0,0.43-0.349,0.775-0.779,0.775c-0.423,0-0.772-0.345-0.772-0.775
				c0-0.43,0.35-0.779,0.772-0.779C116.866,29.628,117.215,29.978,117.215,30.408z"/>
			<path style="fill:#68C7C6;" d="M115.894,34.749c0,0.43-0.341,0.779-0.771,0.779c-0.426,0-0.772-0.349-0.772-0.779
				c0-0.424,0.346-0.764,0.772-0.764C115.553,33.985,115.894,34.325,115.894,34.749z"/>
			<path style="fill:#68C7C6;" d="M117.985,37.868c0,0.426-0.348,0.764-0.77,0.764c-0.429,0-0.779-0.338-0.779-0.764
				c0-0.432,0.35-0.779,0.779-0.779C117.637,37.089,117.985,37.436,117.985,37.868z"/>
			<path style="fill:#68C7C6;" d="M114.351,38.023c0,0.436-0.349,0.767-0.772,0.767c-0.429,0-0.779-0.331-0.779-0.767
				c0-0.429,0.351-0.779,0.779-0.779C114.001,37.244,114.351,37.594,114.351,38.023z"/>
			<path style="fill:#68C7C6;" d="M110.519,38.873c0,0.417-0.34,0.764-0.769,0.764c-0.426,0-0.773-0.348-0.773-0.764
				c0-0.43,0.346-0.779,0.773-0.779C110.179,38.093,110.519,38.442,110.519,38.873z"/>
			<ellipse style="fill:#68C7C6;" cx="109.824" cy="35.301" rx="0.775" ry="0.772"/>
			<path style="fill:#68C7C6;" d="M107.502,37.776c0,0.435-0.345,0.766-0.776,0.766c-0.424,0-0.77-0.331-0.77-0.766
				c0-0.432,0.347-0.778,0.77-0.778C107.157,36.998,107.502,37.345,107.502,37.776z"/>
			<circle style="fill:#68C7C6;" cx="112.239" cy="32.606" r="0.772"/>
			<path style="fill:#68C7C6;" d="M113.579,28.956c0,0.432-0.348,0.779-0.779,0.779c-0.422,0-0.771-0.348-0.771-0.779
				c0-0.426,0.349-0.764,0.771-0.764C113.231,28.192,113.579,28.531,113.579,28.956z"/>
			<path style="fill:#68C7C6;" d="M110.296,30.276c0,0.432-0.349,0.782-0.771,0.782c-0.431,0-0.779-0.351-0.779-0.782
				c0-0.423,0.348-0.763,0.779-0.763C109.947,29.514,110.296,29.854,110.296,30.276z"/>
			<path style="fill:#68C7C6;" d="M106.239,30.726c0,0.427-0.349,0.778-0.772,0.778c-0.431,0-0.776-0.351-0.776-0.778
				c0-0.432,0.345-0.779,0.776-0.779C105.89,29.947,106.239,30.295,106.239,30.726z"/>
			<ellipse style="fill:#68C7C6;" cx="107.158" cy="33.529" rx="0.771" ry="0.781"/>
			<path style="fill:#68C7C6;" d="M105.265,35.444c0,0.43-0.349,0.782-0.782,0.782c-0.42,0-0.769-0.352-0.769-0.782
				c0-0.43,0.349-0.779,0.769-0.779C104.916,34.665,105.265,35.014,105.265,35.444z"/>
			<path style="fill:#68C7C6;" d="M104.153,37.692c0,0.429-0.341,0.767-0.772,0.767c-0.427,0-0.771-0.338-0.771-0.767
				c0-0.43,0.344-0.779,0.771-0.779C103.812,36.913,104.153,37.262,104.153,37.692z"/>
			<path style="fill:#68C7C6;" d="M102.517,36.723c0,0.426-0.348,0.775-0.773,0.775c-0.429,0-0.775-0.349-0.775-0.775
				c0-0.413,0.346-0.769,0.775-0.769C102.168,35.954,102.517,36.31,102.517,36.723z"/>
			<path style="fill:#68C7C6;" d="M102.894,34.434c0,0.429-0.348,0.776-0.771,0.776c-0.431,0-0.78-0.348-0.78-0.776
				c0-0.432,0.349-0.77,0.78-0.77C102.546,33.663,102.894,34.002,102.894,34.434z"/>
			<path style="fill:#68C7C6;" d="M102.022,33.097c0,0.43-0.35,0.779-0.771,0.779c-0.432,0-0.779-0.349-0.779-0.779
				c0-0.426,0.347-0.764,0.779-0.764C101.672,32.333,102.022,32.671,102.022,33.097z"/>
			<path style="fill:#68C7C6;" d="M104.067,32.4c0,0.436-0.35,0.767-0.779,0.767c-0.422,0-0.773-0.331-0.773-0.767
				c0-0.43,0.351-0.779,0.773-0.779C103.717,31.621,104.067,31.97,104.067,32.4z"/>
			<path style="fill:#68C7C6;" d="M102.515,30.918c0,0.43-0.347,0.764-0.771,0.764c-0.429,0-0.775-0.334-0.775-0.764
				c0-0.432,0.346-0.779,0.775-0.779C102.168,30.138,102.515,30.486,102.515,30.918z"/>
			<path style="fill:#68C7C6;" d="M103.781,28.956c0,0.432-0.347,0.779-0.777,0.779c-0.422,0-0.772-0.348-0.772-0.779
				c0-0.426,0.35-0.764,0.772-0.764C103.434,28.192,103.781,28.531,103.781,28.956z"/>
			<ellipse style="fill:#68C7C6;" cx="102.363" cy="27.335" rx="0.773" ry="0.779"/>
			<path style="fill:#68C7C6;" d="M105.807,27.567c0,0.429-0.35,0.779-0.78,0.779c-0.42,0-0.771-0.351-0.771-0.779
				c0-0.43,0.351-0.773,0.771-0.773C105.457,26.794,105.807,27.137,105.807,27.567z"/>
			<path style="fill:#68C7C6;" d="M109.112,27.335c0,0.432-0.349,0.779-0.779,0.779c-0.422,0-0.772-0.348-0.772-0.779
				c0-0.429,0.35-0.779,0.772-0.779C108.763,26.555,109.112,26.906,109.112,27.335z"/>
			<ellipse style="fill:#68C7C6;" cx="103.78" cy="25.589" rx="0.775" ry="0.779"/>
			<ellipse style="fill:#68C7C6;" cx="105.861" cy="24.352" rx="0.772" ry="0.782"/>
			<path style="fill:#68C7C6;" d="M109.323,24.168c0,0.432-0.347,0.779-0.777,0.779c-0.424,0-0.773-0.348-0.773-0.779
				c0-0.433,0.348-0.764,0.773-0.764C108.977,23.404,109.323,23.735,109.323,24.168z"/>
			<circle style="fill:#68C7C6;" cx="105.527" cy="22.442" r="0.776"/>
			<ellipse style="fill:#68C7C6;" cx="107.561" cy="21.449" rx="0.772" ry="0.776"/>
			<ellipse style="fill:#68C7C6;" cx="108.038" cy="19.814" rx="0.775" ry="0.779"/>
			<path style="fill:#68C7C6;" d="M110.767,21.254c0,0.427-0.344,0.776-0.774,0.776c-0.422,0-0.772-0.349-0.772-0.776
				c0-0.418,0.351-0.767,0.772-0.767C110.423,20.487,110.767,20.836,110.767,21.254z"/>
			<path style="fill:#68C7C6;" d="M113.482,22.311c0,0.43-0.35,0.763-0.771,0.763c-0.43,0-0.78-0.332-0.78-0.763
				c0-0.429,0.35-0.779,0.78-0.779C113.132,21.531,113.482,21.882,113.482,22.311z"/>
			<path style="fill:#68C7C6;" d="M112.615,25.398c0,0.429-0.348,0.779-0.773,0.779c-0.43,0-0.778-0.351-0.778-0.779
				c0-0.423,0.347-0.764,0.778-0.764C112.267,24.634,112.615,24.975,112.615,25.398z"/>
			<path style="fill:#68C7C6;" d="M116.151,25.212c0,0.424-0.342,0.764-0.771,0.764c-0.431,0-0.773-0.34-0.773-0.764
				c0-0.43,0.342-0.781,0.773-0.781C115.808,24.431,116.151,24.782,116.151,25.212z"/>
			<path style="fill:#68C7C6;" d="M117.701,22.311c0,0.43-0.349,0.763-0.772,0.763c-0.43,0-0.779-0.332-0.779-0.763
				c0-0.429,0.348-0.779,0.779-0.779C117.352,21.531,117.701,21.882,117.701,22.311z"/>
			<circle style="fill:#68C7C6;" cx="114.815" cy="19.903" r="0.775"/>
			<path style="fill:#68C7C6;" d="M113.208,18.926c0,0.426-0.343,0.766-0.773,0.766c-0.427,0-0.77-0.34-0.77-0.766
				c0-0.427,0.343-0.779,0.77-0.779C112.865,18.147,113.208,18.499,113.208,18.926z"/>
			<path style="fill:#68C7C6;" d="M110.869,18.926c0,0.426-0.35,0.766-0.772,0.766c-0.43,0-0.773-0.34-0.773-0.766
				c0-0.427,0.343-0.779,0.773-0.779C110.519,18.147,110.869,18.499,110.869,18.926z"/>
			<path style="fill:#68C7C6;" d="M114.038,17.202c0,0.433-0.341,0.781-0.772,0.781c-0.431,0-0.771-0.348-0.771-0.781
				c0-0.412,0.34-0.761,0.771-0.761C113.697,16.441,114.038,16.79,114.038,17.202z"/>
			<path style="fill:#68C7C6;" d="M116.36,17.368c0,0.432-0.341,0.779-0.772,0.779c-0.429,0-0.773-0.348-0.773-0.779
				c0-0.412,0.344-0.764,0.773-0.764C116.02,16.604,116.36,16.956,116.36,17.368z"/>
			<circle style="fill:#68C7C6;" cx="116.86" cy="16.375" r="0.771"/>
			<path style="fill:#68C7C6;" d="M118.471,18.36c0,0.413-0.344,0.766-0.77,0.766c-0.43,0-0.772-0.352-0.772-0.766
				c0-0.43,0.342-0.779,0.772-0.779C118.127,17.58,118.471,17.93,118.471,18.36z"/>
			<path style="fill:#68C7C6;" d="M119.803,16.728c0,0.432-0.348,0.779-0.769,0.779c-0.428,0-0.776-0.348-0.776-0.779
				c0-0.433,0.348-0.764,0.776-0.764C119.456,15.964,119.803,16.294,119.803,16.728z"/>
			<path style="fill:#68C7C6;" d="M120.309,20.415c0,0.426-0.349,0.764-0.773,0.764c-0.427,0-0.776-0.339-0.776-0.764
				c0-0.43,0.35-0.781,0.776-0.781C119.96,19.634,120.309,19.985,120.309,20.415z"/>
			<circle style="fill:#68C7C6;" cx="121.081" cy="17.782" r="0.772"/>
			<ellipse style="fill:#68C7C6;" cx="122.694" cy="17.149" rx="0.771" ry="0.775"/>
			<path style="fill:#68C7C6;" d="M123.465,19.692c0,0.429-0.343,0.779-0.772,0.779c-0.429,0-0.771-0.351-0.771-0.779
				c0-0.423,0.342-0.766,0.771-0.766C123.122,18.926,123.465,19.27,123.465,19.692z"/>
			<path style="fill:#68C7C6;" d="M125.34,18.36c0,0.413-0.347,0.766-0.77,0.766c-0.43,0-0.776-0.352-0.776-0.766
				c0-0.43,0.346-0.779,0.776-0.779C124.993,17.58,125.34,17.93,125.34,18.36z"/>
			<path style="fill:#68C7C6;" d="M126.726,20.245c0,0.43-0.346,0.761-0.777,0.761c-0.422,0-0.771-0.331-0.771-0.761
				c0-0.429,0.349-0.778,0.771-0.778C126.38,19.467,126.726,19.816,126.726,20.245z"/>
			<path style="fill:#68C7C6;" d="M128.667,19.692c0,0.43-0.348,0.779-0.776,0.779c-0.423,0-0.773-0.349-0.773-0.779
				c0-0.423,0.349-0.766,0.773-0.766C128.319,18.926,128.667,19.27,128.667,19.692z"/>
			<circle style="fill:#68C7C6;" cx="129.067" cy="21.669" r="0.771"/>
			<ellipse style="fill:#68C7C6;" cx="130.69" cy="22.032" rx="0.775" ry="0.779"/>
			<ellipse style="fill:#68C7C6;" cx="129.2" cy="31.058" rx="0.774" ry="0.78"/>
			<ellipse style="fill:#68C7C6;" cx="126.231" cy="29.737" rx="0.775" ry="0.783"/>
			<path style="fill:#68C7C6;" d="M125.458,32.843c0,0.432-0.344,0.779-0.773,0.779c-0.429,0-0.773-0.348-0.773-0.779
				c0-0.426,0.343-0.764,0.773-0.764C125.114,32.079,125.458,32.417,125.458,32.843z"/>
			<path style="fill:#68C7C6;" d="M122.115,34.232c0,0.424-0.347,0.763-0.772,0.763c-0.43,0-0.776-0.338-0.776-0.763
				c0-0.429,0.345-0.779,0.776-0.779C121.768,33.452,122.115,33.803,122.115,34.232z"/>
			<path style="fill:#68C7C6;" d="M122.694,30.521c0,0.407-0.347,0.76-0.77,0.76c-0.431,0-0.777-0.352-0.777-0.76
				c0-0.435,0.346-0.786,0.777-0.786C122.347,29.736,122.694,30.086,122.694,30.521z"/>
			<path style="fill:#68C7C6;" d="M123.096,27.042c0,0.413-0.341,0.764-0.77,0.764c-0.431,0-0.773-0.351-0.773-0.764
				c0-0.432,0.342-0.781,0.773-0.781C122.755,26.261,123.096,26.61,123.096,27.042z"/>
			<ellipse style="fill:#68C7C6;" cx="125.526" cy="26.177" rx="0.776" ry="0.779"/>
			<circle style="fill:#68C7C6;" cx="128.105" cy="34.825" r="0.773"/>
			<ellipse style="fill:#68C7C6;" cx="125.612" cy="37.421" rx="0.776" ry="0.778"/>
			<path style="fill:#68C7C6;" d="M122.819,37.776c0,0.435-0.347,0.766-0.769,0.766c-0.432,0-0.778-0.331-0.778-0.766
				c0-0.432,0.346-0.778,0.778-0.778C122.472,36.998,122.819,37.345,122.819,37.776z"/>
			<path style="fill:#68C7C6;" d="M127.193,40.536c0,0.43-0.343,0.779-0.772,0.779c-0.429,0-0.772-0.349-0.772-0.779
				c0-0.423,0.342-0.764,0.772-0.764C126.85,39.772,127.193,40.113,127.193,40.536z"/>
			<path style="fill:#68C7C6;" d="M116.764,47.748c0,0.429-0.348,0.778-0.779,0.778c-0.421,0-0.77-0.349-0.77-0.778
				c0-0.432,0.349-0.773,0.77-0.773C116.416,46.975,116.764,47.316,116.764,47.748z"/>
			<path style="fill:#68C7C6;" d="M112.328,45.414c0,0.43-0.351,0.781-0.772,0.781c-0.431,0-0.782-0.351-0.782-0.781
				c0-0.424,0.351-0.764,0.782-0.764C111.976,44.65,112.328,44.99,112.328,45.414z"/>
			<ellipse style="fill:#68C7C6;" cx="114.708" cy="45.114" rx="0.772" ry="0.779"/>
			<path style="fill:#68C7C6;" d="M118.258,43.502c0,0.415-0.341,0.763-0.772,0.763c-0.43,0-0.771-0.348-0.771-0.763
				c0-0.433,0.341-0.781,0.771-0.781C117.917,42.721,118.258,43.068,118.258,43.502z"/>
		</g>
		<path style="fill:#8F9194;" d="M155.954,57.433c-0.076-0.002-7.198-0.205-11.301,0.018c-5.067,0.27-18.139,7.206-18.696,7.494
			c-0.024,0.017-2.724,1.406-6.314-0.358c-0.05-0.021-4.835-1.911-8.367-2.885c-0.013-0.005-1.321-0.343-2.176-1.262
			c-0.02-0.02-0.033-0.04-0.057-0.057c-0.75-0.585-2.815-2.329-3.37-3.378c-0.037-0.069-0.096-0.126-0.162-0.178
			c-0.037-0.014-3.153-1.995-4.364-4.379c-0.014-0.017-0.024-0.041-0.044-0.067c-0.109-0.144-0.49-0.776-0.311-1.179
			c0.135-0.3,0.632-0.507,1.406-0.576c0.097-0.008,2.449-0.119,4.937,3.386c0.076,0.109,0.2,0.178,0.324,0.196
			c0.018,0.003,1.632,0.24,3.857,2.937c0.097,0.116,0.239,0.181,0.387,0.168c0.687-0.034,2.303-0.086,3.477,0.031
			c-1.106,1.041-0.929,2.228-0.922,2.266c0.626,2.888,5.176,3.199,7.125,3.199c0.483,0,0.806-0.023,0.867-0.028
			c3.504-0.198,5.755-1.24,8.597-2.551c0.472-0.213,0.966-0.439,1.483-0.678c2.484-1.106,3.598-2.572,3.645-2.635
			c0.151-0.196,0.109-0.495-0.095-0.645c-0.203-0.153-0.495-0.119-0.645,0.09c-0.013,0.015-1.032,1.345-3.286,2.354
			c-0.516,0.231-1.01,0.455-1.491,0.671c-2.753,1.275-4.928,2.28-8.267,2.471c-1.789,0.118-6.514-0.086-7.022-2.418
			c-0.011-0.063-0.194-1.64,2.559-2.364c0.027-0.011,2.799-0.956,5.954-0.51c0.152,0.023,0.308-0.028,0.407-0.148
			c0.01-0.009,0.799-0.847,2.356-1.357c0.082-0.031,0.159-0.069,0.211-0.149c0.063-0.067,1.46-1.707,2.079-2.788
			c1.749-3.041,3.122-5.445,12.793-5.445h10.557c0.258,0,0.465-0.201,0.465-0.456c0-0.259-0.207-0.473-0.465-0.473H141.53
			c-10.209,0-11.781,2.741-13.601,5.92c-0.494,0.853-1.583,2.178-1.896,2.55c-1.293,0.445-2.111,1.096-2.446,1.403
			c-0.781-0.098-1.53-0.119-2.22-0.089c-0.509-0.331-2.341-1.349-4.965-0.917c-0.522-0.364-2.135-1.407-3.899-1.398
			c-0.619-0.394-3.383-2.087-5.519-2.335c-0.573-0.435-1.132-0.865-1.471-1.104c-0.521-0.654-1.117-1.231-1.763-1.562
			c-0.949-0.553-3.089-1.174-4.412,0.469c-0.031,0.037-0.733,1.076,0.515,2.424c-0.176,0.799,0.344,1.597,0.489,1.801
			c1.218,2.37,3.997,4.266,4.574,4.649c0.805,1.367,3.225,3.305,3.534,3.542c1.04,1.092,2.528,1.493,2.589,1.502
			c3.474,0.949,8.212,2.818,8.227,2.822c1.524,0.753,2.915,0.986,4.043,0.986c1.827,0,3.006-0.6,3.086-0.648
			c0.129-0.071,13.44-7.13,18.307-7.381c4.065-0.222,11.152-0.023,11.221-0.02c0.234,0.003,0.471-0.201,0.48-0.458
			C156.411,57.649,156.209,57.441,155.954,57.433z M112.385,54.152c0.046-0.002,0.092-0.002,0.137-0.002
			c1.727,0,3.467,1.315,3.489,1.331c0.1,0.08,0.237,0.101,0.368,0.09c1.271-0.245,2.342-0.089,3.131,0.148
			c-1.218,0.185-2.002,0.456-2.047,0.476c-0.446,0.119-0.825,0.251-1.156,0.401c-0.286-0.078-0.638-0.13-1.024-0.175
			c-0.374-0.216-1.744-1.011-2.726-1.171c-0.269-0.371-0.962-1.248-1.945-1.948c0.756,0.378,1.491,0.764,1.504,0.772
			C112.195,54.124,112.295,54.15,112.385,54.152z M109.007,52.496c-0.003-0.002-0.005-0.002-0.008-0.005
			C108.997,52.492,109,52.492,109.007,52.496z M108.492,53.264c0.044,0.048,0.104,0.078,0.168,0.089
			c1.894,0.533,3.232,2.568,3.248,2.592c0.082,0.126,0.219,0.208,0.365,0.208c0.2,0.006,0.467,0.083,0.75,0.191
			c-0.478,0.008-0.891,0.025-1.137,0.038c-1.972-2.323-3.535-2.908-4.095-3.046c-0.172-0.244-0.345-0.464-0.517-0.662
			c-0.048-0.104-0.149-0.326-0.31-0.623C107.77,52.683,108.476,53.259,108.492,53.264z M100.076,49.24L100.076,49.24
			c1.133-1.401,3.125-0.273,3.237-0.196c0.526,0.246,1.035,0.749,1.48,1.321c0.012,0.006,0.021,0.025,0.037,0.043
			c0.056,0.064,0.109,0.132,0.156,0.205c-1.59-0.992-2.786-0.91-2.86-0.91c-0.784,0.078-1.363,0.262-1.748,0.579
			C99.868,49.628,100.081,49.24,100.076,49.24z"/>
		<path d="M136.205,15.302c0.184-0.799-0.339-1.597-0.481-1.801c-1.224-2.37-3.998-4.266-4.574-4.649
			c-0.805-1.367-3.226-3.304-3.534-3.542c-1.047-1.092-2.537-1.493-2.589-1.502c-3.473-0.949-8.218-2.817-8.225-2.822
			C115.275,0.231,113.889,0,112.752,0c-1.821,0-3.004,0.599-3.082,0.648c-0.136,0.07-13.444,7.13-18.306,7.381
			c-4.066,0.224-11.154,0.023-11.229,0.02c-0.224-0.003-0.463,0.201-0.472,0.458c-0.008,0.256,0.191,0.464,0.449,0.472
			c0.07,0.002,7.198,0.205,11.301-0.018c5.065-0.27,18.139-7.206,18.692-7.494c0.028-0.017,2.729-1.406,6.32,0.358
			c0.048,0.021,4.834,1.911,8.361,2.883c0.012,0.006,1.323,0.344,2.181,1.262c0.012,0.02,0.033,0.041,0.052,0.058
			c0.746,0.585,2.811,2.329,3.373,3.378c0.038,0.069,0.097,0.126,0.162,0.176c0.029,0.015,3.153,1.997,4.36,4.381
			c0.011,0.017,0.028,0.041,0.042,0.067c0.116,0.144,0.495,0.776,0.318,1.179c-0.139,0.3-0.641,0.505-1.407,0.576
			c-0.104,0.008-2.454,0.121-4.944-3.384c-0.073-0.11-0.193-0.179-0.322-0.197c-0.013-0.003-1.626-0.241-3.856-2.937
			c-0.092-0.116-0.237-0.181-0.381-0.168c-0.694,0.034-2.306,0.086-3.475-0.031c1.097-1.041,0.921-2.228,0.921-2.266
			c-0.626-2.889-5.177-3.199-7.124-3.199c-0.485,0-0.815,0.023-0.868,0.028c-3.507,0.198-5.756,1.24-8.599,2.551
			c-0.479,0.213-0.969,0.44-1.482,0.678c-2.485,1.104-3.598,2.572-3.645,2.635c-0.156,0.196-0.115,0.493,0.092,0.645
			c0.204,0.153,0.495,0.119,0.649-0.09c0.011-0.017,1.031-1.344,3.279-2.353c0.523-0.231,1.017-0.455,1.488-0.671
			c2.762-1.276,4.937-2.28,8.27-2.471c1.789-0.118,6.521,0.086,7.028,2.418c0.004,0.063,0.195,1.637-2.561,2.364
			c-0.026,0.011-2.8,0.955-5.957,0.51c-0.152-0.023-0.304,0.029-0.411,0.148c0,0-0.792,0.847-2.356,1.355
			c-0.082,0.032-0.154,0.071-0.208,0.15c-0.059,0.067-1.456,1.707-2.076,2.789c-1.748,3.041-3.129,5.445-12.795,5.445H83.976
			c-0.254,0-0.461,0.199-0.461,0.458c0,0.257,0.207,0.472,0.461,0.472h10.559c10.203,0,11.776-2.741,13.596-5.92
			c0.495-0.854,1.591-2.178,1.893-2.55c1.302-0.447,2.113-1.096,2.455-1.403c0.776,0.098,1.526,0.119,2.219,0.087
			c0.511,0.332,2.347,1.351,4.961,0.919c0.53,0.364,2.144,1.407,3.905,1.398c0.621,0.394,3.377,2.087,5.521,2.334
			c0.572,0.436,1.124,0.868,1.47,1.107c0.517,0.652,1.117,1.23,1.757,1.56c0.95,0.554,3.096,1.175,4.418-0.469
			C136.76,17.689,137.462,16.65,136.205,15.302z M123.674,12.259c-0.046,0.002-0.087,0.003-0.129,0.003
			c-1.735,0-3.474-1.317-3.488-1.332c-0.109-0.079-0.234-0.103-0.369-0.09c-1.271,0.245-2.346,0.087-3.133-0.147
			c1.215-0.187,2.011-0.458,2.053-0.478c0.436-0.122,0.817-0.25,1.144-0.401c0.287,0.078,0.645,0.129,1.026,0.175
			c0.373,0.216,1.754,1.011,2.726,1.171c0.274,0.371,0.959,1.246,1.943,1.945c-0.747-0.377-1.488-0.761-1.495-0.769
			C123.873,12.287,123.772,12.259,123.674,12.259z M127.057,13.913c0,0,0.002,0.003,0.004,0.005
			C127.062,13.919,127.059,13.918,127.057,13.913z M127.574,13.146c-0.051-0.046-0.103-0.078-0.168-0.087
			c-1.893-0.533-3.239-2.568-3.247-2.593c-0.082-0.125-0.219-0.208-0.365-0.208c-0.207-0.006-0.466-0.083-0.747-0.191
			c0.473-0.008,0.882-0.025,1.133-0.04c1.968,2.324,3.536,2.909,4.095,3.046c0.174,0.245,0.346,0.466,0.519,0.662
			c0.044,0.107,0.148,0.326,0.299,0.625C128.297,13.729,127.591,13.152,127.574,13.146z M135.99,17.172L135.99,17.172
			c-1.131,1.401-3.125,0.271-3.235,0.196c-0.526-0.246-1.034-0.749-1.479-1.323c-0.012-0.003-0.027-0.019-0.039-0.035
			c-0.051-0.067-0.107-0.136-0.163-0.211c1.598,0.992,2.795,0.908,2.869,0.908c0.776-0.077,1.357-0.26,1.747-0.577
			C136.197,16.781,135.988,17.172,135.99,17.172z"/>
	</g>
</g>
</svg>
