<?xml version="1.0" encoding="iso-8859-1"?>
<!-- Generator: Adobe Illustrator 20.0.0, SVG Export Plug-In . SVG Version: 6.00 Build 0)  -->
<!DOCTYPE svg PUBLIC "-//W3C//DTD SVG 1.1//EN" "http://www.w3.org/Graphics/SVG/1.1/DTD/svg11.dtd">
<svg version="1.1" xmlns="http://www.w3.org/2000/svg" xmlns:xlink="http://www.w3.org/1999/xlink" x="0px" y="0px"
	 viewBox="0 0 341.4 41.4" style="enable-background:new 0 0 341.4 41.4;" xml:space="preserve">
<g id="slides2">
	<g>
		<path style="fill:#FFFFFF;" d="M80.7,35.7c0,2.75-2.25,5-5,5h-70c-2.75,0-5-2.25-5-5v-30c0-2.75,2.25-5,5-5h70c2.75,0,5,2.25,5,5
			V35.7z"/>
		<path style="fill:none;stroke:#010101;stroke-width:1.4;stroke-miterlimit:10;" d="M80.7,35.7c0,2.75-2.25,5-5,5h-70
			c-2.75,0-5-2.25-5-5v-30c0-2.75,2.25-5,5-5h70c2.75,0,5,2.25,5,5V35.7z"/>
	</g>
	<g>
		<path style="fill:#010101;" d="M17.805,24.988c0.672,0.407,1.944,0.84,3,0.84c1.296,0,1.872-0.528,1.872-1.296
			c0-0.792-0.48-1.2-1.92-1.704c-2.28-0.792-3.24-2.04-3.217-3.408c0-2.064,1.704-3.673,4.417-3.673
			c1.296,0,2.424,0.336,3.096,0.696l-0.576,2.088c-0.504-0.288-1.439-0.672-2.472-0.672c-1.057,0-1.632,0.504-1.632,1.224
			c0,0.744,0.552,1.104,2.04,1.633c2.112,0.768,3.096,1.848,3.12,3.576c0,2.112-1.656,3.648-4.753,3.648
			c-1.416,0-2.688-0.336-3.552-0.816L17.805,24.988z"/>
		<path style="fill:#010101;" d="M28.556,10.659h2.977v6.96h0.048c0.36-0.552,0.84-1.008,1.464-1.344
			c0.576-0.336,1.272-0.528,2.017-0.528c1.992,0,4.08,1.32,4.08,5.064V27.7h-2.952v-6.553c0-1.704-0.624-2.977-2.256-2.977
			c-1.152,0-1.969,0.769-2.28,1.656c-0.097,0.24-0.12,0.553-0.12,0.889V27.7h-2.977V10.659z"/>
		<path style="fill:#010101;" d="M46.029,12.747c0,0.888-0.648,1.584-1.681,1.584c-0.983,0-1.632-0.696-1.632-1.584
			c0-0.912,0.672-1.608,1.656-1.608C45.381,11.139,46.005,11.835,46.029,12.747z M42.885,27.7V16.011h2.977V27.7H42.885z"/>
		<path style="fill:#010101;" d="M49.965,27.7v-9.48h-1.584v-2.209h1.584v-0.504c0-1.512,0.408-3.024,1.416-3.984
			c0.864-0.815,2.04-1.128,3.049-1.128c0.792,0,1.416,0.12,1.896,0.288l-0.216,2.28c-0.312-0.12-0.72-0.216-1.248-0.216
			c-1.464,0-1.968,1.224-1.968,2.664v0.6h2.568v2.209h-2.545v9.48H49.965z"/>
		<path style="fill:#010101;" d="M61.581,12.675v3.336h2.808v2.209h-2.808v5.16c0,1.416,0.384,2.16,1.512,2.16
			c0.504,0,0.888-0.072,1.152-0.145l0.048,2.257c-0.432,0.168-1.2,0.288-2.136,0.288c-1.08,0-1.992-0.36-2.545-0.96
			c-0.624-0.673-0.912-1.729-0.912-3.265V18.22h-1.68v-2.209h1.68v-2.64L61.581,12.675z"/>
	</g>
	<g>
		<path style="fill:#FFFFFF;" d="M140.7,35.7c0,2.75-2.25,5-5,5h-30c-2.75,0-5-2.25-5-5v-30c0-2.75,2.25-5,5-5h30c2.75,0,5,2.25,5,5
			V35.7z"/>
		<path style="fill:none;stroke:#010101;stroke-width:1.4;stroke-miterlimit:10;" d="M140.7,35.7c0,2.75-2.25,5-5,5h-30
			c-2.75,0-5-2.25-5-5v-30c0-2.75,2.25-5,5-5h30c2.75,0,5,2.25,5,5V35.7z"/>
	</g>
	<g>
		<path style="fill:#010101;" d="M115.421,9.901l10.562-4.907v2.333l-7.987,3.498v0.044l7.987,3.499V16.7l-10.562-4.906V9.901z"/>
		<path style="fill:#010101;" d="M117.884,36.318c0.683-1.958,1.276-4.246,1.584-6.249l3.411-0.22
			c-0.727,2.244-1.717,4.555-2.772,6.271L117.884,36.318z"/>
	</g>
	<g>
		<path style="fill:#FFFFFF;" d="M290.7,35.7c0,2.75-2.25,5-5,5h-30c-2.75,0-5-2.25-5-5v-30c0-2.75,2.25-5,5-5h30c2.75,0,5,2.25,5,5
			V35.7z"/>
		<path style="fill:none;stroke:#010101;stroke-width:1.4;stroke-miterlimit:10;" d="M290.7,35.7c0,2.75-2.25,5-5,5h-30
			c-2.75,0-5-2.25-5-5v-30c0-2.75,2.25-5,5-5h30c2.75,0,5,2.25,5,5V35.7z"/>
	</g>
	<g>
		<path style="fill:#010101;" d="M254.125,14.755h1.736v4.062h0.028c0.21-0.322,0.49-0.589,0.855-0.785
			c0.336-0.195,0.742-0.308,1.177-0.308c1.162,0,2.381,0.771,2.381,2.955V24.7h-1.723v-3.824c0-0.994-0.364-1.736-1.316-1.736
			c-0.673,0-1.148,0.448-1.331,0.966c-0.056,0.141-0.07,0.322-0.07,0.519V24.7h-1.736V14.755z"/>
		<path style="fill:#010101;" d="M268.618,21.227c0,2.507-1.765,3.628-3.502,3.628c-1.934,0-3.418-1.331-3.418-3.516
			c0-2.242,1.471-3.614,3.53-3.614C267.259,17.725,268.618,19.153,268.618,21.227z M263.477,21.296c0,1.317,0.645,2.312,1.694,2.312
			c0.98,0,1.667-0.967,1.667-2.339c0-1.064-0.477-2.283-1.652-2.283C263.968,18.985,263.477,20.162,263.477,21.296z"/>
		<path style="fill:#010101;" d="M270.029,19.909c0-0.784-0.015-1.442-0.057-2.03h1.485l0.069,1.008h0.042
			c0.337-0.532,0.953-1.162,2.102-1.162c0.896,0,1.597,0.504,1.891,1.261h0.028c0.238-0.379,0.519-0.658,0.841-0.854
			c0.378-0.267,0.812-0.406,1.372-0.406c1.135,0,2.284,0.771,2.284,2.955V24.7h-1.682v-3.768c0-1.135-0.392-1.808-1.219-1.808
			c-0.588,0-1.022,0.421-1.204,0.911c-0.042,0.168-0.084,0.378-0.084,0.574v4.09h-1.682v-3.95c0-0.952-0.378-1.625-1.176-1.625
			c-0.645,0-1.079,0.505-1.233,0.98c-0.069,0.168-0.098,0.364-0.098,0.561V24.7h-1.681V19.909z"/>
		<path style="fill:#010101;" d="M283.119,21.773c0.042,1.232,1.008,1.765,2.101,1.765c0.799,0,1.373-0.111,1.892-0.308l0.252,1.19
			c-0.589,0.238-1.401,0.42-2.382,0.42c-2.213,0-3.516-1.358-3.516-3.445c0-1.892,1.148-3.67,3.334-3.67
			c2.213,0,2.941,1.821,2.941,3.319c0,0.322-0.028,0.574-0.056,0.729H283.119z M286.116,20.568c0.014-0.631-0.266-1.667-1.415-1.667
			c-1.064,0-1.513,0.966-1.582,1.667H286.116z"/>
	</g>
	<g>
		<path style="fill:#FFFFFF;" d="M340.7,35.7c0,2.75-2.25,5-5,5h-30c-2.75,0-5-2.25-5-5v-30c0-2.75,2.25-5,5-5h30c2.75,0,5,2.25,5,5
			V35.7z"/>
		<path style="fill:none;stroke:#010101;stroke-width:1.4;stroke-miterlimit:10;" d="M340.7,35.7c0,2.75-2.25,5-5,5h-30
			c-2.75,0-5-2.25-5-5v-30c0-2.75,2.25-5,5-5h30c2.75,0,5,2.25,5,5V35.7z"/>
	</g>
	<g>
		<path style="fill:#010101;" d="M311.161,21.773c0.042,1.232,1.008,1.765,2.101,1.765c0.799,0,1.373-0.111,1.892-0.308l0.252,1.19
			c-0.589,0.238-1.401,0.42-2.382,0.42c-2.213,0-3.516-1.358-3.516-3.445c0-1.892,1.148-3.67,3.334-3.67
			c2.213,0,2.941,1.821,2.941,3.319c0,0.322-0.028,0.574-0.056,0.729H311.161z M314.158,20.568c0.015-0.631-0.266-1.667-1.415-1.667
			c-1.064,0-1.513,0.966-1.582,1.667H314.158z"/>
		<path style="fill:#010101;" d="M317.166,19.909c0-0.784-0.015-1.442-0.057-2.03h1.513l0.084,1.022h0.043
			c0.294-0.532,1.036-1.177,2.171-1.177c1.19,0,2.423,0.771,2.423,2.928V24.7h-1.723v-3.853c0-0.98-0.364-1.723-1.303-1.723
			c-0.687,0-1.162,0.49-1.345,1.009c-0.056,0.154-0.07,0.364-0.07,0.561V24.7h-1.736V19.909z"/>
		<path style="fill:#010101;" d="M331.463,14.755v8.026c0,0.7,0.028,1.457,0.056,1.919h-1.54l-0.07-1.078h-0.028
			c-0.406,0.756-1.232,1.232-2.227,1.232c-1.625,0-2.914-1.387-2.914-3.488c-0.014-2.283,1.415-3.642,3.054-3.642
			c0.938,0,1.61,0.392,1.919,0.896h0.028v-3.866H331.463z M329.74,20.722c0-0.14-0.015-0.308-0.042-0.448
			c-0.154-0.672-0.7-1.219-1.485-1.219c-1.106,0-1.723,0.981-1.723,2.256c0,1.246,0.616,2.157,1.709,2.157
			c0.7,0,1.316-0.477,1.484-1.219c0.042-0.154,0.057-0.322,0.057-0.505V20.722z"/>
	</g>
	<g>
		<path style="fill:#FFFFFF;" d="M190.7,35.7c0,2.75-2.25,5-5,5h-30c-2.75,0-5-2.25-5-5v-30c0-2.75,2.25-5,5-5h30c2.75,0,5,2.25,5,5
			V35.7z"/>
		<path style="fill:none;stroke:#010101;stroke-width:1.4;stroke-miterlimit:10;" d="M190.7,35.7c0,2.75-2.25,5-5,5h-30
			c-2.75,0-5-2.25-5-5v-30c0-2.75,2.25-5,5-5h30c2.75,0,5,2.25,5,5V35.7z"/>
	</g>
	<g>
		<path style="fill:#010101;" d="M175.982,11.859L165.421,16.7v-2.332l8.163-3.499v-0.044l-8.163-3.498V4.994l10.562,4.841V11.859z"
			/>
		<path style="fill:#010101;" d="M168.94,31.918c0-1.188,0.813-2.046,1.979-2.046c1.167,0,1.959,0.836,1.959,2.046
			c0,1.166-0.792,2.024-1.98,2.024C169.754,33.943,168.94,33.084,168.94,31.918z"/>
	</g>
	<g>
		<path style="fill:#010101;" d="M222.057,21.747c0,4.296-3.024,6.216-6.001,6.216c-3.312,0-5.856-2.28-5.856-6.024
			c0-3.84,2.521-6.192,6.049-6.192C219.729,15.746,222.057,18.194,222.057,21.747z M213.249,21.867c0,2.256,1.104,3.96,2.904,3.96
			c1.68,0,2.855-1.656,2.855-4.009c0-1.824-0.815-3.912-2.832-3.912C214.089,17.906,213.249,19.923,213.249,21.867z"/>
		<path style="fill:#010101;" d="M225.08,19.778c0-1.584-0.023-2.712-0.096-3.769h2.568l0.096,2.232h0.096
			c0.576-1.656,1.944-2.496,3.192-2.496c0.288,0,0.456,0.024,0.696,0.072v2.784c-0.24-0.048-0.504-0.096-0.864-0.096
			c-1.416,0-2.376,0.912-2.64,2.231c-0.049,0.265-0.097,0.576-0.097,0.912v6.049h-2.952V19.778z"/>
	</g>
	<g>
		<path style="fill:#010101;" d="M91.877,14.931v5.232h5.016v2.257h-5.016v5.28h-2.353v-5.28h-5.017v-2.257h5.017v-5.232H91.877z"/>
	</g>
</g>
<g id="Layer_1">
</g>
</svg>
