<?xml version="1.0" encoding="iso-8859-1"?>
<!-- Generator: Adobe Illustrator 20.0.0, SVG Export Plug-In . SVG Version: 6.00 Build 0)  -->
<!DOCTYPE svg PUBLIC "-//W3C//DTD SVG 1.1//EN" "http://www.w3.org/Graphics/SVG/1.1/DTD/svg11.dtd">
<svg version="1.1" xmlns="http://www.w3.org/2000/svg" xmlns:xlink="http://www.w3.org/1999/xlink" x="0px" y="0px"
	 viewBox="0 0 241.4 41.4" style="enable-background:new 0 0 241.4 41.4;" xml:space="preserve">
<g id="slides">
	<g>
		<path style="fill:#FFFFFF;" d="M40.7,35.7c0,2.75-2.25,5-5,5h-30c-2.75,0-5-2.25-5-5v-30c0-2.75,2.25-5,5-5h30c2.75,0,5,2.25,5,5
			V35.7z"/>
		<path style="fill:none;stroke:#010101;stroke-width:1.4;stroke-miterlimit:10;" d="M40.7,35.7c0,2.75-2.25,5-5,5h-30
			c-2.75,0-5-2.25-5-5v-30c0-2.75,2.25-5,5-5h30c2.75,0,5,2.25,5,5V35.7z"/>
	</g>
	<g>
		<path style="fill:#010101;" d="M15.421,9.901l10.562-4.907v2.333l-7.987,3.498v0.044l7.987,3.499V16.7l-10.562-4.906V9.901z"/>
		<path style="fill:#010101;" d="M17.884,36.318c0.683-1.958,1.276-4.246,1.584-6.249l3.411-0.22
			c-0.727,2.244-1.717,4.555-2.772,6.271L17.884,36.318z"/>
	</g>
	<g>
		<path style="fill:#FFFFFF;" d="M190.7,35.7c0,2.75-2.25,5-5,5h-30c-2.75,0-5-2.25-5-5v-30c0-2.75,2.25-5,5-5h30c2.75,0,5,2.25,5,5
			V35.7z"/>
		<path style="fill:none;stroke:#010101;stroke-width:1.4;stroke-miterlimit:10;" d="M190.7,35.7c0,2.75-2.25,5-5,5h-30
			c-2.75,0-5-2.25-5-5v-30c0-2.75,2.25-5,5-5h30c2.75,0,5,2.25,5,5V35.7z"/>
	</g>
	<g>
		<path style="fill:#010101;" d="M156.351,12.148c0-0.896-0.028-1.625-0.057-2.269h1.513l0.084,1.05h0.028
			c0.505-0.771,1.303-1.204,2.34-1.204c1.568,0,2.871,1.345,2.871,3.474c0,2.466-1.555,3.656-3.109,3.656
			c-0.854,0-1.569-0.364-1.919-0.911h-0.028v3.53h-1.723V12.148z M158.074,13.843c0,0.168,0.014,0.322,0.056,0.477
			c0.168,0.7,0.785,1.204,1.513,1.204c1.093,0,1.737-0.91,1.737-2.255c0-1.205-0.588-2.186-1.695-2.186
			c-0.714,0-1.372,0.519-1.54,1.274c-0.042,0.141-0.07,0.295-0.07,0.435V13.843z"/>
		<path style="fill:#010101;" d="M168.379,16.7l-0.112-0.757h-0.042c-0.42,0.532-1.135,0.911-2.017,0.911
			c-1.373,0-2.144-0.995-2.144-2.031c0-1.723,1.526-2.592,4.048-2.577v-0.112c0-0.448-0.182-1.19-1.387-1.19
			c-0.672,0-1.372,0.21-1.835,0.504l-0.336-1.12c0.504-0.309,1.387-0.603,2.466-0.603c2.185,0,2.815,1.387,2.815,2.871v2.466
			c0,0.616,0.027,1.219,0.098,1.639H168.379z M168.154,13.366c-1.219-0.027-2.381,0.238-2.381,1.274c0,0.673,0.435,0.981,0.98,0.981
			c0.687,0,1.19-0.448,1.345-0.939c0.042-0.126,0.056-0.266,0.056-0.378V13.366z"/>
		<path style="fill:#010101;" d="M177.887,9.879c-0.028,0.462-0.057,1.022-0.057,1.961v3.866c0,1.429-0.294,2.451-1.008,3.096
			c-0.715,0.63-1.695,0.826-2.634,0.826c-0.868,0-1.793-0.183-2.382-0.547l0.379-1.303c0.434,0.253,1.162,0.519,1.989,0.519
			c1.12,0,1.961-0.588,1.961-2.059V15.65h-0.028c-0.393,0.603-1.093,1.009-1.989,1.009c-1.694,0-2.899-1.4-2.899-3.334
			c0-2.241,1.457-3.6,3.096-3.6c1.036,0,1.653,0.504,1.975,1.064h0.028l0.07-0.91H177.887z M176.107,12.61
			c0-0.154-0.014-0.322-0.056-0.463c-0.183-0.63-0.673-1.106-1.401-1.106c-0.966,0-1.681,0.841-1.681,2.228
			c0,1.162,0.588,2.101,1.667,2.101c0.645,0,1.204-0.42,1.4-1.036c0.042-0.183,0.07-0.42,0.07-0.616V12.61z"/>
		<path style="fill:#010101;" d="M180.894,13.773c0.042,1.232,1.008,1.765,2.101,1.765c0.799,0,1.373-0.111,1.892-0.308l0.252,1.19
			c-0.589,0.238-1.401,0.42-2.382,0.42c-2.213,0-3.516-1.358-3.516-3.445c0-1.892,1.148-3.67,3.334-3.67
			c2.213,0,2.941,1.821,2.941,3.319c0,0.322-0.028,0.574-0.056,0.729H180.894z M183.891,12.568c0.014-0.631-0.266-1.667-1.415-1.667
			c-1.064,0-1.513,0.966-1.582,1.667H183.891z"/>
		<path style="fill:#010101;" d="M169.654,31.655c0,0.812,0.027,1.484,0.056,2.045h-1.513l-0.084-1.036h-0.028
			c-0.294,0.49-0.967,1.19-2.186,1.19c-1.246,0-2.381-0.742-2.381-2.97v-4.006h1.723v3.712c0,1.135,0.364,1.862,1.275,1.862
			c0.686,0,1.134-0.49,1.316-0.924c0.056-0.154,0.098-0.337,0.098-0.532v-4.118h1.724V31.655z"/>
		<path style="fill:#010101;" d="M171.512,29.148c0-0.896-0.028-1.625-0.057-2.269h1.513l0.085,1.05h0.027
			c0.505-0.771,1.303-1.204,2.34-1.204c1.568,0,2.871,1.345,2.871,3.474c0,2.466-1.555,3.656-3.109,3.656
			c-0.854,0-1.569-0.364-1.919-0.911h-0.028v3.53h-1.723V29.148z M173.235,30.843c0,0.168,0.014,0.322,0.056,0.477
			c0.168,0.7,0.785,1.204,1.513,1.204c1.093,0,1.737-0.91,1.737-2.255c0-1.205-0.588-2.186-1.694-2.186
			c-0.715,0-1.373,0.519-1.541,1.274c-0.042,0.141-0.07,0.295-0.07,0.435V30.843z"/>
	</g>
	<g>
		<path style="fill:#FFFFFF;" d="M240.7,35.7c0,2.75-2.25,5-5,5h-30c-2.75,0-5-2.25-5-5v-30c0-2.75,2.25-5,5-5h30c2.75,0,5,2.25,5,5
			V35.7z"/>
		<path style="fill:none;stroke:#010101;stroke-width:1.4;stroke-miterlimit:10;" d="M240.7,35.7c0,2.75-2.25,5-5,5h-30
			c-2.75,0-5-2.25-5-5v-30c0-2.75,2.25-5,5-5h30c2.75,0,5,2.25,5,5V35.7z"/>
	</g>
	<g>
		<path style="fill:#010101;" d="M206.351,12.148c0-0.896-0.028-1.625-0.057-2.269h1.513l0.084,1.05h0.028
			c0.505-0.771,1.303-1.204,2.34-1.204c1.568,0,2.871,1.345,2.871,3.474c0,2.466-1.555,3.656-3.109,3.656
			c-0.854,0-1.569-0.364-1.919-0.911h-0.028v3.53h-1.723V12.148z M208.074,13.843c0,0.168,0.014,0.322,0.056,0.477
			c0.168,0.7,0.785,1.204,1.513,1.204c1.093,0,1.737-0.91,1.737-2.255c0-1.205-0.588-2.186-1.695-2.186
			c-0.714,0-1.372,0.519-1.54,1.274c-0.042,0.141-0.07,0.295-0.07,0.435V13.843z"/>
		<path style="fill:#010101;" d="M218.379,16.7l-0.112-0.757h-0.042c-0.42,0.532-1.135,0.911-2.017,0.911
			c-1.373,0-2.144-0.995-2.144-2.031c0-1.723,1.526-2.592,4.048-2.577v-0.112c0-0.448-0.182-1.19-1.387-1.19
			c-0.672,0-1.372,0.21-1.835,0.504l-0.336-1.12c0.504-0.309,1.387-0.603,2.466-0.603c2.185,0,2.815,1.387,2.815,2.871v2.466
			c0,0.616,0.027,1.219,0.098,1.639H218.379z M218.154,13.366c-1.219-0.027-2.381,0.238-2.381,1.274c0,0.673,0.435,0.981,0.98,0.981
			c0.687,0,1.19-0.448,1.345-0.939c0.042-0.126,0.056-0.266,0.056-0.378V13.366z"/>
		<path style="fill:#010101;" d="M227.887,9.879c-0.028,0.462-0.057,1.022-0.057,1.961v3.866c0,1.429-0.294,2.451-1.008,3.096
			c-0.715,0.63-1.695,0.826-2.634,0.826c-0.868,0-1.793-0.183-2.382-0.547l0.379-1.303c0.434,0.253,1.162,0.519,1.989,0.519
			c1.12,0,1.961-0.588,1.961-2.059V15.65h-0.028c-0.393,0.603-1.093,1.009-1.989,1.009c-1.694,0-2.899-1.4-2.899-3.334
			c0-2.241,1.457-3.6,3.096-3.6c1.036,0,1.653,0.504,1.975,1.064h0.028l0.07-0.91H227.887z M226.107,12.61
			c0-0.154-0.014-0.322-0.056-0.463c-0.183-0.63-0.673-1.106-1.401-1.106c-0.966,0-1.681,0.841-1.681,2.228
			c0,1.162,0.588,2.101,1.667,2.101c0.645,0,1.204-0.42,1.4-1.036c0.042-0.183,0.07-0.42,0.07-0.616V12.61z"/>
		<path style="fill:#010101;" d="M230.894,13.773c0.042,1.232,1.008,1.765,2.101,1.765c0.799,0,1.373-0.111,1.892-0.308l0.252,1.19
			c-0.589,0.238-1.401,0.42-2.382,0.42c-2.213,0-3.516-1.358-3.516-3.445c0-1.892,1.148-3.67,3.334-3.67
			c2.213,0,2.941,1.821,2.941,3.319c0,0.322-0.028,0.574-0.056,0.729H230.894z M233.891,12.568c0.014-0.631-0.266-1.667-1.415-1.667
			c-1.064,0-1.513,0.966-1.582,1.667H233.891z"/>
		<path style="fill:#010101;" d="M210.708,23.755v8.026c0,0.7,0.028,1.457,0.056,1.919h-1.54l-0.07-1.078h-0.028
			c-0.406,0.756-1.232,1.232-2.227,1.232c-1.625,0-2.914-1.387-2.914-3.488c-0.014-2.283,1.415-3.642,3.054-3.642
			c0.938,0,1.611,0.392,1.919,0.896h0.028v-3.866H210.708z M208.985,29.722c0-0.14-0.015-0.308-0.042-0.448
			c-0.154-0.672-0.7-1.219-1.485-1.219c-1.106,0-1.723,0.981-1.723,2.256c0,1.246,0.616,2.157,1.709,2.157
			c0.7,0,1.316-0.477,1.484-1.219c0.042-0.154,0.057-0.322,0.057-0.505V29.722z"/>
		<path style="fill:#010101;" d="M219.038,30.227c0,2.507-1.765,3.628-3.502,3.628c-1.934,0-3.418-1.331-3.418-3.516
			c0-2.242,1.471-3.614,3.53-3.614C217.679,26.725,219.038,28.153,219.038,30.227z M213.897,30.296c0,1.317,0.645,2.312,1.694,2.312
			c0.98,0,1.667-0.967,1.667-2.339c0-1.064-0.477-2.283-1.652-2.283C214.387,27.985,213.897,29.162,213.897,30.296z"/>
		<path style="fill:#010101;" d="M221.373,26.879l0.715,3.096c0.153,0.728,0.308,1.471,0.434,2.213h0.028
			c0.14-0.742,0.364-1.499,0.561-2.199l0.882-3.109h1.401l0.854,3.025c0.21,0.798,0.392,1.541,0.546,2.283h0.028
			c0.112-0.742,0.266-1.485,0.448-2.283l0.756-3.025h1.695l-2.144,6.821h-1.597l-0.812-2.773c-0.21-0.715-0.364-1.358-0.518-2.186
			h-0.028c-0.141,0.841-0.322,1.513-0.519,2.186l-0.868,2.773h-1.611l-2.017-6.821H221.373z"/>
		<path style="fill:#010101;" d="M230.822,28.909c0-0.784-0.015-1.442-0.057-2.03h1.513l0.084,1.022h0.043
			c0.294-0.532,1.036-1.177,2.171-1.177c1.19,0,2.423,0.771,2.423,2.928V33.7h-1.723v-3.853c0-0.98-0.364-1.723-1.303-1.723
			c-0.687,0-1.162,0.49-1.345,1.009c-0.056,0.154-0.07,0.364-0.07,0.561V33.7h-1.736V28.909z"/>
	</g>
	<g>
		<path style="fill:#FFFFFF;" d="M90.7,35.7c0,2.75-2.25,5-5,5h-30c-2.75,0-5-2.25-5-5v-30c0-2.75,2.25-5,5-5h30c2.75,0,5,2.25,5,5
			V35.7z"/>
		<path style="fill:none;stroke:#010101;stroke-width:1.4;stroke-miterlimit:10;" d="M90.7,35.7c0,2.75-2.25,5-5,5h-30
			c-2.75,0-5-2.25-5-5v-30c0-2.75,2.25-5,5-5h30c2.75,0,5,2.25,5,5V35.7z"/>
	</g>
	<g>
		<path style="fill:#010101;" d="M75.982,11.859L65.421,16.7v-2.332l8.163-3.499v-0.044l-8.163-3.498V4.994l10.562,4.841V11.859z"/>
		<path style="fill:#010101;" d="M68.94,31.918c0-1.188,0.813-2.046,1.979-2.046c1.167,0,1.959,0.836,1.959,2.046
			c0,1.166-0.792,2.024-1.98,2.024C69.754,33.943,68.94,33.084,68.94,31.918z"/>
	</g>
	<g>
		<path style="fill:#010101;" d="M122.057,21.748c0,4.296-3.024,6.216-6.001,6.216c-3.312,0-5.856-2.28-5.856-6.024
			c0-3.84,2.521-6.192,6.049-6.192C119.729,15.747,122.057,18.195,122.057,21.748z M113.249,21.868c0,2.256,1.104,3.96,2.904,3.96
			c1.68,0,2.855-1.656,2.855-4.009c0-1.824-0.815-3.912-2.832-3.912C114.089,17.907,113.249,19.924,113.249,21.868z"/>
		<path style="fill:#010101;" d="M125.08,19.779c0-1.584-0.023-2.712-0.096-3.769h2.568l0.096,2.232h0.096
			c0.576-1.656,1.944-2.496,3.192-2.496c0.288,0,0.456,0.024,0.696,0.072v2.784c-0.24-0.048-0.504-0.096-0.864-0.096
			c-1.416,0-2.376,0.912-2.64,2.231c-0.049,0.265-0.097,0.576-0.097,0.912V27.7h-2.952V19.779z"/>
	</g>
</g>
<g id="Layer_1">
</g>
</svg>
