<?xml version="1.0" encoding="iso-8859-1"?>
<!-- Generator: Adobe Illustrator 20.0.0, SVG Export Plug-In . SVG Version: 6.00 Build 0)  -->
<!DOCTYPE svg PUBLIC "-//W3C//DTD SVG 1.1//EN" "http://www.w3.org/Graphics/SVG/1.1/DTD/svg11.dtd">
<svg version="1.1" xmlns="http://www.w3.org/2000/svg" xmlns:xlink="http://www.w3.org/1999/xlink" x="0px" y="0px"
	 viewBox="0 0 81.4 41.4" style="enable-background:new 0 0 81.4 41.4;" xml:space="preserve">
<g id="space">
	<g>
		<path style="fill:#FFFFFF;" d="M80.7,35.7c0,2.75-2.25,5-5,5h-70c-2.75,0-5-2.25-5-5v-30c0-2.75,2.25-5,5-5h70c2.75,0,5,2.25,5,5
			V35.7z"/>
		<path style="fill:none;stroke:#010101;stroke-width:1.4;stroke-miterlimit:10;" d="M80.7,35.7c0,2.75-2.25,5-5,5h-70
			c-2.75,0-5-2.25-5-5v-30c0-2.75,2.25-5,5-5h70c2.75,0,5,2.25,5,5V35.7z"/>
	</g>
	<g>
		<path style="fill:#010101;" d="M11.348,24.988c0.672,0.407,1.944,0.84,3,0.84c1.296,0,1.872-0.528,1.872-1.296
			c0-0.792-0.48-1.2-1.92-1.704c-2.28-0.792-3.24-2.04-3.217-3.408c0-2.064,1.704-3.673,4.417-3.673
			c1.296,0,2.424,0.336,3.096,0.696l-0.576,2.088c-0.504-0.288-1.439-0.672-2.472-0.672c-1.057,0-1.632,0.504-1.632,1.224
			c0,0.744,0.552,1.104,2.04,1.633c2.112,0.768,3.096,1.848,3.12,3.576c0,2.112-1.656,3.648-4.753,3.648
			c-1.416,0-2.688-0.336-3.552-0.816L11.348,24.988z"/>
		<path style="fill:#010101;" d="M22.099,19.9c0-1.536-0.048-2.784-0.096-3.889h2.592l0.145,1.801h0.048
			c0.864-1.32,2.232-2.064,4.008-2.064c2.688,0,4.921,2.305,4.921,5.952c0,4.225-2.664,6.265-5.328,6.265
			c-1.465,0-2.688-0.624-3.289-1.56h-0.048v6.048h-2.952V19.9z M25.052,22.804c0,0.288,0.024,0.552,0.097,0.816
			c0.288,1.2,1.344,2.063,2.592,2.063c1.872,0,2.977-1.56,2.977-3.864c0-2.063-1.009-3.744-2.904-3.744
			c-1.225,0-2.353,0.889-2.641,2.185c-0.072,0.24-0.12,0.504-0.12,0.744V22.804z"/>
		<path style="fill:#010101;" d="M43.317,27.7l-0.192-1.296h-0.072c-0.72,0.912-1.944,1.56-3.456,1.56
			c-2.353,0-3.672-1.704-3.672-3.479c0-2.953,2.616-4.44,6.937-4.417v-0.191c0-0.769-0.312-2.041-2.377-2.041
			c-1.151,0-2.352,0.36-3.144,0.864l-0.576-1.92c0.864-0.528,2.376-1.032,4.224-1.032c3.745,0,4.825,2.376,4.825,4.921v4.224
			c0,1.057,0.048,2.089,0.168,2.809H43.317z M42.932,21.987c-2.088-0.048-4.08,0.408-4.08,2.185c0,1.152,0.744,1.68,1.68,1.68
			c1.177,0,2.041-0.768,2.305-1.607c0.072-0.216,0.096-0.456,0.096-0.648V21.987z"/>
		<path style="fill:#010101;" d="M58.124,27.34c-0.624,0.288-1.848,0.601-3.312,0.601c-3.648,0-6.024-2.328-6.024-5.953
			c0-3.504,2.4-6.24,6.505-6.24c1.08,0,2.185,0.24,2.856,0.552l-0.528,2.209c-0.48-0.217-1.176-0.456-2.232-0.456
			c-2.256,0-3.6,1.655-3.576,3.792c0,2.4,1.561,3.769,3.576,3.769c1.032,0,1.752-0.217,2.328-0.456L58.124,27.34z"/>
		<path style="fill:#010101;" d="M62.779,22.684c0.072,2.112,1.729,3.024,3.601,3.024c1.368,0,2.353-0.192,3.24-0.528l0.433,2.04
			c-1.009,0.408-2.4,0.721-4.081,0.721c-3.792,0-6.024-2.328-6.024-5.904c0-3.24,1.969-6.289,5.713-6.289
			c3.792,0,5.04,3.12,5.04,5.688c0,0.552-0.048,0.984-0.096,1.248H62.779z M67.916,20.619c0.024-1.08-0.456-2.855-2.424-2.855
			c-1.824,0-2.593,1.656-2.713,2.855H67.916z"/>
	</g>
</g>
<g id="Layer_1">
</g>
</svg>
