<?xml version="1.0" encoding="iso-8859-1"?>
<!-- Generator: Adobe Illustrator 20.0.0, SVG Export Plug-In . SVG Version: 6.00 Build 0)  -->
<!DOCTYPE svg PUBLIC "-//W3C//DTD SVG 1.1//EN" "http://www.w3.org/Graphics/SVG/1.1/DTD/svg11.dtd">
<svg version="1.1" xmlns="http://www.w3.org/2000/svg" xmlns:xlink="http://www.w3.org/1999/xlink" x="0px" y="0px"
	 viewBox="0 0 161.885 41.4" style="enable-background:new 0 0 161.885 41.4;" xml:space="preserve">
<g id="URL">
	<g>
		<path style="fill:#FFFFFF;" d="M80.7,35.7c0,2.75-2.25,5-5,5h-70c-2.75,0-5-2.25-5-5v-30c0-2.75,2.25-5,5-5h70c2.75,0,5,2.25,5,5
			V35.7z"/>
		<path style="fill:none;stroke:#010101;stroke-width:1.4;stroke-miterlimit:10;" d="M80.7,35.7c0,2.75-2.25,5-5,5h-70
			c-2.75,0-5-2.25-5-5v-30c0-2.75,2.25-5,5-5h70c2.75,0,5,2.25,5,5V35.7z"/>
	</g>
	<g>
		<path style="fill:#010101;" d="M17.805,24.988c0.672,0.407,1.944,0.84,3,0.84c1.296,0,1.872-0.528,1.872-1.296
			c0-0.792-0.48-1.2-1.92-1.704c-2.28-0.792-3.24-2.04-3.217-3.408c0-2.064,1.704-3.673,4.417-3.673
			c1.296,0,2.424,0.336,3.096,0.696l-0.576,2.088c-0.504-0.288-1.439-0.672-2.472-0.672c-1.057,0-1.632,0.504-1.632,1.224
			c0,0.744,0.552,1.104,2.04,1.633c2.112,0.768,3.096,1.848,3.12,3.576c0,2.112-1.656,3.648-4.753,3.648
			c-1.416,0-2.688-0.336-3.552-0.816L17.805,24.988z"/>
		<path style="fill:#010101;" d="M28.556,10.659h2.977v6.96h0.048c0.36-0.552,0.84-1.008,1.464-1.344
			c0.576-0.336,1.272-0.528,2.017-0.528c1.992,0,4.08,1.32,4.08,5.064V27.7h-2.952v-6.553c0-1.704-0.624-2.977-2.256-2.977
			c-1.152,0-1.969,0.769-2.28,1.656c-0.097,0.24-0.12,0.553-0.12,0.889V27.7h-2.977V10.659z"/>
		<path style="fill:#010101;" d="M46.029,12.747c0,0.888-0.648,1.584-1.681,1.584c-0.983,0-1.632-0.696-1.632-1.584
			c0-0.912,0.672-1.608,1.656-1.608C45.381,11.139,46.005,11.835,46.029,12.747z M42.885,27.7V16.011h2.977V27.7H42.885z"/>
		<path style="fill:#010101;" d="M49.965,27.7v-9.48h-1.584v-2.209h1.584v-0.504c0-1.512,0.408-3.024,1.416-3.984
			c0.864-0.815,2.04-1.128,3.049-1.128c0.792,0,1.416,0.12,1.896,0.288l-0.216,2.28c-0.312-0.12-0.72-0.216-1.248-0.216
			c-1.464,0-1.968,1.224-1.968,2.664v0.6h2.568v2.209h-2.545v9.48H49.965z"/>
		<path style="fill:#010101;" d="M61.581,12.675v3.336h2.808v2.209h-2.808v5.16c0,1.416,0.384,2.16,1.512,2.16
			c0.504,0,0.888-0.072,1.152-0.145l0.048,2.257c-0.432,0.168-1.2,0.288-2.136,0.288c-1.08,0-1.992-0.36-2.545-0.96
			c-0.624-0.673-0.912-1.729-0.912-3.265V18.22h-1.68v-2.209h1.68v-2.64L61.581,12.675z"/>
	</g>
	<g>
		<path style="fill:#010101;" d="M96.877,14.93v5.232h5.016v2.257h-5.016v5.28h-2.353v-5.28h-5.017v-2.257h5.017V14.93H96.877z"/>
	</g>
	<g>
		<path style="fill:#010101;" d="M123.125,27.219c-0.695,0.36-2.231,0.721-4.176,0.721c-5.137,0-8.257-3.217-8.257-8.137
			c0-5.329,3.696-8.545,8.641-8.545c1.944,0,3.336,0.408,3.937,0.72l-0.648,2.353c-0.768-0.336-1.824-0.624-3.168-0.624
			c-3.288,0-5.665,2.064-5.665,5.952c0,3.553,2.089,5.833,5.641,5.833c1.2,0,2.448-0.24,3.217-0.601L123.125,27.219z"/>
		<path style="fill:#010101;" d="M126.053,10.658h2.977v17.041h-2.977V10.658z"/>
		<path style="fill:#010101;" d="M135.965,12.746c0,0.888-0.648,1.584-1.681,1.584c-0.983,0-1.632-0.696-1.632-1.584
			c0-0.912,0.672-1.608,1.656-1.608C135.316,11.138,135.94,11.834,135.965,12.746z M132.82,27.699V16.01h2.977v11.689H132.82z"/>
		<path style="fill:#010101;" d="M148.156,27.339c-0.624,0.288-1.848,0.601-3.312,0.601c-3.648,0-6.024-2.328-6.024-5.953
			c0-3.504,2.4-6.24,6.505-6.24c1.08,0,2.185,0.24,2.856,0.552l-0.528,2.209c-0.48-0.217-1.176-0.456-2.232-0.456
			c-2.256,0-3.601,1.655-3.576,3.792c0,2.4,1.561,3.769,3.576,3.769c1.032,0,1.752-0.217,2.328-0.456L148.156,27.339z"/>
		<path style="fill:#010101;" d="M153.891,21.147h0.048c0.288-0.456,0.624-0.96,0.937-1.368l2.832-3.769h3.553l-4.32,4.777
			l4.944,6.912h-3.625l-3.359-5.16l-1.009,1.176v3.984h-2.952V10.658h2.952V21.147z"/>
	</g>
</g>
<g id="Layer_1">
</g>
</svg>
