<?xml version="1.0" encoding="utf-8"?>
<!-- Generator: Adobe Illustrator 21.0.2, SVG Export Plug-In . SVG Version: 6.00 Build 0)  -->
<!DOCTYPE svg PUBLIC "-//W3C//DTD SVG 1.1//EN" "http://www.w3.org/Graphics/SVG/1.1/DTD/svg11.dtd">
<svg version="1.1" id="Layer_1" xmlns="http://www.w3.org/2000/svg" xmlns:xlink="http://www.w3.org/1999/xlink" x="0px" y="0px"
	 viewBox="0 0 41.4 41.4" style="enable-background:new 0 0 41.4 41.4;" xml:space="preserve">
<style type="text/css">
	.st0{fill:#FFFFFF;}
	.st1{fill:none;stroke:#010101;stroke-width:1.4;stroke-miterlimit:10;}
	.st2{fill:#010101;}
</style>
<g id="panes">
	<g>
		<path class="st0" d="M40.7,35.7c0,2.8-2.2,5-5,5h-30c-2.7,0-5-2.2-5-5v-30c0-2.7,2.2-5,5-5h30c2.8,0,5,2.2,5,5V35.7z"/>
		<path class="st1" d="M40.7,35.7c0,2.8-2.2,5-5,5h-30c-2.7,0-5-2.2-5-5v-30c0-2.7,2.2-5,5-5h30c2.8,0,5,2.2,5,5V35.7z"/>
	</g>
	<g>
		<path class="st2" d="M15.6,16l0.9,4.8c0.2,1.2,0.5,2.5,0.7,3.9h0c0.2-1.3,0.6-2.7,0.9-3.8l1.2-4.8h2.9l1.2,4.7
			c0.3,1.3,0.6,2.6,0.9,4h0c0.2-1.3,0.4-2.7,0.7-4l1-4.7h3.6L26,27.7h-3.4l-1.1-4.1c-0.3-1.2-0.5-2.2-0.7-3.6h0
			c-0.2,1.5-0.5,2.5-0.8,3.6l-1.2,4.1h-3.4L11.9,16H15.6z"/>
	</g>
</g>
<g id="Layer_1_1_">
</g>
</svg>
