<?xml version="1.0" encoding="iso-8859-1"?>
<!-- Generator: Adobe Illustrator 20.0.0, SVG Export Plug-In . SVG Version: 6.00 Build 0)  -->
<!DOCTYPE svg PUBLIC "-//W3C//DTD SVG 1.1//EN" "http://www.w3.org/Graphics/SVG/1.1/DTD/svg11.dtd">
<svg version="1.1" xmlns="http://www.w3.org/2000/svg" xmlns:xlink="http://www.w3.org/1999/xlink" x="0px" y="0px"
	 viewBox="0 0 141.4 41.4" style="enable-background:new 0 0 141.4 41.4;" xml:space="preserve">
<g id="zoom">
	<g>
		<path style="fill:#FFFFFF;" d="M40.7,35.7c0,2.75-2.25,5-5,5h-30c-2.75,0-5-2.25-5-5v-30c0-2.75,2.25-5,5-5h30c2.75,0,5,2.25,5,5
			V35.7z"/>
		<path style="fill:none;stroke:#010101;stroke-width:1.4;stroke-miterlimit:10;" d="M40.7,35.7c0,2.75-2.25,5-5,5h-30
			c-2.75,0-5-2.25-5-5v-30c0-2.75,2.25-5,5-5h30c2.75,0,5,2.25,5,5V35.7z"/>
	</g>
	<g>
		<path style="fill:#010101;" d="M18.669,11.483c1.104-0.032,1.216-0.608,1.216-1.089c0-0.4-0.048-0.816-0.096-1.248
			c-0.048-0.433-0.08-0.864-0.08-1.265c0-1.505,0.944-2.161,2.433-2.161h0.561v1.36h-0.288c-0.72,0-0.977,0.433-0.977,1.137
			c0,0.288,0.048,0.576,0.08,0.912c0.032,0.32,0.08,0.688,0.08,1.089c0.017,1.216-0.48,1.664-1.36,1.856v0.032
			c0.88,0.192,1.377,0.656,1.36,1.873c0,0.416-0.048,0.784-0.08,1.12c-0.032,0.32-0.08,0.624-0.08,0.896
			c0,0.704,0.24,1.152,0.977,1.152h0.288v1.345h-0.576c-1.425,0-2.417-0.576-2.417-2.177c0-0.4,0.032-0.833,0.08-1.265
			c0.048-0.433,0.096-0.849,0.096-1.249c0-0.448-0.111-1.056-1.216-1.088V11.483z"/>
		<path style="fill:#010101;" d="M19.277,36.509V23.752h3.281v1.345h-1.521v10.067h1.521v1.345H19.277z"/>
	</g>
	<g>
		<path style="fill:#FFFFFF;" d="M90.7,35.7c0,2.75-2.25,5-5,5h-30c-2.75,0-5-2.25-5-5v-30c0-2.75,2.25-5,5-5h30c2.75,0,5,2.25,5,5
			V35.7z"/>
		<path style="fill:none;stroke:#010101;stroke-width:1.4;stroke-miterlimit:10;" d="M90.7,35.7c0,2.75-2.25,5-5,5h-30
			c-2.75,0-5-2.25-5-5v-30c0-2.75,2.25-5,5-5h30c2.75,0,5,2.25,5,5V35.7z"/>
	</g>
	<g>
		<path style="fill:#010101;" d="M72.734,12.715c-1.089,0.032-1.217,0.64-1.217,1.088c0,0.4,0.048,0.816,0.097,1.249
			c0.048,0.432,0.096,0.864,0.096,1.265c0,1.601-0.992,2.177-2.433,2.177H68.7v-1.345h0.289c0.736-0.016,0.976-0.448,0.976-1.152
			c0-0.272-0.031-0.576-0.08-0.896c-0.031-0.336-0.08-0.704-0.08-1.12c-0.016-1.217,0.48-1.681,1.377-1.873v-0.032
			c-0.896-0.192-1.393-0.641-1.377-1.856c0-0.4,0.049-0.769,0.08-1.089c0.049-0.336,0.08-0.624,0.08-0.912
			c0-0.704-0.256-1.12-0.976-1.137H68.7V5.72h0.561c1.505,0,2.449,0.656,2.449,2.161c0,0.4-0.048,0.832-0.096,1.265
			c-0.049,0.432-0.097,0.848-0.097,1.248c0,0.48,0.128,1.057,1.217,1.089V12.715z"/>
		<path style="fill:#010101;" d="M72.126,23.72v12.773H68.86v-1.345h1.521V25.065H68.86V23.72H72.126z"/>
	</g>
	<g>
		<path style="fill:#FFFFFF;" d="M140.7,35.7c0,2.75-2.25,5-5,5h-30c-2.75,0-5-2.25-5-5v-30c0-2.75,2.25-5,5-5h30c2.75,0,5,2.25,5,5
			V35.7z"/>
		<path style="fill:none;stroke:#010101;stroke-width:1.4;stroke-miterlimit:10;" d="M140.7,35.7c0,2.75-2.25,5-5,5h-30
			c-2.75,0-5-2.25-5-5v-30c0-2.75,2.25-5,5-5h30c2.75,0,5,2.25,5,5V35.7z"/>
	</g>
	<g>
		<path style="fill:#010101;" d="M121.329,5.705v11.993h-1.271V5.705H121.329z"/>
		<path style="fill:#010101;" d="M121.584,35.421l-3.638-13.055h1.818l3.619,13.055H121.584z"/>
	</g>
</g>
<g id="Layer_1">
</g>
</svg>
