<?xml version="1.0" encoding="utf-8"?>
<!-- Generator: Adobe Illustrator 21.0.2, SVG Export Plug-In . SVG Version: 6.00 Build 0)  -->
<!DOCTYPE svg PUBLIC "-//W3C//DTD SVG 1.1//EN" "http://www.w3.org/Graphics/SVG/1.1/DTD/svg11.dtd">
<svg version="1.1" xmlns="http://www.w3.org/2000/svg" xmlns:xlink="http://www.w3.org/1999/xlink" x="0px" y="0px"
	 viewBox="0 0 1400 200" style="enable-background:new 0 0 1400 200;" xml:space="preserve">
<style type="text/css">
	.st0{opacity:0.4;fill:url(#SVGID_1_);}
	.st1{opacity:0.9;}
	.st2{fill:url(#SVGID_2_);}
	.st3{opacity:0.8;}
	.st4{fill:none;stroke:#FFFFFF;stroke-width:7.3944;stroke-linecap:round;stroke-linejoin:round;}
	.st5{fill:#231F20;}
	.st6{fill:none;stroke:#FFFFFF;stroke-width:8;stroke-linecap:round;stroke-linejoin:round;}
	.st7{opacity:0.12;fill:url(#SVGID_3_);}
	.st8{opacity:0.18;fill:url(#SVGID_4_);}
	.st9{opacity:0.28;fill:url(#SVGID_5_);}
	.st10{opacity:0.4;fill:url(#SVGID_6_);}
	.st11{opacity:0.8;fill:url(#SVGID_7_);}
	.st12{fill:none;stroke:#A7A9AC;stroke-width:1.0233;stroke-linecap:round;stroke-linejoin:round;}
	.st13{fill:url(#SVGID_8_);}
	.st14{fill:url(#SVGID_9_);}
	.st15{fill:url(#SVGID_10_);}
	.st16{fill:url(#SVGID_11_);}
	.st17{fill:url(#SVGID_12_);}
	.st18{fill:url(#SVGID_13_);}
	.st19{fill:url(#SVGID_14_);}
	.st20{fill:url(#SVGID_15_);}
	.st21{fill:url(#SVGID_16_);}
	.st22{fill:url(#SVGID_17_);}
	.st23{fill:url(#SVGID_18_);}
	.st24{fill:url(#SVGID_19_);}
	.st25{fill:url(#SVGID_20_);}
	.st26{fill:url(#SVGID_21_);}
	.st27{fill:url(#SVGID_22_);}
	.st28{fill:url(#SVGID_23_);}
	.st29{fill:url(#SVGID_24_);}
	.st30{fill:url(#SVGID_25_);}
	.st31{fill:url(#SVGID_26_);}
	.st32{fill:url(#SVGID_27_);}
	.st33{fill:url(#SVGID_28_);}
	.st34{fill:url(#SVGID_29_);}
	.st35{fill:url(#SVGID_30_);}
	.st36{fill:url(#SVGID_31_);}
	.st37{fill:url(#SVGID_32_);}
	.st38{fill:url(#SVGID_33_);}
	.st39{fill:url(#SVGID_34_);}
	.st40{opacity:0.5;}
	.st41{fill:#AF685C;}
	.st42{fill:#6DC067;}
	.st43{fill:#696DB2;}
	.st44{fill:#6186B6;}
	.st45{fill:#00AEEF;}
	.st46{fill:#87858B;}
	.st47{fill:#CF3A31;}
	.st48{fill:#756EAB;}
	.st49{fill:#E7B921;}
	.st50{fill:#0083BE;}
	.st51{fill:#8451A1;}
	.st52{fill:none;stroke:#231F20;stroke-width:1.0233;stroke-linecap:round;stroke-linejoin:round;}
	.st53{fill:url(#SVGID_35_);}
	.st54{fill:url(#SVGID_36_);}
	.st55{fill:url(#SVGID_37_);}
	.st56{fill:url(#SVGID_38_);}
	.st57{fill:url(#SVGID_39_);}
	.st58{fill:url(#SVGID_40_);}
	.st59{fill:url(#SVGID_41_);}
	.st60{fill:url(#SVGID_42_);}
	.st61{fill:url(#SVGID_43_);}
	.st62{fill:url(#SVGID_44_);}
	.st63{fill:url(#SVGID_45_);}
	.st64{fill:url(#SVGID_46_);}
	.st65{fill:url(#SVGID_47_);}
	.st66{fill:url(#SVGID_48_);}
	.st67{fill:url(#SVGID_49_);}
	.st68{fill:url(#SVGID_50_);}
	.st69{fill:url(#SVGID_51_);}
	.st70{fill:url(#SVGID_52_);}
	.st71{fill:url(#SVGID_53_);}
	.st72{fill:url(#SVGID_54_);}
	.st73{fill:url(#SVGID_55_);}
	.st74{fill:url(#SVGID_56_);}
	.st75{fill:url(#SVGID_57_);}
	.st76{fill:url(#SVGID_58_);}
	.st77{fill:url(#SVGID_59_);}
	.st78{fill:url(#SVGID_60_);}
	.st79{fill:url(#SVGID_61_);}
	.st80{opacity:0.6;fill:#AF685C;}
	.st81{opacity:0.6;fill:#6DC067;}
	.st82{opacity:0.6;fill:#696DB2;}
	.st83{opacity:0.6;fill:#6186B6;}
	.st84{opacity:0.6;fill:#00AEEF;}
	.st85{opacity:0.6;fill:#87858B;}
	.st86{opacity:0.6;fill:#CF3A31;}
	.st87{opacity:0.6;fill:#756EAB;}
	.st88{fill:url(#SVGID_62_);}
	.st89{fill:url(#SVGID_63_);}
	.st90{opacity:0.6;fill:#E7B921;}
	.st91{opacity:0.6;fill:#0083BE;}
	.st92{opacity:0.6;fill:#8451A1;}
	.st93{fill:url(#SVGID_64_);}
	.st94{fill:url(#SVGID_65_);}
	.st95{fill:#CAD48A;}
	.st96{fill:#FFFFFF;}
	.st97{fill:none;stroke:#000000;stroke-width:0.9008;}
	.st98{fill:#FFFFFF;stroke:#000000;stroke-width:0.9008;}
	.st99{fill:#FFFFFF;stroke:#FFFFFF;stroke-width:5.001;}
	.st100{fill:#A6332A;}
	.st101{fill:#EE7931;}
	.st102{fill:#005EAD;}
	.st103{fill:#80C343;}
	.st104{fill:#00AC4C;}
	.st105{fill:#6D6E71;}
	.st106{fill:#C6B637;}
	.st107{fill:#AA55A1;}
	.st108{fill:#939598;}
	.st109{fill:#9CB83C;}
	.st110{fill:#CC7B16;}
	.st111{fill:#C6A414;}
	.st112{fill:#42B649;}
	.st113{fill:#8485A9;}
	.st114{opacity:0.12;fill:url(#SVGID_66_);}
	.st115{opacity:0.18;fill:url(#SVGID_67_);}
	.st116{opacity:0.28;fill:url(#SVGID_68_);}
	.st117{opacity:0.4;fill:url(#SVGID_69_);}
	.st118{opacity:0.8;fill:url(#SVGID_70_);}
	.st119{fill:url(#SVGID_71_);}
	.st120{fill:url(#SVGID_72_);}
	.st121{fill:url(#SVGID_73_);}
	.st122{fill:url(#SVGID_74_);}
	.st123{fill:url(#SVGID_75_);}
	.st124{fill:url(#SVGID_76_);}
	.st125{fill:url(#SVGID_77_);}
	.st126{fill:url(#SVGID_78_);}
	.st127{fill:url(#SVGID_79_);}
	.st128{fill:url(#SVGID_80_);}
	.st129{fill:url(#SVGID_81_);}
	.st130{fill:url(#SVGID_82_);}
	.st131{fill:url(#SVGID_83_);}
	.st132{fill:url(#SVGID_84_);}
	.st133{fill:url(#SVGID_85_);}
	.st134{fill:url(#SVGID_86_);}
	.st135{fill:url(#SVGID_87_);}
	.st136{fill:url(#SVGID_88_);}
	.st137{fill:url(#SVGID_89_);}
	.st138{fill:url(#SVGID_90_);}
	.st139{fill:url(#SVGID_91_);}
	.st140{fill:url(#SVGID_92_);}
	.st141{fill:url(#SVGID_93_);}
	.st142{fill:url(#SVGID_94_);}
	.st143{fill:url(#SVGID_95_);}
	.st144{fill:url(#SVGID_96_);}
	.st145{fill:url(#SVGID_97_);}
	.st146{fill:url(#SVGID_98_);}
	.st147{fill:url(#SVGID_99_);}
	.st148{fill:url(#SVGID_100_);}
	.st149{fill:url(#SVGID_101_);}
	.st150{fill:url(#SVGID_102_);}
	.st151{fill:url(#SVGID_103_);}
	.st152{fill:url(#SVGID_104_);}
	.st153{fill:url(#SVGID_105_);}
	.st154{fill:url(#SVGID_106_);}
	.st155{fill:url(#SVGID_107_);}
	.st156{fill:url(#SVGID_108_);}
	.st157{fill:url(#SVGID_109_);}
	.st158{fill:url(#SVGID_110_);}
	.st159{fill:url(#SVGID_111_);}
	.st160{fill:url(#SVGID_112_);}
	.st161{fill:url(#SVGID_113_);}
	.st162{fill:url(#SVGID_114_);}
	.st163{fill:url(#SVGID_115_);}
	.st164{fill:url(#SVGID_116_);}
	.st165{fill:url(#SVGID_117_);}
	.st166{fill:url(#SVGID_118_);}
	.st167{fill:url(#SVGID_119_);}
	.st168{fill:url(#SVGID_120_);}
	.st169{fill:url(#SVGID_121_);}
	.st170{fill:url(#SVGID_122_);}
	.st171{fill:url(#SVGID_123_);}
	.st172{fill:url(#SVGID_124_);}
	.st173{fill:url(#SVGID_125_);}
	.st174{fill:url(#SVGID_126_);}
	.st175{fill:url(#SVGID_127_);}
	.st176{opacity:0.6;fill:none;stroke:#F7941D;stroke-width:8;stroke-miterlimit:10;}
	.st177{fill:none;stroke:#231F20;stroke-width:2;stroke-miterlimit:10;}
	.st178{opacity:0.9;fill:url(#SVGID_128_);}
	.st179{opacity:0.9;fill:url(#SVGID_129_);}
	.st180{fill:url(#SVGID_130_);}
	.st181{opacity:0.9;fill:url(#SVGID_131_);}
	.st182{opacity:0.9;fill:url(#SVGID_132_);}
	.st183{opacity:0.9;fill:url(#SVGID_133_);}
	.st184{fill:none;stroke:#231F20;stroke-width:1.4173;stroke-miterlimit:10;}
	.st185{fill:none;stroke:#C1CF85;stroke-width:10;stroke-miterlimit:10;}
	.st186{opacity:0.9;fill:url(#SVGID_134_);}
	.st187{opacity:0.3;fill:none;stroke:#3F8EC0;stroke-width:10;stroke-miterlimit:10;}
	.st188{fill:none;stroke:#F1C618;stroke-width:10;stroke-miterlimit:10;}
	.st189{fill:none;stroke:#FFFFFF;stroke-width:3;stroke-linecap:round;stroke-miterlimit:10;}
	.st190{opacity:0.9;fill:url(#SVGID_135_);}
	.st191{opacity:0.9;fill:url(#SVGID_136_);}
	.st192{fill:none;stroke:#231F20;stroke-width:1.4173;}
	.st193{fill:none;stroke:#F7941D;stroke-width:1.4173;}
	.st194{fill:none;stroke:#F7941D;stroke-width:3;}
	.st195{fill:#FFFFFF;stroke:#231F20;stroke-width:1.4173;}
	.st196{fill:none;stroke:#FFFFFF;stroke-width:8;stroke-miterlimit:10;}
	.st197{fill:none;stroke:#231F20;stroke-width:1.2324;stroke-miterlimit:10;}
	.st198{fill:url(#SVGID_137_);}
	.st199{fill:none;stroke:#231F20;stroke-width:4.9296;stroke-miterlimit:5;}
	.st200{fill:url(#SVGID_138_);}
	.st201{fill:url(#SVGID_139_);}
	.st202{fill:url(#SVGID_140_);}
	.st203{fill:url(#SVGID_141_);}
	.st204{fill:url(#SVGID_142_);}
	.st205{fill:url(#SVGID_143_);}
	.st206{fill:url(#SVGID_144_);}
	.st207{fill:url(#SVGID_145_);}
	.st208{fill:url(#SVGID_146_);}
	.st209{fill:url(#SVGID_147_);}
	.st210{fill:url(#SVGID_148_);}
	.st211{fill:url(#SVGID_149_);}
	.st212{fill:url(#SVGID_150_);}
	.st213{fill:url(#SVGID_151_);}
	.st214{fill:url(#SVGID_152_);}
	.st215{fill:url(#SVGID_153_);}
	.st216{fill:url(#SVGID_154_);}
	.st217{fill:url(#SVGID_155_);}
	.st218{fill:url(#SVGID_156_);}
	.st219{fill:url(#SVGID_157_);}
	.st220{fill:url(#SVGID_158_);}
	.st221{fill:url(#SVGID_159_);}
	.st222{fill:url(#SVGID_160_);}
	.st223{fill:url(#SVGID_161_);}
	.st224{fill:url(#SVGID_162_);}
	.st225{fill:url(#SVGID_163_);}
	.st226{fill:url(#SVGID_164_);}
	.st227{fill:url(#SVGID_165_);}
	.st228{fill:url(#SVGID_166_);}
	.st229{fill:url(#SVGID_167_);}
	.st230{fill:url(#SVGID_168_);}
	.st231{fill:url(#SVGID_169_);}
	.st232{fill:url(#SVGID_170_);}
	.st233{fill:url(#SVGID_171_);}
	.st234{fill:url(#SVGID_172_);}
	.st235{fill:url(#SVGID_173_);}
	.st236{fill:url(#SVGID_174_);}
	.st237{fill:url(#SVGID_175_);}
	.st238{fill:url(#SVGID_176_);}
	.st239{fill:url(#SVGID_177_);}
	.st240{fill:url(#SVGID_178_);}
	.st241{fill:url(#SVGID_179_);}
	.st242{fill:url(#SVGID_180_);}
	.st243{fill:url(#SVGID_181_);}
	.st244{fill:url(#SVGID_182_);}
	.st245{fill:url(#SVGID_183_);}
	.st246{fill:url(#SVGID_184_);}
	.st247{fill:url(#SVGID_185_);}
	.st248{fill:url(#SVGID_186_);}
	.st249{fill:url(#SVGID_187_);}
	.st250{fill:url(#SVGID_188_);}
	.st251{fill:url(#SVGID_189_);}
	.st252{fill:url(#SVGID_190_);}
	.st253{fill:url(#SVGID_191_);}
	.st254{fill:url(#SVGID_192_);}
	.st255{fill:url(#SVGID_193_);}
	.st256{fill:url(#SVGID_194_);}
	.st257{fill:url(#SVGID_195_);}
	.st258{fill:url(#SVGID_196_);}
	.st259{fill:url(#SVGID_197_);}
	.st260{fill:url(#SVGID_198_);}
	.st261{fill:url(#SVGID_199_);}
	.st262{fill:none;stroke:#231F20;stroke-width:2.5;stroke-linecap:round;stroke-miterlimit:10;}
	.st263{display:none;}
	.st264{display:inline;opacity:0.4;}
	.st265{fill:#C9252C;}
	.st266{fill:#CFB82C;}
	.st267{fill:#6992B6;}
	.st268{fill:#8EA466;}
	.st269{fill:none;}
	.st270{fill:none;stroke:#231F20;stroke-width:0.9921;stroke-miterlimit:10;}
	.st271{fill:#ED1C24;}
	.st272{fill:#FFDA00;}
	.st273{fill:none;stroke:#231F20;stroke-width:0.4535;stroke-miterlimit:10;}
	.st274{fill:#88C86F;}
	.st275{fill:#76ACDD;}
</style>
<g id="Guides">
</g>
<g id="Background">
</g>
<g id="_x33_">
</g>
<g id="_x32_">
	<g id="Nuetral_w_x2F__Outline">
		<path class="st194" d="M206.894,98.871c116.223,0,118.956-88.871,60-88.871s-56.223,88.871,60,88.871"/>
		<path class="st194" d="M326.894,98.871c116.223,0,118.956-88.871,60-88.871s-56.223,88.871,60,88.871"/>
		<path class="st195" d="M264.557,152.029c0,16.514-13.422,24.392-2.896,24.392c5.55,0-3.064-5.069-3.994-24.645
			c-0.18-3.794-0.446-9.849,0.623-19.071c1.222-10.544,2.285-15.881,1.637-23.821c-0.522-6.408-6.498,1.92-7.069,5.858
			c-2.322,16.011-11.856,26.945-4.4,21.999c2.934-1.947-3.3-12.626,0.489-27.075c1.478-5.635,4.033-8.852,6.111-10.804
			c1.639-1.541,9.091-2.697,11.876-2.697c5.552,0,9.116-17.089-0.041-17.089c-9.156,0-5.459,17.102,0.092,17.102
			c1.722,0,10.205,1.243,11.738,2.684c2.078,1.953,3.976,7.502,6.611,12.431c9.093,9.433,13.172,15.042,15.467,12.662
			c6.211-6.441-12.577-1.7-19.291-8.923c-2.153-3.346-6.033-12.367-7.655-6.147c-2.071,7.94,1.813,13.277,3.035,23.821
			c1.069,9.222,0.241,16.072,0.561,19.857c1.642,19.475-7.799,22.61-3.082,24.198c20.567,6.926-3.227-3.595-3.227-25.782
			c0-9.772-1.699-13.82-4.251-13.927S264.557,141.833,264.557,152.029z"/>
		<path class="st195" d="M384.557,152.029c0,16.514-13.422,24.392-2.896,24.392c5.55,0-3.064-5.069-3.994-24.645
			c-0.18-3.794-0.446-9.849,0.623-19.071c1.222-10.544,2.285-15.881,1.637-23.821c-0.522-6.408-6.498,1.92-7.069,5.858
			c-2.322,16.011-11.856,26.945-4.4,21.999c2.934-1.947-3.3-12.626,0.489-27.075c1.478-5.635,4.033-8.852,6.111-10.804
			c1.639-1.541,9.091-2.697,11.876-2.697c5.552,0,9.116-17.089-0.041-17.089c-9.156,0-5.459,17.102,0.092,17.102
			c1.722,0,10.205,1.243,11.738,2.684c2.078,1.953,3.976,7.502,6.611,12.431c9.093,9.433,13.172,15.042,15.467,12.662
			c6.211-6.441-12.577-1.7-19.291-8.923c-2.153-3.346-6.033-12.367-7.655-6.147c-2.071,7.94,1.813,13.277,3.035,23.821
			c1.069,9.222,0.241,16.072,0.561,19.857c1.642,19.475-7.799,22.61-3.082,24.198c20.567,6.926-3.227-3.595-3.227-25.782
			c0-9.772-1.699-13.82-4.251-13.927S384.557,141.833,384.557,152.029z"/>
		<path class="st194" d="M446.894,98.871c116.223,0,118.956-88.871,60-88.871s-56.223,88.871,60,88.871"/>
		<path class="st195" d="M504.557,152.029c0,16.514-13.422,24.392-2.896,24.392c5.55,0-3.064-5.069-3.994-24.645
			c-0.18-3.794-0.446-9.849,0.623-19.071c1.222-10.544,2.285-15.881,1.637-23.821c-0.522-6.408-6.498,1.92-7.069,5.858
			c-2.322,16.011-11.856,26.945-4.4,21.999c2.934-1.947-3.3-12.626,0.489-27.075c1.478-5.635,4.033-8.852,6.111-10.804
			c1.639-1.541,9.091-2.697,11.876-2.697c5.552,0,9.116-17.089-0.041-17.089s-5.459,17.102,0.092,17.102
			c1.722,0,10.205,1.243,11.738,2.684c2.078,1.953,3.976,7.502,6.611,12.431c9.093,9.433,13.172,15.042,15.467,12.662
			c6.211-6.441-12.577-1.7-19.291-8.923c-2.153-3.346-6.033-12.367-7.655-6.147c-2.071,7.94,1.813,13.277,3.035,23.821
			c1.069,9.222,0.241,16.072,0.561,19.857c1.642,19.475-7.799,22.61-3.082,24.198c20.567,6.926-3.227-3.595-3.227-25.782
			c0-9.772-1.699-13.82-4.251-13.927S504.557,141.833,504.557,152.029z"/>
		<path class="st194" d="M566.894,98.871c116.223,0,118.956-88.871,60-88.871s-56.223,88.871,60,88.871"/>
		<path class="st195" d="M624.557,152.029c0,16.514-13.422,24.392-2.896,24.392c5.55,0-3.064-5.069-3.994-24.645
			c-0.18-3.794-0.446-9.849,0.623-19.071c1.222-10.544,2.285-15.881,1.638-23.821c-0.522-6.408-6.498,1.92-7.069,5.858
			c-2.322,16.011-11.856,26.945-4.4,21.999c2.934-1.947-3.3-12.626,0.489-27.075c1.478-5.635,4.033-8.852,6.111-10.804
			c1.639-1.541,9.091-2.697,11.876-2.697c5.552,0,9.116-17.089-0.041-17.089s-5.459,17.102,0.092,17.102
			c1.722,0,10.205,1.243,11.738,2.684c2.078,1.953,3.976,7.502,6.611,12.431c9.093,9.433,13.172,15.042,15.467,12.662
			c6.211-6.441-12.577-1.7-19.291-8.923c-2.153-3.346-6.033-12.367-7.655-6.147c-2.071,7.94,1.813,13.277,3.035,23.821
			c1.069,9.222,0.241,16.072,0.561,19.857c1.642,19.475-7.799,22.61-3.082,24.198c20.567,6.926-3.227-3.595-3.227-25.782
			c0-9.772-1.699-13.82-4.251-13.927S624.557,141.833,624.557,152.029z"/>
		<path class="st194" d="M686.894,98.871c116.223,0,118.956-88.871,60-88.871s-56.223,88.871,60,88.871"/>
		<path class="st195" d="M744.557,152.029c0,16.514-13.422,24.392-2.896,24.392c5.55,0-3.064-5.069-3.994-24.645
			c-0.18-3.794-0.446-9.849,0.623-19.071c1.222-10.544,2.285-15.881,1.638-23.821c-0.522-6.408-6.498,1.92-7.069,5.858
			c-2.322,16.011-11.856,26.945-4.4,21.999c2.934-1.947-3.3-12.626,0.489-27.075c1.478-5.635,4.033-8.852,6.111-10.804
			c1.639-1.541,9.091-2.697,11.876-2.697c5.552,0,9.116-17.089-0.041-17.089s-5.459,17.102,0.092,17.102
			c1.722,0,10.205,1.243,11.738,2.684c2.078,1.953,3.976,7.502,6.611,12.431c9.093,9.433,13.172,15.042,15.467,12.662
			c6.211-6.441-12.577-1.7-19.291-8.923c-2.153-3.346-6.033-12.367-7.655-6.147c-2.071,7.94,1.813,13.277,3.035,23.821
			c1.069,9.222,0.241,16.072,0.561,19.857c1.642,19.475-7.799,22.61-3.082,24.198c20.567,6.926-3.227-3.595-3.227-25.782
			c0-9.772-1.699-13.82-4.251-13.927S744.557,141.833,744.557,152.029z"/>
		<path class="st194" d="M806.894,98.871c116.223,0,118.956-88.871,60-88.871s-56.223,88.871,60,88.871"/>
		<path class="st195" d="M864.557,152.029c0,16.514-13.422,24.392-2.896,24.392c5.55,0-3.064-5.069-3.994-24.645
			c-0.18-3.794-0.446-9.849,0.623-19.071c1.222-10.544,2.285-15.881,1.638-23.821c-0.522-6.408-6.498,1.92-7.069,5.858
			c-2.322,16.011-11.856,26.945-4.4,21.999c2.934-1.947-3.3-12.626,0.489-27.075c1.478-5.635,4.033-8.852,6.111-10.804
			c1.639-1.541,9.091-2.697,11.876-2.697c5.552,0,9.116-17.089-0.041-17.089s-5.459,17.102,0.092,17.102
			c1.722,0,10.205,1.243,11.738,2.684c2.078,1.953,3.976,7.502,6.611,12.431c9.093,9.433,13.172,15.042,15.467,12.662
			c6.211-6.441-12.577-1.7-19.291-8.923c-2.153-3.346-6.033-12.367-7.655-6.147c-2.071,7.94,1.813,13.277,3.035,23.821
			c1.069,9.222,0.241,16.072,0.561,19.857c1.642,19.475-7.799,22.61-3.082,24.198c20.567,6.926-3.227-3.595-3.227-25.782
			c0-9.772-1.699-13.82-4.251-13.927S864.557,141.833,864.557,152.029z"/>
		<path class="st194" d="M926.894,98.871c116.223,0,118.956-88.871,60-88.871c-58.956,0-56.223,88.871,60,88.871"/>
		<path class="st195" d="M984.557,152.029c0,16.514-13.422,24.392-2.896,24.392c5.55,0-3.064-5.069-3.994-24.645
			c-0.18-3.794-0.446-9.849,0.623-19.071c1.222-10.544,2.285-15.881,1.638-23.821c-0.522-6.408-6.498,1.92-7.069,5.858
			c-2.322,16.011-11.856,26.945-4.4,21.999c2.934-1.947-3.3-12.626,0.489-27.075c1.478-5.635,4.033-8.852,6.111-10.804
			c1.639-1.541,9.091-2.697,11.876-2.697c5.552,0,9.116-17.089-0.041-17.089s-5.459,17.102,0.092,17.102
			c1.722,0,10.205,1.243,11.738,2.684c2.078,1.953,3.976,7.502,6.611,12.431c9.093,9.433,13.172,15.042,15.467,12.662
			c6.211-6.441-12.577-1.7-19.291-8.923c-2.153-3.346-6.033-12.367-7.655-6.147c-2.071,7.94,1.813,13.277,3.035,23.821
			c1.069,9.222,0.241,16.072,0.561,19.857c1.642,19.475-7.799,22.61-3.082,24.198c20.567,6.926-3.227-3.595-3.227-25.782
			c0-9.772-1.699-13.82-4.251-13.927S984.557,141.833,984.557,152.029z"/>
		<path class="st194" d="M1046.894,98.871c116.223,0,118.956-88.871,60-88.871c-58.956,0-56.223,88.871,60,88.871"/>
		<path class="st195" d="M1104.557,152.029c0,16.514-13.422,24.392-2.896,24.392c5.55,0-3.064-5.069-3.994-24.645
			c-0.18-3.794-0.446-9.849,0.623-19.071c1.222-10.544,2.285-15.881,1.637-23.821c-0.522-6.408-6.498,1.92-7.069,5.858
			c-2.322,16.011-11.856,26.945-4.4,21.999c2.934-1.947-3.3-12.626,0.489-27.075c1.478-5.635,4.033-8.852,6.111-10.804
			c1.639-1.541,9.091-2.697,11.876-2.697c5.552,0,9.115-17.089-0.041-17.089c-9.156,0-5.459,17.102,0.092,17.102
			c1.722,0,10.205,1.243,11.738,2.684c2.078,1.953,3.976,7.502,6.611,12.431c9.093,9.433,13.172,15.042,15.467,12.662
			c6.211-6.441-12.577-1.7-19.291-8.923c-2.153-3.346-6.033-12.367-7.655-6.147c-2.071,7.94,1.813,13.277,3.035,23.821
			c1.069,9.222,0.241,16.072,0.561,19.857c1.642,19.475-7.799,22.61-3.082,24.198c20.567,6.926-3.227-3.595-3.227-25.782
			c0-9.772-1.699-13.82-4.251-13.927C1104.339,136.947,1104.557,141.833,1104.557,152.029z"/>
		<line class="st194" x1="126.894" y1="98.871" x2="206.894" y2="98.871"/>
		<line class="st194" x1="1166.894" y1="98.871" x2="1246.894" y2="98.871"/>
	</g>
</g>
<g id="_x31_">
</g>
<g id="_x34_" class="st263">
</g>
<g id="_x35_">
</g>
<g id="_x36_">
</g>
<g id="_x37_">
</g>
<g id="_x38_">
</g>
<g id="_x39_">
</g>
<g id="_x31_0">
</g>
<g id="Notes">
</g>
<g id="Sheet_Info.">
</g>
</svg>
